Arapey-Regular.otf.ufo
<glyph name="exclam" format="1">
  <advance width="274"/>
  <unicode hex="0021"/>
  <outline>
    <contour>
      <point x="150" y="170" type="line" name="hr00"/>
      <point x="160" y="320" smooth="yes"/>
      <point x="183" y="553" smooth="yes"/>
      <point x="183" y="583" type="curve" smooth="yes"/>
      <point x="183" y="620" smooth="yes"/>
      <point x="167" y="642" smooth="yes"/>
      <point x="137" y="642" type="curve" smooth="yes"/>
      <point x="107" y="642" smooth="yes"/>
      <point x="90" y="620" smooth="yes"/>
      <point x="90" y="583" type="curve" smooth="yes"/>
      <point x="90" y="553"/>
      <point x="114" y="320"/>
      <point x="124" y="170" type="curve"/>
    </contour>
    <contour>
      <point x="185" y="36" type="curve" smooth="yes"/>
      <point x="185" y="62" smooth="yes"/>
      <point x="163" y="84" smooth="yes"/>
      <point x="137" y="84" type="curve" smooth="yes"/>
      <point x="111" y="84" smooth="yes"/>
      <point x="89" y="62" smooth="yes"/>
      <point x="89" y="36" type="curve" smooth="yes"/>
      <point x="89" y="10" smooth="yes"/>
      <point x="111" y="-12" smooth="yes"/>
      <point x="137" y="-12" type="curve" smooth="yes"/>
      <point x="163" y="-12" smooth="yes"/>
      <point x="185" y="10" smooth="yes"/>
    </contour>
  </outline>
</glyph>
<glyph name="quotedbl" format="1">
  <advance width="277"/>
  <unicode hex="0022"/>
  <outline>
    <contour>
      <point x="84" y="444" type="line" name="hr00"/>
      <point x="101" y="524" smooth="yes"/>
      <point x="121" y="610" smooth="yes"/>
      <point x="121" y="618" type="curve" smooth="yes"/>
      <point x="121" y="652" smooth="yes"/>
      <point x="101" y="668" smooth="yes"/>
      <point x="76" y="668" type="curve" smooth="yes"/>
      <point x="50" y="668" smooth="yes"/>
      <point x="30" y="651" smooth="yes"/>
      <point x="30" y="618" type="curve" smooth="yes"/>
      <point x="30" y="610"/>
      <point x="50" y="524"/>
      <point x="67" y="444" type="curve"/>
    </contour>
    <contour>
      <point x="210" y="444" type="line"/>
      <point x="227" y="524" smooth="yes"/>
      <point x="247" y="610" smooth="yes"/>
      <point x="247" y="618" type="curve" smooth="yes"/>
      <point x="247" y="652" smooth="yes"/>
      <point x="227" y="668" smooth="yes"/>
      <point x="202" y="668" type="curve" smooth="yes"/>
      <point x="176" y="668" smooth="yes"/>
      <point x="156" y="651" smooth="yes"/>
      <point x="156" y="618" type="curve" smooth="yes"/>
      <point x="156" y="610"/>
      <point x="176" y="524"/>
      <point x="193" y="444" type="curve"/>
    </contour>
  </outline>
</glyph>
<glyph name="numbersign" format="1">
  <advance width="463"/>
  <unicode hex="0023"/>
  <outline>
    <contour>
      <point x="14" y="-101" type="line" name="hr00"/>
      <point x="103" y="202" type="line"/>
      <point x="275" y="202" type="line"/>
      <point x="186" y="-101" type="line"/>
      <point x="219" y="-101" type="line"/>
      <point x="308" y="202" type="line"/>
      <point x="427" y="202" type="line"/>
      <point x="437" y="233" type="line"/>
      <point x="317" y="233" type="line"/>
      <point x="357" y="369" type="line"/>
      <point x="476" y="369" type="line"/>
      <point x="486" y="400" type="line"/>
      <point x="366" y="400" type="line"/>
      <point x="444" y="667" type="line"/>
      <point x="411" y="667" type="line"/>
      <point x="333" y="400" type="line"/>
      <point x="161" y="400" type="line"/>
      <point x="239" y="667" type="line"/>
      <point x="206" y="667" type="line"/>
      <point x="128" y="400" type="line"/>
      <point x="11" y="400" type="line"/>
      <point x="1" y="369" type="line"/>
      <point x="119" y="369" type="line"/>
      <point x="79" y="233" type="line"/>
      <point x="-38" y="233" type="line"/>
      <point x="-48" y="202" type="line"/>
      <point x="70" y="202" type="line"/>
      <point x="-19" y="-101" type="line"/>
    </contour>
    <contour>
      <point x="152" y="369" type="line"/>
      <point x="324" y="369" type="line"/>
      <point x="284" y="233" type="line"/>
      <point x="112" y="233" type="line"/>
    </contour>
  </outline>
</glyph>
<glyph name="dollar" format="1">
  <advance width="463"/>
  <unicode hex="0024"/>
  <outline>
    <contour>
      <point x="241" y="-101" type="line"/>
      <point x="241" y="-11" type="line"/>
      <point x="346" y="-2" smooth="yes"/>
      <point x="417" y="60" smooth="yes"/>
      <point x="417" y="146" type="curve" smooth="yes"/>
      <point x="417" y="200" smooth="yes"/>
      <point x="381" y="256" smooth="yes"/>
      <point x="306" y="290" type="curve" smooth="yes"/>
      <point x="241" y="319" type="line"/>
      <point x="241" y="550" type="line"/>
      <point x="292" y="546" smooth="yes"/>
      <point x="318" y="509" smooth="yes"/>
      <point x="318" y="468" type="curve" smooth="yes" name="hr01"/>
      <point x="318" y="450"/>
      <point x="313" y="432"/>
      <point x="305" y="414" type="curve"/>
      <point x="309" y="410" smooth="yes"/>
      <point x="315" y="407" smooth="yes"/>
      <point x="323" y="404" type="curve" smooth="yes"/>
      <point x="331" y="401" smooth="yes"/>
      <point x="341" y="399" smooth="yes"/>
      <point x="351" y="399" type="curve" smooth="yes"/>
      <point x="376" y="399" smooth="yes"/>
      <point x="387" y="424" smooth="yes"/>
      <point x="387" y="454" type="curve" smooth="yes"/>
      <point x="387" y="518"/>
      <point x="343" y="575"/>
      <point x="241" y="579" type="curve"/>
      <point x="241" y="667" type="line"/>
      <point x="210" y="667" type="line"/>
      <point x="210" y="578" type="line"/>
      <point x="107" y="569" smooth="yes"/>
      <point x="60" y="494" smooth="yes"/>
      <point x="60" y="418" type="curve" smooth="yes"/>
      <point x="60" y="363" smooth="yes"/>
      <point x="90" y="308" smooth="yes"/>
      <point x="157" y="278" type="curve" smooth="yes"/>
      <point x="210" y="254" type="line"/>
      <point x="210" y="12" type="line"/>
      <point x="157" y="14" smooth="yes"/>
      <point x="114" y="48" smooth="yes"/>
      <point x="114" y="92" type="curve" smooth="yes"/>
      <point x="114" y="111"/>
      <point x="118" y="134"/>
      <point x="128" y="152" type="curve"/>
      <point x="123" y="156" smooth="yes"/>
      <point x="117" y="160" smooth="yes"/>
      <point x="109" y="163" type="curve" smooth="yes"/>
      <point x="101" y="166" smooth="yes"/>
      <point x="91" y="168" smooth="yes"/>
      <point x="81" y="168" type="curve" smooth="yes"/>
      <point x="57" y="168" smooth="yes"/>
      <point x="45" y="142" smooth="yes"/>
      <point x="45" y="112" type="curve" smooth="yes" name="hr02"/>
      <point x="45" y="47"/>
      <point x="108" y="-9"/>
      <point x="210" y="-12" type="curve"/>
      <point x="210" y="-101" type="line"/>
    </contour>
    <contour>
      <point x="263" y="230" type="line" smooth="yes"/>
      <point x="319" y="204" smooth="yes"/>
      <point x="344" y="163" smooth="yes"/>
      <point x="344" y="124" type="curve" smooth="yes"/>
      <point x="344" y="74"/>
      <point x="306" y="23"/>
      <point x="241" y="13" type="curve"/>
      <point x="241" y="240" type="line"/>
    </contour>
    <contour>
      <point x="121" y="449" type="curve" smooth="yes"/>
      <point x="121" y="495"/>
      <point x="151" y="540"/>
      <point x="210" y="549" type="curve"/>
      <point x="210" y="333" type="line"/>
      <point x="140" y="368" smooth="yes"/>
      <point x="121" y="397" smooth="yes"/>
    </contour>
  </outline>
</glyph>
<glyph name="percent" format="1">
  <advance width="779"/>
  <unicode hex="0025"/>
  <outline>
    <contour>
      <point x="41" y="393" type="curve" smooth="yes" name="hr00"/>
      <point x="41" y="273" smooth="yes"/>
      <point x="98" y="205" smooth="yes"/>
      <point x="176" y="205" type="curve" smooth="yes"/>
      <point x="254" y="205" smooth="yes"/>
      <point x="311" y="273" smooth="yes"/>
      <point x="311" y="393" type="curve" smooth="yes"/>
      <point x="311" y="512" smooth="yes"/>
      <point x="254" y="579" smooth="yes"/>
      <point x="176" y="579" type="curve" smooth="yes"/>
      <point x="98" y="579" smooth="yes"/>
      <point x="41" y="512" smooth="yes"/>
    </contour>
    <contour>
      <point x="101" y="393" type="curve"/>
      <point x="101" y="499" smooth="yes"/>
      <point x="135" y="560" smooth="yes"/>
      <point x="176" y="560" type="curve" smooth="yes"/>
      <point x="216" y="560" smooth="yes"/>
      <point x="251" y="499" smooth="yes"/>
      <point x="251" y="393" type="curve" smooth="yes"/>
      <point x="251" y="286" smooth="yes"/>
      <point x="216" y="225" smooth="yes"/>
      <point x="176" y="225" type="curve" smooth="yes"/>
      <point x="135" y="225" smooth="yes"/>
      <point x="101" y="286" smooth="yes"/>
    </contour>
    <contour>
      <point x="468" y="180" type="curve" smooth="yes"/>
      <point x="468" y="60" smooth="yes"/>
      <point x="525" y="-8" smooth="yes"/>
      <point x="603" y="-8" type="curve" smooth="yes"/>
      <point x="681" y="-8" smooth="yes"/>
      <point x="738" y="60" smooth="yes"/>
      <point x="738" y="180" type="curve" smooth="yes"/>
      <point x="738" y="299" smooth="yes"/>
      <point x="681" y="366" smooth="yes"/>
      <point x="603" y="366" type="curve" smooth="yes"/>
      <point x="525" y="366" smooth="yes"/>
      <point x="468" y="299" smooth="yes"/>
    </contour>
    <contour>
      <point x="528" y="180" type="curve"/>
      <point x="528" y="286" smooth="yes"/>
      <point x="562" y="347" smooth="yes"/>
      <point x="603" y="347" type="curve" smooth="yes"/>
      <point x="643" y="347" smooth="yes"/>
      <point x="678" y="286" smooth="yes"/>
      <point x="678" y="180" type="curve" smooth="yes"/>
      <point x="678" y="73" smooth="yes"/>
      <point x="643" y="12" smooth="yes"/>
      <point x="603" y="12" type="curve" smooth="yes"/>
      <point x="562" y="12" smooth="yes"/>
      <point x="528" y="73" smooth="yes"/>
    </contour>
    <component  base="fraction" xOffset="230"/>
  </outline>
</glyph>
<glyph name="ampersand" format="1">
  <advance width="582"/>
  <unicode hex="0026"/>
  <outline>
    <contour>
      <point x="411" y="519" type="curve" smooth="yes"/>
      <point x="411" y="585" smooth="yes"/>
      <point x="361" y="643" smooth="yes"/>
      <point x="262" y="643" type="curve" smooth="yes"/>
      <point x="169" y="643" smooth="yes"/>
      <point x="115" y="586" smooth="yes"/>
      <point x="115" y="512" type="curve" smooth="yes"/>
      <point x="115" y="475" smooth="yes"/>
      <point x="128" y="433" smooth="yes"/>
      <point x="157" y="392" type="curve" smooth="yes"/>
      <point x="188" y="347" type="line"/>
      <point x="82" y="315" smooth="yes"/>
      <point x="30" y="243" smooth="yes"/>
      <point x="30" y="165" type="curve" smooth="yes"/>
      <point x="30" y="75" smooth="yes"/>
      <point x="95" y="-12" smooth="yes"/>
      <point x="215" y="-12" type="curve" smooth="yes"/>
      <point x="280" y="-12"/>
      <point x="337" y="13"/>
      <point x="379" y="71" type="curve"/>
      <point x="433" y="-6" type="line"/>
      <point x="445" y="-3" smooth="yes"/>
      <point x="470" y="0" smooth="yes"/>
      <point x="506" y="0" type="curve" smooth="yes" name="hr01"/>
      <point x="562" y="0" type="line"/>
      <point x="562" y="18" type="line"/>
      <point x="526" y="18" type="line" smooth="yes"/>
      <point x="518" y="18" smooth="yes"/>
      <point x="515" y="21" smooth="yes"/>
      <point x="512" y="26" type="curve" smooth="yes"/>
      <point x="421" y="152" type="line"/>
      <point x="479" y="297" type="line" smooth="yes"/>
      <point x="482" y="305" smooth="yes"/>
      <point x="485" y="311" smooth="yes"/>
      <point x="493" y="311" type="curve" smooth="yes"/>
      <point x="556" y="311" type="line"/>
      <point x="556" y="329" type="line"/>
      <point x="403" y="329" type="line"/>
      <point x="403" y="311" type="line"/>
      <point x="454" y="311" type="line"/>
      <point x="402" y="178" type="line"/>
      <point x="277" y="354" type="line"/>
      <point x="366" y="388" smooth="yes"/>
      <point x="411" y="457" smooth="yes"/>
    </contour>
    <contour>
      <point x="235" y="27" type="curve" smooth="yes"/>
      <point x="171" y="27" smooth="yes"/>
      <point x="114" y="72" smooth="yes"/>
      <point x="114" y="167" type="curve" smooth="yes"/>
      <point x="114" y="229"/>
      <point x="135" y="287"/>
      <point x="204" y="324" type="curve"/>
      <point x="363" y="95" type="line"/>
      <point x="330" y="50" smooth="yes"/>
      <point x="281" y="27" smooth="yes"/>
    </contour>
    <contour>
      <point x="178" y="540" type="curve" smooth="yes"/>
      <point x="178" y="583" smooth="yes"/>
      <point x="203" y="617" smooth="yes"/>
      <point x="262" y="617" type="curve" smooth="yes"/>
      <point x="318" y="617" smooth="yes"/>
      <point x="347" y="569" smooth="yes"/>
      <point x="347" y="514" type="curve" smooth="yes"/>
      <point x="347" y="461"/>
      <point x="320" y="402"/>
      <point x="262" y="374" type="curve"/>
      <point x="213" y="444" type="line" smooth="yes"/>
      <point x="191" y="475" smooth="yes"/>
      <point x="178" y="509" smooth="yes"/>
    </contour>
  </outline>
</glyph>
<glyph name="quotesingle" format="1">
  <advance width="151"/>
  <unicode hex="0027"/>
  <outline>
    <contour>
      <point x="84" y="444" type="line" name="hr00"/>
      <point x="101" y="524" smooth="yes"/>
      <point x="121" y="610" smooth="yes"/>
      <point x="121" y="618" type="curve" smooth="yes"/>
      <point x="121" y="652" smooth="yes"/>
      <point x="101" y="668" smooth="yes"/>
      <point x="76" y="668" type="curve" smooth="yes"/>
      <point x="50" y="668" smooth="yes"/>
      <point x="30" y="651" smooth="yes"/>
      <point x="30" y="618" type="curve" smooth="yes"/>
      <point x="30" y="610"/>
      <point x="50" y="524"/>
      <point x="67" y="444" type="curve"/>
    </contour>
  </outline>
</glyph>
<glyph name="parenleft" format="1">
  <advance width="287"/>
  <unicode hex="0028"/>
  <outline>
    <contour>
      <point x="132" y="261" type="curve" smooth="yes" name="hr00"/>
      <point x="132" y="400"/>
      <point x="177" y="547"/>
      <point x="267" y="620" type="curve"/>
      <point x="257" y="635" type="line"/>
      <point x="120" y="564" smooth="yes"/>
      <point x="50" y="413" smooth="yes"/>
      <point x="50" y="261" type="curve" smooth="yes"/>
      <point x="50" y="109"/>
      <point x="120" y="-42"/>
      <point x="257" y="-113" type="curve"/>
      <point x="267" y="-98" type="line"/>
      <point x="177" y="-25" smooth="yes"/>
      <point x="132" y="122" smooth="yes"/>
    </contour>
  </outline>
</glyph>
<glyph name="parenright" format="1">
  <advance width="287"/>
  <unicode hex="0029"/>
  <outline>
    <contour>
      <point x="155" y="261" type="curve" smooth="yes" name="hr00"/>
      <point x="155" y="122"/>
      <point x="110" y="-25"/>
      <point x="20" y="-98" type="curve"/>
      <point x="30" y="-113" type="line"/>
      <point x="167" y="-42" smooth="yes"/>
      <point x="237" y="109" smooth="yes"/>
      <point x="237" y="261" type="curve" smooth="yes"/>
      <point x="237" y="413"/>
      <point x="167" y="564"/>
      <point x="30" y="635" type="curve"/>
      <point x="20" y="620" type="line"/>
      <point x="110" y="547" smooth="yes"/>
      <point x="155" y="400" smooth="yes"/>
    </contour>
  </outline>
</glyph>
<glyph name="asterisk" format="1">
  <advance width="418"/>
  <unicode hex="002A"/>
  <outline>
    <contour>
      <point x="246" y="620" type="curve" smooth="yes" name="hr00"/>
      <point x="246" y="646" smooth="yes"/>
      <point x="230" y="660" smooth="yes"/>
      <point x="209" y="660" type="curve" smooth="yes"/>
      <point x="188" y="660" smooth="yes"/>
      <point x="172" y="646" smooth="yes"/>
      <point x="172" y="620" type="curve" smooth="yes"/>
      <point x="172" y="596"/>
      <point x="190" y="554"/>
      <point x="201" y="499" type="curve"/>
      <point x="139" y="534" smooth="yes"/>
      <point x="105" y="567" smooth="yes"/>
      <point x="79" y="567" type="curve" smooth="yes"/>
      <point x="59" y="567" smooth="yes"/>
      <point x="43" y="550" smooth="yes"/>
      <point x="43" y="529" type="curve" smooth="yes"/>
      <point x="43" y="503" smooth="yes"/>
      <point x="63" y="491" smooth="yes"/>
      <point x="107" y="489" type="curve" smooth="yes"/>
      <point x="128" y="488"/>
      <point x="165" y="487"/>
      <point x="196" y="483" type="curve"/>
      <point x="137" y="429" smooth="yes"/>
      <point x="92" y="410" smooth="yes"/>
      <point x="92" y="378" type="curve" smooth="yes"/>
      <point x="92" y="359" smooth="yes"/>
      <point x="109" y="341" smooth="yes"/>
      <point x="129" y="341" type="curve" smooth="yes"/>
      <point x="169" y="341"/>
      <point x="170" y="391"/>
      <point x="209" y="474" type="curve"/>
      <point x="248" y="391" smooth="yes"/>
      <point x="249" y="341" smooth="yes"/>
      <point x="289" y="341" type="curve" smooth="yes"/>
      <point x="309" y="341" smooth="yes"/>
      <point x="326" y="359" smooth="yes"/>
      <point x="326" y="378" type="curve" smooth="yes"/>
      <point x="326" y="410"/>
      <point x="281" y="429"/>
      <point x="222" y="483" type="curve"/>
      <point x="253" y="487" smooth="yes"/>
      <point x="289" y="488" smooth="yes"/>
      <point x="311" y="489" type="curve" smooth="yes"/>
      <point x="355" y="491" smooth="yes"/>
      <point x="375" y="503" smooth="yes"/>
      <point x="375" y="529" type="curve" smooth="yes"/>
      <point x="375" y="550" smooth="yes"/>
      <point x="359" y="567" smooth="yes"/>
      <point x="339" y="567" type="curve" smooth="yes"/>
      <point x="312" y="567"/>
      <point x="279" y="534"/>
      <point x="217" y="499" type="curve"/>
      <point x="228" y="554" smooth="yes"/>
      <point x="246" y="596" smooth="yes"/>
    </contour>
  </outline>
</glyph>
<glyph name="plus" format="1">
  <advance width="532"/>
  <unicode hex="002B"/>
  <outline>
    <contour>
      <point x="292" y="479" type="line" name="hr00"/>
      <point x="239" y="479" type="line"/>
      <point x="239" y="310" type="line"/>
      <point x="70" y="310" type="line"/>
      <point x="70" y="257" type="line"/>
      <point x="239" y="257" type="line"/>
      <point x="239" y="87" type="line"/>
      <point x="292" y="87" type="line"/>
      <point x="292" y="257" type="line"/>
      <point x="462" y="257" type="line"/>
      <point x="462" y="310" type="line"/>
      <point x="292" y="310" type="line"/>
    </contour>
  </outline>
</glyph>
<glyph name="comma" format="1">
  <advance width="192"/>
  <unicode hex="002C"/>
  <outline>
    <contour>
      <point x="78" y="-24" type="curve" smooth="yes" name="hr00"/>
      <point x="78" y="-50"/>
      <point x="66" y="-80"/>
      <point x="31" y="-111" type="curve"/>
      <point x="42" y="-125" type="line"/>
      <point x="109" y="-88" smooth="yes"/>
      <point x="151" y="-12" smooth="yes"/>
      <point x="151" y="40" type="curve" smooth="yes"/>
      <point x="151" y="74" smooth="yes"/>
      <point x="135" y="100" smooth="yes"/>
      <point x="96" y="100" type="curve" smooth="yes"/>
      <point x="66" y="100"/>
      <point x="43" y="74"/>
      <point x="42" y="43" type="curve"/>
      <point x="62" y="29" smooth="yes"/>
      <point x="78" y="5" smooth="yes"/>
    </contour>
  </outline>
</glyph>
<glyph name="hyphen" format="1">
  <advance width="312"/>
  <unicode hex="002D"/>
  <outline>
    <contour>
      <point x="30" y="211" type="line" name="hr00"/>
      <point x="282" y="211" type="line"/>
      <point x="282" y="251" type="line"/>
      <point x="30" y="251" type="line"/>
    </contour>
  </outline>
</glyph>
<glyph name="period" format="1">
  <advance width="192"/>
  <unicode hex="002E"/>
  <outline>
    <contour>
      <point x="40" y="44" type="curve" smooth="yes" name="hr00"/>
      <point x="40" y="13" smooth="yes"/>
      <point x="65" y="-12" smooth="yes"/>
      <point x="96" y="-12" type="curve" smooth="yes"/>
      <point x="127" y="-12" smooth="yes"/>
      <point x="152" y="13" smooth="yes"/>
      <point x="152" y="44" type="curve" smooth="yes"/>
      <point x="152" y="75" smooth="yes"/>
      <point x="127" y="100" smooth="yes"/>
      <point x="96" y="100" type="curve" smooth="yes"/>
      <point x="65" y="100" smooth="yes"/>
      <point x="40" y="75" smooth="yes"/>
    </contour>
  </outline>
</glyph>
<glyph name="zero" format="1">
  <advance width="463"/>
  <unicode hex="0030"/>
  <outline>
    <contour>
      <point x="24" y="283" type="curve" smooth="yes" name="hr00"/>
      <point x="24" y="95" smooth="yes"/>
      <point x="111" y="-12" smooth="yes"/>
      <point x="231" y="-12" type="curve" smooth="yes"/>
      <point x="351" y="-12" smooth="yes"/>
      <point x="439" y="95" smooth="yes"/>
      <point x="439" y="283" type="curve" smooth="yes"/>
      <point x="439" y="472" smooth="yes"/>
      <point x="351" y="579" smooth="yes"/>
      <point x="231" y="579" type="curve" smooth="yes"/>
      <point x="111" y="579" smooth="yes"/>
      <point x="24" y="472" smooth="yes"/>
    </contour>
    <contour>
      <point x="101" y="283" type="curve"/>
      <point x="101" y="457" smooth="yes"/>
      <point x="161" y="557" smooth="yes"/>
      <point x="231" y="557" type="curve" smooth="yes"/>
      <point x="301" y="557" smooth="yes"/>
      <point x="362" y="457" smooth="yes"/>
      <point x="362" y="283" type="curve" smooth="yes"/>
      <point x="362" y="109" smooth="yes"/>
      <point x="301" y="9" smooth="yes"/>
      <point x="231" y="9" type="curve" smooth="yes"/>
      <point x="161" y="9" smooth="yes"/>
      <point x="101" y="109" smooth="yes"/>
    </contour>
  </outline>
</glyph>
<glyph name="one" format="1">
  <advance width="463"/>
  <unicode hex="0031"/>
  <outline>
    <contour>
      <point x="73" y="0" type="line" name="hr00"/>
      <point x="387" y="0" type="line"/>
      <point x="387" y="19" type="line"/>
      <point x="293" y="19" type="line" smooth="yes"/>
      <point x="285" y="19" smooth="yes"/>
      <point x="278" y="25" smooth="yes"/>
      <point x="278" y="33" type="curve" smooth="yes"/>
      <point x="278" y="465" type="line" smooth="yes"/>
      <point x="278" y="522"/>
      <point x="283" y="560"/>
      <point x="288" y="579" type="curve"/>
      <point x="265" y="570" smooth="yes"/>
      <point x="207" y="555" smooth="yes"/>
      <point x="152" y="547" type="curve" smooth="yes"/>
      <point x="61" y="534" type="line"/>
      <point x="63" y="510" type="line"/>
      <point x="174" y="516" type="line"/>
      <point x="194" y="516" smooth="yes"/>
      <point x="204" y="509" smooth="yes"/>
      <point x="204" y="491" type="curve" smooth="yes"/>
      <point x="204" y="31" type="line"/>
      <point x="203" y="24" smooth="yes"/>
      <point x="197" y="19" smooth="yes"/>
      <point x="190" y="19" type="curve" smooth="yes"/>
      <point x="73" y="19" type="line"/>
    </contour>
  </outline>
</glyph>
<glyph name="two" format="1">
  <advance width="463"/>
  <unicode hex="0032"/>
  <outline>
    <contour>
      <point x="222" y="557" type="curve" smooth="yes"/>
      <point x="284" y="557" smooth="yes"/>
      <point x="319" y="510" smooth="yes"/>
      <point x="319" y="434" type="curve" smooth="yes"/>
      <point x="319" y="386" smooth="yes"/>
      <point x="304" y="313" smooth="yes"/>
      <point x="247" y="250" type="curve" smooth="yes"/>
      <point x="20" y="0" type="line"/>
      <point x="305" y="0" type="line" smooth="yes"/>
      <point x="363" y="0"/>
      <point x="401" y="-4"/>
      <point x="420" y="-9" type="curve" name="hr01"/>
      <point x="416" y="9" smooth="yes"/>
      <point x="410" y="67" smooth="yes"/>
      <point x="410" y="124" type="curve" smooth="yes"/>
      <point x="410" y="172" type="line"/>
      <point x="387" y="172" type="line"/>
      <point x="374" y="85" type="line" smooth="yes"/>
      <point x="371" y="67" smooth="yes"/>
      <point x="362" y="63" smooth="yes"/>
      <point x="346" y="63" type="curve" smooth="yes"/>
      <point x="116" y="63" type="line"/>
      <point x="265" y="224" type="line" smooth="yes"/>
      <point x="326" y="291" smooth="yes"/>
      <point x="397" y="354" smooth="yes"/>
      <point x="397" y="447" type="curve" smooth="yes"/>
      <point x="397" y="513" smooth="yes"/>
      <point x="340" y="579" smooth="yes"/>
      <point x="218" y="579" type="curve" smooth="yes"/>
      <point x="107" y="579" smooth="yes"/>
      <point x="60" y="520" smooth="yes"/>
      <point x="60" y="454" type="curve" smooth="yes"/>
      <point x="60" y="424" smooth="yes"/>
      <point x="71" y="399" smooth="yes"/>
      <point x="96" y="399" type="curve" smooth="yes"/>
      <point x="117" y="399"/>
      <point x="134" y="407"/>
      <point x="142" y="414" type="curve"/>
      <point x="133" y="433" smooth="yes"/>
      <point x="129" y="455" smooth="yes"/>
      <point x="129" y="475" type="curve" smooth="yes"/>
      <point x="129" y="520" smooth="yes"/>
      <point x="160" y="557" smooth="yes"/>
    </contour>
  </outline>
</glyph>
<glyph name="three" format="1">
  <advance width="463"/>
  <unicode hex="0033"/>
  <outline>
    <contour>
      <point x="128" y="282" type="line"/>
      <point x="144" y="285" smooth="yes"/>
      <point x="160" y="286" smooth="yes"/>
      <point x="175" y="286" type="curve" smooth="yes"/>
      <point x="264" y="286" smooth="yes"/>
      <point x="334" y="243" smooth="yes"/>
      <point x="334" y="149" type="curve" smooth="yes"/>
      <point x="334" y="77" smooth="yes"/>
      <point x="290" y="9" smooth="yes"/>
      <point x="207" y="9" type="curve" smooth="yes"/>
      <point x="150" y="9" smooth="yes"/>
      <point x="123" y="46" smooth="yes"/>
      <point x="123" y="92" type="curve" smooth="yes"/>
      <point x="123" y="111"/>
      <point x="127" y="134"/>
      <point x="136" y="152" type="curve"/>
      <point x="128" y="160" smooth="yes"/>
      <point x="110" y="168" smooth="yes"/>
      <point x="90" y="168" type="curve" smooth="yes"/>
      <point x="65" y="168" smooth="yes"/>
      <point x="54" y="142" smooth="yes"/>
      <point x="54" y="112" type="curve" smooth="yes"/>
      <point x="54" y="46" smooth="yes"/>
      <point x="101" y="-12" smooth="yes"/>
      <point x="207" y="-12" type="curve" smooth="yes"/>
      <point x="342" y="-12" smooth="yes"/>
      <point x="410" y="73" smooth="yes"/>
      <point x="410" y="160" type="curve" smooth="yes"/>
      <point x="410" y="228"/>
      <point x="355" y="295"/>
      <point x="246" y="308" type="curve"/>
      <point x="330" y="333" smooth="yes"/>
      <point x="376" y="396" smooth="yes"/>
      <point x="376" y="455" type="curve" smooth="yes" name="hr01"/>
      <point x="376" y="536" smooth="yes"/>
      <point x="294" y="579" smooth="yes"/>
      <point x="216" y="579" type="curve" smooth="yes"/>
      <point x="144" y="579" smooth="yes"/>
      <point x="76" y="543" smooth="yes"/>
      <point x="76" y="463" type="curve" smooth="yes"/>
      <point x="76" y="434" smooth="yes"/>
      <point x="88" y="408" smooth="yes"/>
      <point x="112" y="408" type="curve" smooth="yes"/>
      <point x="130" y="408"/>
      <point x="148" y="413"/>
      <point x="159" y="423" type="curve"/>
      <point x="150" y="442" smooth="yes"/>
      <point x="144" y="465" smooth="yes"/>
      <point x="144" y="484" type="curve" smooth="yes"/>
      <point x="144" y="526" smooth="yes"/>
      <point x="171" y="557" smooth="yes"/>
      <point x="216" y="557" type="curve" smooth="yes"/>
      <point x="271" y="557" smooth="yes"/>
      <point x="303" y="509" smooth="yes"/>
      <point x="303" y="455" type="curve" smooth="yes"/>
      <point x="303" y="393" smooth="yes"/>
      <point x="260" y="326" smooth="yes"/>
      <point x="168" y="309" type="curve" smooth="yes"/>
      <point x="125" y="301" type="line"/>
    </contour>
  </outline>
</glyph>
<glyph name="four" format="1">
  <advance width="463"/>
  <unicode hex="0034"/>
  <outline>
    <contour>
      <point x="317" y="579" type="line" name="hr00"/>
      <point x="0" y="134" type="line"/>
      <point x="276" y="134" type="line"/>
      <point x="276" y="33" type="line" smooth="yes"/>
      <point x="276" y="25" smooth="yes"/>
      <point x="270" y="19" smooth="yes"/>
      <point x="262" y="19" type="curve" smooth="yes"/>
      <point x="193" y="19" type="line"/>
      <point x="193" y="0" type="line"/>
      <point x="434" y="0" type="line"/>
      <point x="434" y="19" type="line"/>
      <point x="365" y="19" type="line" smooth="yes"/>
      <point x="357" y="19" smooth="yes"/>
      <point x="350" y="24" smooth="yes"/>
      <point x="350" y="31" type="curve" smooth="yes"/>
      <point x="350" y="134" type="line"/>
      <point x="434" y="134" type="line"/>
      <point x="434" y="165" type="line"/>
      <point x="350" y="165" type="line"/>
      <point x="350" y="579" type="line"/>
    </contour>
    <contour>
      <point x="57" y="165" type="line"/>
      <point x="276" y="472" type="line"/>
      <point x="276" y="165" type="line"/>
    </contour>
  </outline>
</glyph>
<glyph name="five" format="1">
  <advance width="463"/>
  <unicode hex="0035"/>
  <outline>
    <contour>
      <point x="93" y="288" type="line" name="hr00"/>
      <point x="122" y="298" smooth="yes"/>
      <point x="151" y="302" smooth="yes"/>
      <point x="178" y="302" type="curve" smooth="yes"/>
      <point x="267" y="302" smooth="yes"/>
      <point x="337" y="253" smooth="yes"/>
      <point x="337" y="149" type="curve" smooth="yes"/>
      <point x="337" y="77" smooth="yes"/>
      <point x="294" y="9" smooth="yes"/>
      <point x="210" y="9" type="curve" smooth="yes"/>
      <point x="153" y="9" smooth="yes"/>
      <point x="126" y="46" smooth="yes"/>
      <point x="126" y="92" type="curve" smooth="yes"/>
      <point x="126" y="111"/>
      <point x="130" y="134"/>
      <point x="139" y="152" type="curve"/>
      <point x="131" y="160" smooth="yes"/>
      <point x="113" y="168" smooth="yes"/>
      <point x="93" y="168" type="curve" smooth="yes"/>
      <point x="68" y="168" smooth="yes"/>
      <point x="57" y="142" smooth="yes"/>
      <point x="57" y="112" type="curve" smooth="yes"/>
      <point x="57" y="46" smooth="yes"/>
      <point x="104" y="-12" smooth="yes"/>
      <point x="210" y="-12" type="curve" smooth="yes"/>
      <point x="345" y="-12" smooth="yes"/>
      <point x="413" y="73" smooth="yes"/>
      <point x="413" y="160" type="curve" smooth="yes"/>
      <point x="413" y="245" smooth="yes"/>
      <point x="345" y="331" smooth="yes"/>
      <point x="210" y="331" type="curve" smooth="yes"/>
      <point x="184" y="331"/>
      <point x="156" y="328"/>
      <point x="125" y="321" type="curve"/>
      <point x="140" y="501" type="line"/>
      <point x="310" y="501" type="line" smooth="yes"/>
      <point x="368" y="501" smooth="yes"/>
      <point x="387" y="504" smooth="yes"/>
      <point x="393" y="575" type="curve" smooth="yes"/>
      <point x="396" y="609" type="line"/>
      <point x="375" y="609" type="line"/>
      <point x="373" y="589" type="line" smooth="yes"/>
      <point x="371" y="571" smooth="yes"/>
      <point x="360" y="566" smooth="yes"/>
      <point x="344" y="566" type="curve" smooth="yes"/>
      <point x="115" y="566" type="line"/>
    </contour>
  </outline>
</glyph>
<glyph name="six" format="1">
  <advance width="463"/>
  <unicode hex="0036"/>
  <outline>
    <contour>
      <point x="360" y="579" type="line" name="hr00"/>
      <point x="157" y="515" smooth="yes"/>
      <point x="51" y="334" smooth="yes"/>
      <point x="51" y="188" type="curve" smooth="yes"/>
      <point x="51" y="77" smooth="yes"/>
      <point x="113" y="-12" smooth="yes"/>
      <point x="239" y="-12" type="curve" smooth="yes"/>
      <point x="346" y="-12" smooth="yes"/>
      <point x="424" y="54" smooth="yes"/>
      <point x="424" y="166" type="curve" smooth="yes"/>
      <point x="424" y="276" smooth="yes"/>
      <point x="337" y="344" smooth="yes"/>
      <point x="254" y="344" type="curve" smooth="yes"/>
      <point x="211" y="344"/>
      <point x="169" y="325"/>
      <point x="142" y="286" type="curve"/>
      <point x="181" y="457"/>
      <point x="305" y="535"/>
      <point x="368" y="555" type="curve"/>
    </contour>
    <contour>
      <point x="132" y="176" type="curve" smooth="yes"/>
      <point x="132" y="269" smooth="yes"/>
      <point x="184" y="315" smooth="yes"/>
      <point x="238" y="315" type="curve" smooth="yes"/>
      <point x="293" y="315" smooth="yes"/>
      <point x="347" y="264" smooth="yes"/>
      <point x="347" y="163" type="curve" smooth="yes"/>
      <point x="347" y="66" smooth="yes"/>
      <point x="298" y="9" smooth="yes"/>
      <point x="239" y="9" type="curve" smooth="yes"/>
      <point x="181" y="9" smooth="yes"/>
      <point x="132" y="71" smooth="yes"/>
    </contour>
  </outline>
</glyph>
<glyph name="seven" format="1">
  <advance width="463"/>
  <unicode hex="0037"/>
  <outline>
    <contour>
      <point x="424" y="566" type="line" name="hr00"/>
      <point x="175" y="566" type="line" smooth="yes"/>
      <point x="117" y="566"/>
      <point x="79" y="571"/>
      <point x="61" y="576" type="curve"/>
      <point x="65" y="557" smooth="yes"/>
      <point x="70" y="500" smooth="yes"/>
      <point x="70" y="443" type="curve" smooth="yes"/>
      <point x="70" y="394" type="line"/>
      <point x="94" y="394" type="line"/>
      <point x="106" y="481" type="line" smooth="yes"/>
      <point x="108" y="500" smooth="yes"/>
      <point x="117" y="504" smooth="yes"/>
      <point x="135" y="504" type="curve" smooth="yes"/>
      <point x="366" y="504" type="line"/>
      <point x="230" y="188" type="line" smooth="yes"/>
      <point x="204" y="127" smooth="yes"/>
      <point x="176" y="62" smooth="yes"/>
      <point x="176" y="27" type="curve" smooth="yes"/>
      <point x="176" y="3" smooth="yes"/>
      <point x="186" y="-12" smooth="yes"/>
      <point x="215" y="-12" type="curve" smooth="yes"/>
      <point x="233" y="-12"/>
      <point x="251" y="-7"/>
      <point x="262" y="3" type="curve"/>
      <point x="250" y="29" smooth="yes"/>
      <point x="245" y="55" smooth="yes"/>
      <point x="245" y="81" type="curve" smooth="yes"/>
      <point x="245" y="114" smooth="yes"/>
      <point x="254" y="148" smooth="yes"/>
      <point x="270" y="188" type="curve" smooth="yes"/>
    </contour>
  </outline>
</glyph>
<glyph name="eight" format="1">
  <advance width="463"/>
  <unicode hex="0038"/>
  <outline>
    <contour>
      <point x="72" y="435" type="curve" smooth="yes"/>
      <point x="72" y="367"/>
      <point x="109" y="320"/>
      <point x="166" y="301" type="curve"/>
      <point x="94" y="281" smooth="yes"/>
      <point x="46" y="228" smooth="yes"/>
      <point x="46" y="148" type="curve" smooth="yes" name="hr01"/>
      <point x="46" y="46" smooth="yes"/>
      <point x="125" y="-12" smooth="yes"/>
      <point x="231" y="-12" type="curve" smooth="yes"/>
      <point x="338" y="-12" smooth="yes"/>
      <point x="416" y="46" smooth="yes"/>
      <point x="416" y="148" type="curve" smooth="yes"/>
      <point x="416" y="228"/>
      <point x="368" y="281"/>
      <point x="295" y="301" type="curve"/>
      <point x="352" y="320" smooth="yes"/>
      <point x="390" y="367" smooth="yes"/>
      <point x="390" y="435" type="curve" smooth="yes" name="hr02"/>
      <point x="390" y="526" smooth="yes"/>
      <point x="323" y="579" smooth="yes"/>
      <point x="231" y="579" type="curve" smooth="yes"/>
      <point x="139" y="579" smooth="yes"/>
      <point x="72" y="526" smooth="yes"/>
    </contour>
    <contour>
      <point x="124" y="149" type="curve" smooth="yes" name="hr03"/>
      <point x="124" y="239" smooth="yes"/>
      <point x="173" y="289" smooth="yes"/>
      <point x="231" y="289" type="curve" smooth="yes"/>
      <point x="288" y="289" smooth="yes"/>
      <point x="339" y="239" smooth="yes"/>
      <point x="339" y="149" type="curve" smooth="yes"/>
      <point x="339" y="60" smooth="yes"/>
      <point x="288" y="9" smooth="yes"/>
      <point x="231" y="9" type="curve" smooth="yes"/>
      <point x="173" y="9" smooth="yes"/>
      <point x="124" y="60" smooth="yes"/>
    </contour>
    <contour>
      <point x="142" y="434" type="curve" smooth="yes" name="hr04"/>
      <point x="142" y="513" smooth="yes"/>
      <point x="183" y="557" smooth="yes"/>
      <point x="231" y="557" type="curve" smooth="yes"/>
      <point x="279" y="557" smooth="yes"/>
      <point x="320" y="513" smooth="yes"/>
      <point x="320" y="434" type="curve" smooth="yes"/>
      <point x="320" y="355" smooth="yes"/>
      <point x="279" y="311" smooth="yes"/>
      <point x="231" y="311" type="curve" smooth="yes"/>
      <point x="183" y="311" smooth="yes"/>
      <point x="142" y="355" smooth="yes"/>
    </contour>
  </outline>
</glyph>
<glyph name="nine" format="1">
  <advance width="463"/>
  <unicode hex="0039"/>
  <outline>
    <contour>
      <point x="120" y="-12" type="line" name="hr00"/>
      <point x="325" y="54" smooth="yes"/>
      <point x="419" y="234" smooth="yes"/>
      <point x="419" y="380" type="curve" smooth="yes"/>
      <point x="419" y="490" smooth="yes"/>
      <point x="355" y="579" smooth="yes"/>
      <point x="232" y="579" type="curve" smooth="yes"/>
      <point x="125" y="579" smooth="yes"/>
      <point x="55" y="512" smooth="yes"/>
      <point x="55" y="398" type="curve" smooth="yes"/>
      <point x="55" y="286" smooth="yes"/>
      <point x="144" y="217" smooth="yes"/>
      <point x="225" y="217" type="curve" smooth="yes"/>
      <point x="266" y="217"/>
      <point x="306" y="235"/>
      <point x="331" y="274" type="curve"/>
      <point x="293" y="106"/>
      <point x="173" y="32"/>
      <point x="112" y="11" type="curve"/>
    </contour>
    <contour>
      <point x="340" y="390" type="curve" smooth="yes"/>
      <point x="340" y="295" smooth="yes"/>
      <point x="294" y="246" smooth="yes"/>
      <point x="240" y="246" type="curve" smooth="yes"/>
      <point x="186" y="246" smooth="yes"/>
      <point x="132" y="301" smooth="yes"/>
      <point x="132" y="407" type="curve" smooth="yes"/>
      <point x="132" y="502" smooth="yes"/>
      <point x="177" y="557" smooth="yes"/>
      <point x="233" y="557" type="curve" smooth="yes"/>
      <point x="290" y="557" smooth="yes"/>
      <point x="340" y="495" smooth="yes"/>
    </contour>
  </outline>
</glyph>
<glyph name="colon" format="1">
  <advance width="192"/>
  <unicode hex="003A"/>
  <outline>
    <contour>
      <point x="40" y="44" type="curve" smooth="yes" name="hr00"/>
      <point x="40" y="13" smooth="yes"/>
      <point x="65" y="-12" smooth="yes"/>
      <point x="96" y="-12" type="curve" smooth="yes"/>
      <point x="127" y="-12" smooth="yes"/>
      <point x="152" y="13" smooth="yes"/>
      <point x="152" y="44" type="curve" smooth="yes"/>
      <point x="152" y="75" smooth="yes"/>
      <point x="127" y="100" smooth="yes"/>
      <point x="96" y="100" type="curve" smooth="yes"/>
      <point x="65" y="100" smooth="yes"/>
      <point x="40" y="75" smooth="yes"/>
    </contour>
    <contour>
      <point x="40" y="376" type="curve" smooth="yes"/>
      <point x="40" y="345" smooth="yes"/>
      <point x="65" y="320" smooth="yes"/>
      <point x="96" y="320" type="curve" smooth="yes"/>
      <point x="127" y="320" smooth="yes"/>
      <point x="152" y="345" smooth="yes"/>
      <point x="152" y="376" type="curve" smooth="yes"/>
      <point x="152" y="407" smooth="yes"/>
      <point x="127" y="432" smooth="yes"/>
      <point x="96" y="432" type="curve" smooth="yes"/>
      <point x="65" y="432" smooth="yes"/>
      <point x="40" y="407" smooth="yes"/>
    </contour>
  </outline>
</glyph>
<glyph name="semicolon" format="1">
  <advance width="192"/>
  <unicode hex="003B"/>
  <outline>
    <contour>
      <point x="40" y="376" type="curve" smooth="yes" name="hr00"/>
      <point x="40" y="345" smooth="yes"/>
      <point x="65" y="320" smooth="yes"/>
      <point x="96" y="320" type="curve" smooth="yes"/>
      <point x="127" y="320" smooth="yes"/>
      <point x="152" y="345" smooth="yes"/>
      <point x="152" y="376" type="curve" smooth="yes"/>
      <point x="152" y="407" smooth="yes"/>
      <point x="127" y="432" smooth="yes"/>
      <point x="96" y="432" type="curve" smooth="yes"/>
      <point x="65" y="432" smooth="yes"/>
      <point x="40" y="407" smooth="yes"/>
    </contour>
    <contour>
      <point x="78" y="-24" type="curve" smooth="yes"/>
      <point x="78" y="-50"/>
      <point x="66" y="-80"/>
      <point x="31" y="-111" type="curve"/>
      <point x="42" y="-125" type="line"/>
      <point x="109" y="-88" smooth="yes"/>
      <point x="151" y="-12" smooth="yes"/>
      <point x="151" y="40" type="curve" smooth="yes"/>
      <point x="151" y="74" smooth="yes"/>
      <point x="135" y="100" smooth="yes"/>
      <point x="96" y="100" type="curve" smooth="yes"/>
      <point x="66" y="100"/>
      <point x="43" y="74"/>
      <point x="42" y="43" type="curve"/>
      <point x="62" y="29" smooth="yes"/>
      <point x="78" y="5" smooth="yes"/>
    </contour>
  </outline>
</glyph>
<glyph name="less" format="1">
  <advance width="532"/>
  <unicode hex="003C"/>
  <outline>
    <contour>
      <point x="462" y="437" type="line" name="hr00"/>
      <point x="462" y="492" type="line"/>
      <point x="70" y="310" type="line"/>
      <point x="70" y="257" type="line"/>
      <point x="462" y="75" type="line"/>
      <point x="462" y="130" type="line"/>
      <point x="127" y="283" type="line"/>
    </contour>
  </outline>
</glyph>
<glyph name="equal" format="1">
  <advance width="532"/>
  <unicode hex="003D"/>
  <outline>
    <contour>
      <point x="462" y="342" type="line" name="hr00"/>
      <point x="462" y="395" type="line"/>
      <point x="70" y="395" type="line"/>
      <point x="70" y="342" type="line"/>
    </contour>
    <contour>
      <point x="462" y="172" type="line"/>
      <point x="462" y="225" type="line"/>
      <point x="70" y="225" type="line"/>
      <point x="70" y="172" type="line"/>
    </contour>
  </outline>
</glyph>
<glyph name="greater" format="1">
  <advance width="532"/>
  <unicode hex="003E"/>
  <outline>
    <contour>
      <point x="70" y="143" type="line" name="hr00"/>
      <point x="70" y="88" type="line"/>
      <point x="462" y="270" type="line"/>
      <point x="462" y="323" type="line"/>
      <point x="70" y="505" type="line"/>
      <point x="70" y="450" type="line"/>
      <point x="404" y="296" type="line"/>
    </contour>
  </outline>
</glyph>
<glyph name="question" format="1">
  <advance width="355"/>
  <unicode hex="003F"/>
  <outline>
    <contour>
      <point x="184" y="621" type="curve" smooth="yes" name="hr00"/>
      <point x="81" y="621" smooth="yes"/>
      <point x="35" y="564" smooth="yes"/>
      <point x="35" y="500" type="curve" smooth="yes"/>
      <point x="35" y="471" smooth="yes"/>
      <point x="46" y="446" smooth="yes"/>
      <point x="70" y="446" type="curve" smooth="yes"/>
      <point x="80" y="446" smooth="yes"/>
      <point x="89" y="448" smooth="yes"/>
      <point x="97" y="451" type="curve" smooth="yes"/>
      <point x="105" y="454"/>
      <point x="111" y="457"/>
      <point x="115" y="461" type="curve"/>
      <point x="106" y="479" smooth="yes"/>
      <point x="102" y="501" smooth="yes"/>
      <point x="102" y="520" type="curve" smooth="yes"/>
      <point x="102" y="564" smooth="yes"/>
      <point x="129" y="600" smooth="yes"/>
      <point x="184" y="600" type="curve" smooth="yes"/>
      <point x="223" y="600" smooth="yes"/>
      <point x="266" y="570" smooth="yes"/>
      <point x="266" y="510" type="curve" smooth="yes"/>
      <point x="266" y="399" smooth="yes"/>
      <point x="136" y="389" smooth="yes"/>
      <point x="136" y="264" type="curve" smooth="yes"/>
      <point x="136" y="261" smooth="yes"/>
      <point x="136" y="258" smooth="yes"/>
      <point x="139" y="231" type="curve" smooth="yes"/>
      <point x="145" y="170" type="line"/>
      <point x="173" y="170" type="line"/>
      <point x="173" y="235" type="line" smooth="yes"/>
      <point x="173" y="309" smooth="yes"/>
      <point x="335" y="371" smooth="yes"/>
      <point x="335" y="485" type="curve" smooth="yes"/>
      <point x="335" y="576" smooth="yes"/>
      <point x="256" y="621" smooth="yes"/>
    </contour>
    <contour>
      <point x="207" y="36" type="curve" smooth="yes"/>
      <point x="207" y="62" smooth="yes"/>
      <point x="185" y="84" smooth="yes"/>
      <point x="159" y="84" type="curve" smooth="yes"/>
      <point x="133" y="84" smooth="yes"/>
      <point x="111" y="62" smooth="yes"/>
      <point x="111" y="36" type="curve" smooth="yes"/>
      <point x="111" y="10" smooth="yes"/>
      <point x="133" y="-12" smooth="yes"/>
      <point x="159" y="-12" type="curve" smooth="yes"/>
      <point x="185" y="-12" smooth="yes"/>
      <point x="207" y="10" smooth="yes"/>
    </contour>
  </outline>
</glyph>
<glyph name="at" format="1">
  <advance width="795"/>
  <unicode hex="0040"/>
  <outline>
    <contour>
      <point x="470" y="283" type="curve" smooth="yes"/>
      <point x="470" y="238"/>
      <point x="470" y="231"/>
      <point x="469" y="224" type="curve"/>
      <point x="460" y="225" smooth="yes"/>
      <point x="437" y="229" smooth="yes"/>
      <point x="408" y="229" type="curve" smooth="yes"/>
      <point x="288" y="229" smooth="yes"/>
      <point x="233" y="161" smooth="yes"/>
      <point x="233" y="97" type="curve" smooth="yes"/>
      <point x="233" y="30" smooth="yes"/>
      <point x="282" y="-12" smooth="yes"/>
      <point x="337" y="-12" type="curve" smooth="yes"/>
      <point x="389" y="-12"/>
      <point x="447" y="27"/>
      <point x="470" y="122" type="curve"/>
      <point x="470" y="55" type="line" smooth="yes"/>
      <point x="470" y="-25" smooth="yes"/>
      <point x="511" y="-48" smooth="yes"/>
      <point x="557" y="-48" type="curve" smooth="yes"/>
      <point x="634" y="-48" smooth="yes"/>
      <point x="735" y="38" smooth="yes"/>
      <point x="735" y="200" type="curve" smooth="yes"/>
      <point x="735" y="387" smooth="yes"/>
      <point x="584" y="538" smooth="yes"/>
      <point x="398" y="538" type="curve" smooth="yes"/>
      <point x="212" y="538" smooth="yes"/>
      <point x="60" y="387" smooth="yes"/>
      <point x="60" y="200" type="curve" smooth="yes"/>
      <point x="60" y="13"/>
      <point x="212" y="-137"/>
      <point x="398" y="-137" type="curve"/>
      <point x="398" y="-101" type="line"/>
      <point x="231" y="-101" smooth="yes"/>
      <point x="96" y="33" smooth="yes"/>
      <point x="96" y="200" type="curve" smooth="yes"/>
      <point x="96" y="367" smooth="yes"/>
      <point x="231" y="502" smooth="yes"/>
      <point x="398" y="502" type="curve" smooth="yes"/>
      <point x="564" y="502" smooth="yes"/>
      <point x="699" y="367" smooth="yes"/>
      <point x="699" y="200" type="curve" smooth="yes"/>
      <point x="699" y="89" smooth="yes"/>
      <point x="639" y="-12" smooth="yes"/>
      <point x="572" y="-12" type="curve" smooth="yes"/>
      <point x="551" y="-12" smooth="yes"/>
      <point x="540" y="0" smooth="yes"/>
      <point x="540" y="27" type="curve" smooth="yes"/>
      <point x="540" y="260" type="line" smooth="yes"/>
      <point x="540" y="362" smooth="yes"/>
      <point x="500" y="424" smooth="yes"/>
      <point x="408" y="424" type="curve" smooth="yes"/>
      <point x="313" y="424" smooth="yes"/>
      <point x="265" y="374" smooth="yes"/>
      <point x="265" y="308" type="curve" smooth="yes" name="hr01"/>
      <point x="265" y="286" smooth="yes"/>
      <point x="275" y="268" smooth="yes"/>
      <point x="296" y="268" type="curve" smooth="yes"/>
      <point x="313" y="268"/>
      <point x="331" y="273"/>
      <point x="342" y="282" type="curve"/>
      <point x="337" y="295" smooth="yes"/>
      <point x="334" y="309" smooth="yes"/>
      <point x="334" y="324" type="curve" smooth="yes"/>
      <point x="334" y="369" smooth="yes"/>
      <point x="358" y="400" smooth="yes"/>
      <point x="400" y="400" type="curve" smooth="yes"/>
      <point x="454" y="400" smooth="yes"/>
      <point x="470" y="351" smooth="yes"/>
    </contour>
    <contour>
      <point x="363" y="36" type="curve" smooth="yes"/>
      <point x="325" y="36" smooth="yes"/>
      <point x="301" y="67" smooth="yes"/>
      <point x="301" y="103" type="curve" smooth="yes" name="hr02"/>
      <point x="301" y="148" smooth="yes"/>
      <point x="332" y="208" smooth="yes"/>
      <point x="443" y="208" type="curve" smooth="yes"/>
      <point x="452" y="208"/>
      <point x="459" y="208"/>
      <point x="468" y="207" type="curve"/>
      <point x="459" y="94" smooth="yes"/>
      <point x="411" y="36" smooth="yes"/>
    </contour>
  </outline>
</glyph>
<glyph name="A" format="1">
  <advance width="566"/>
  <unicode hex="0041"/>
  <outline>
    <contour>
      <point x="576" y="0" type="line" name="hr00"/>
      <point x="576" y="18" type="line"/>
      <point x="539" y="18" type="line" smooth="yes"/>
      <point x="528" y="18" smooth="yes"/>
      <point x="523" y="24" smooth="yes"/>
      <point x="520" y="32" type="curve" smooth="yes"/>
      <point x="300" y="630" type="line"/>
      <point x="266" y="630" type="line"/>
      <point x="46" y="32" type="line" smooth="yes"/>
      <point x="43" y="24" smooth="yes"/>
      <point x="38" y="18" smooth="yes"/>
      <point x="27" y="18" type="curve" smooth="yes"/>
      <point x="-10" y="18" type="line"/>
      <point x="-10" y="0" type="line"/>
      <point x="141" y="0" type="line"/>
      <point x="141" y="18" type="line"/>
      <point x="76" y="18" type="line"/>
      <point x="146" y="211" type="line"/>
      <point x="366" y="211" type="line"/>
      <point x="436" y="18" type="line"/>
      <point x="371" y="18" type="line"/>
      <point x="371" y="0" type="line"/>
    </contour>
    <contour>
      <point x="257" y="512" type="line"/>
      <point x="356" y="239" type="line"/>
      <point x="157" y="239" type="line"/>
    </contour>
  </outline>
</glyph>
<glyph name="B" format="1">
  <advance width="511"/>
  <unicode hex="0042"/>
  <outline>
    <contour>
      <point x="35" y="0" type="line"/>
      <point x="294" y="0" type="line" smooth="yes"/>
      <point x="402" y="0" smooth="yes"/>
      <point x="496" y="66" smooth="yes"/>
      <point x="496" y="175" type="curve" smooth="yes"/>
      <point x="496" y="264"/>
      <point x="434" y="321"/>
      <point x="354" y="339" type="curve"/>
      <point x="411" y="364" smooth="yes"/>
      <point x="451" y="414" smooth="yes"/>
      <point x="451" y="483" type="curve" smooth="yes" name="hr01"/>
      <point x="451" y="572" smooth="yes"/>
      <point x="366" y="630" smooth="yes"/>
      <point x="269" y="630" type="curve" smooth="yes"/>
      <point x="35" y="630" type="line"/>
      <point x="35" y="612" type="line"/>
      <point x="82" y="612" type="line" smooth="yes"/>
      <point x="89" y="612" smooth="yes"/>
      <point x="96" y="607" smooth="yes"/>
      <point x="96" y="600" type="curve" smooth="yes"/>
      <point x="96" y="30" type="line"/>
      <point x="96" y="23" smooth="yes"/>
      <point x="89" y="18" smooth="yes"/>
      <point x="82" y="18" type="curve" smooth="yes"/>
      <point x="35" y="18" type="line"/>
    </contour>
    <contour>
      <point x="289" y="321" type="line" smooth="yes"/>
      <point x="373" y="321" smooth="yes"/>
      <point x="416" y="248" smooth="yes"/>
      <point x="416" y="175" type="curve" smooth="yes"/>
      <point x="416" y="102" smooth="yes"/>
      <point x="373" y="28" smooth="yes"/>
      <point x="289" y="28" type="curve" smooth="yes"/>
      <point x="178" y="28" type="line"/>
      <point x="178" y="321" type="line"/>
    </contour>
    <contour>
      <point x="248" y="602" type="line" smooth="yes"/>
      <point x="338" y="602" smooth="yes"/>
      <point x="371" y="542" smooth="yes"/>
      <point x="371" y="483" type="curve" smooth="yes" name="hr02"/>
      <point x="371" y="416" smooth="yes"/>
      <point x="339" y="346" smooth="yes"/>
      <point x="254" y="346" type="curve" smooth="yes"/>
      <point x="178" y="346" type="line"/>
      <point x="178" y="602" type="line"/>
    </contour>
  </outline>
</glyph>
<glyph name="C" format="1">
  <advance width="563"/>
  <unicode hex="0043"/>
  <outline>
    <contour>
      <point x="499" y="0" type="line"/>
      <point x="518" y="0" type="line"/>
      <point x="518" y="167" type="line"/>
      <point x="500" y="167" type="line"/>
      <point x="487" y="58" smooth="yes"/>
      <point x="410" y="17" smooth="yes"/>
      <point x="322" y="17" type="curve" smooth="yes" name="hr01"/>
      <point x="205" y="17" smooth="yes"/>
      <point x="120" y="125" smooth="yes"/>
      <point x="120" y="314" type="curve" smooth="yes"/>
      <point x="120" y="502" smooth="yes"/>
      <point x="202" y="613" smooth="yes"/>
      <point x="322" y="613" type="curve" smooth="yes"/>
      <point x="410" y="613"/>
      <point x="487" y="572"/>
      <point x="500" y="463" type="curve"/>
      <point x="518" y="463" type="line"/>
      <point x="518" y="636" type="line"/>
      <point x="499" y="636" type="line"/>
      <point x="498" y="619" type="line" smooth="yes"/>
      <point x="497" y="604" smooth="yes"/>
      <point x="491" y="598" smooth="yes"/>
      <point x="482" y="598" type="curve" smooth="yes"/>
      <point x="456" y="598" smooth="yes"/>
      <point x="414" y="642" smooth="yes"/>
      <point x="322" y="642" type="curve" smooth="yes"/>
      <point x="155" y="642" smooth="yes"/>
      <point x="35" y="522" smooth="yes"/>
      <point x="35" y="314" type="curve" smooth="yes"/>
      <point x="35" y="107" smooth="yes"/>
      <point x="158" y="-12" smooth="yes"/>
      <point x="322" y="-12" type="curve" smooth="yes"/>
      <point x="416" y="-12" smooth="yes"/>
      <point x="458" y="35" smooth="yes"/>
      <point x="482" y="35" type="curve" smooth="yes" name="hr02"/>
      <point x="491" y="35" smooth="yes"/>
      <point x="497" y="29" smooth="yes"/>
      <point x="498" y="14" type="curve" smooth="yes"/>
    </contour>
  </outline>
</glyph>
<glyph name="D" format="1">
  <advance width="611"/>
  <unicode hex="0044"/>
  <outline>
    <contour>
      <point x="35" y="612" type="line" name="hr00"/>
      <point x="82" y="612" type="line" smooth="yes"/>
      <point x="89" y="612"/>
      <point x="96" y="607"/>
      <point x="96" y="600" type="curve"/>
      <point x="96" y="30" type="line"/>
      <point x="96" y="23" smooth="yes"/>
      <point x="89" y="18" smooth="yes"/>
      <point x="82" y="18" type="curve" smooth="yes"/>
      <point x="35" y="18" type="line"/>
      <point x="35" y="0" type="line"/>
      <point x="289" y="0" type="line" smooth="yes"/>
      <point x="455" y="0" smooth="yes"/>
      <point x="576" y="115" smooth="yes"/>
      <point x="576" y="315" type="curve" smooth="yes"/>
      <point x="576" y="515" smooth="yes"/>
      <point x="455" y="630" smooth="yes"/>
      <point x="289" y="630" type="curve" smooth="yes"/>
      <point x="35" y="630" type="line"/>
    </contour>
    <contour>
      <point x="289" y="602" type="line" smooth="yes"/>
      <point x="399" y="602" smooth="yes"/>
      <point x="491" y="498" smooth="yes"/>
      <point x="491" y="315" type="curve" smooth="yes"/>
      <point x="491" y="132" smooth="yes"/>
      <point x="399" y="28" smooth="yes"/>
      <point x="289" y="28" type="curve" smooth="yes"/>
      <point x="178" y="28" type="line"/>
      <point x="178" y="602" type="line"/>
    </contour>
  </outline>
</glyph>
<glyph name="E" format="1">
  <advance width="517"/>
  <unicode hex="0045"/>
  <outline>
    <contour>
      <point x="35" y="0" type="line"/>
      <point x="366" y="0" type="line" smooth="yes"/>
      <point x="422" y="0"/>
      <point x="459" y="-4"/>
      <point x="477" y="-9" type="curve" name="hr01"/>
      <point x="473" y="9" smooth="yes"/>
      <point x="468" y="65" smooth="yes"/>
      <point x="468" y="120" type="curve" smooth="yes"/>
      <point x="468" y="167" type="line"/>
      <point x="445" y="167" type="line"/>
      <point x="430" y="50" type="line" smooth="yes"/>
      <point x="428" y="32" smooth="yes"/>
      <point x="418" y="28" smooth="yes"/>
      <point x="402" y="28" type="curve" smooth="yes" name="hr02"/>
      <point x="178" y="28" type="line"/>
      <point x="178" y="301" type="line"/>
      <point x="379" y="301" type="line" smooth="yes"/>
      <point x="387" y="301" smooth="yes"/>
      <point x="392" y="295" smooth="yes"/>
      <point x="393" y="287" type="curve" smooth="yes"/>
      <point x="398" y="225" type="line"/>
      <point x="416" y="225" type="line"/>
      <point x="416" y="405" type="line"/>
      <point x="398" y="405" type="line"/>
      <point x="393" y="343" type="line" smooth="yes"/>
      <point x="392" y="335" smooth="yes"/>
      <point x="387" y="329" smooth="yes"/>
      <point x="379" y="329" type="curve" smooth="yes"/>
      <point x="178" y="329" type="line"/>
      <point x="178" y="602" type="line"/>
      <point x="388" y="602" type="line" smooth="yes"/>
      <point x="404" y="602" smooth="yes"/>
      <point x="414" y="598" smooth="yes"/>
      <point x="416" y="580" type="curve" smooth="yes"/>
      <point x="431" y="478" type="line"/>
      <point x="454" y="478" type="line"/>
      <point x="454" y="525" type="line" smooth="yes"/>
      <point x="454" y="580"/>
      <point x="459" y="621"/>
      <point x="463" y="639" type="curve" name="hr03"/>
      <point x="445" y="634" smooth="yes"/>
      <point x="408" y="630" smooth="yes"/>
      <point x="352" y="630" type="curve" smooth="yes" name="hr04"/>
      <point x="35" y="630" type="line"/>
      <point x="35" y="612" type="line"/>
      <point x="82" y="612" type="line" smooth="yes"/>
      <point x="89" y="612" smooth="yes"/>
      <point x="96" y="607" smooth="yes"/>
      <point x="96" y="600" type="curve" smooth="yes"/>
      <point x="96" y="32" type="line" smooth="yes"/>
      <point x="96" y="23" smooth="yes"/>
      <point x="89" y="18" smooth="yes"/>
      <point x="82" y="18" type="curve" smooth="yes"/>
      <point x="35" y="18" type="line"/>
    </contour>
  </outline>
</glyph>
<glyph name="F" format="1">
  <advance width="467"/>
  <unicode hex="0046"/>
  <outline>
    <contour>
      <point x="35" y="612" type="line" name="hr00"/>
      <point x="82" y="612" type="line" smooth="yes"/>
      <point x="89" y="612" smooth="yes"/>
      <point x="96" y="607" smooth="yes"/>
      <point x="96" y="600" type="curve" smooth="yes"/>
      <point x="96" y="32" type="line" smooth="yes"/>
      <point x="96" y="24" smooth="yes"/>
      <point x="90" y="18" smooth="yes"/>
      <point x="82" y="18" type="curve" smooth="yes"/>
      <point x="35" y="18" type="line"/>
      <point x="35" y="0" type="line"/>
      <point x="279" y="0" type="line"/>
      <point x="279" y="18" type="line"/>
      <point x="192" y="18" type="line" smooth="yes"/>
      <point x="184" y="18" smooth="yes"/>
      <point x="178" y="24" smooth="yes"/>
      <point x="178" y="32" type="curve" smooth="yes"/>
      <point x="178" y="301" type="line"/>
      <point x="375" y="301" type="line"/>
      <point x="381" y="301" smooth="yes"/>
      <point x="386" y="294" smooth="yes"/>
      <point x="387" y="287" type="curve" smooth="yes"/>
      <point x="392" y="225" type="line"/>
      <point x="410" y="225" type="line"/>
      <point x="410" y="405" type="line"/>
      <point x="392" y="405" type="line"/>
      <point x="387" y="343" type="line" smooth="yes"/>
      <point x="386" y="336"/>
      <point x="381" y="329"/>
      <point x="375" y="329" type="curve"/>
      <point x="178" y="329" type="line"/>
      <point x="178" y="602" type="line"/>
      <point x="382" y="602" type="line" smooth="yes"/>
      <point x="398" y="602" smooth="yes"/>
      <point x="407" y="598" smooth="yes"/>
      <point x="410" y="580" type="curve" smooth="yes"/>
      <point x="425" y="478" type="line"/>
      <point x="448" y="478" type="line"/>
      <point x="448" y="525" type="line" smooth="yes"/>
      <point x="448" y="580"/>
      <point x="453" y="621"/>
      <point x="457" y="639" type="curve"/>
      <point x="439" y="634" smooth="yes"/>
      <point x="402" y="630" smooth="yes"/>
      <point x="346" y="630" type="curve" smooth="yes"/>
      <point x="35" y="630" type="line"/>
    </contour>
  </outline>
</glyph>
<glyph name="G" format="1">
  <advance width="591"/>
  <unicode hex="0047"/>
  <outline>
    <contour>
      <point x="322" y="613" type="curve" smooth="yes" name="hr00"/>
      <point x="410" y="613"/>
      <point x="487" y="572"/>
      <point x="500" y="463" type="curve"/>
      <point x="518" y="463" type="line"/>
      <point x="518" y="636" type="line"/>
      <point x="499" y="636" type="line"/>
      <point x="498" y="619" type="line" smooth="yes"/>
      <point x="497" y="604" smooth="yes"/>
      <point x="491" y="598" smooth="yes"/>
      <point x="482" y="598" type="curve" smooth="yes"/>
      <point x="456" y="598" smooth="yes"/>
      <point x="414" y="642" smooth="yes"/>
      <point x="322" y="642" type="curve" smooth="yes"/>
      <point x="155" y="642" smooth="yes"/>
      <point x="35" y="522" smooth="yes"/>
      <point x="35" y="314" type="curve" smooth="yes"/>
      <point x="35" y="107" smooth="yes"/>
      <point x="158" y="-12" smooth="yes"/>
      <point x="322" y="-12" type="curve" smooth="yes"/>
      <point x="455" y="-12" smooth="yes"/>
      <point x="550" y="73" smooth="yes"/>
      <point x="550" y="192" type="curve" smooth="yes"/>
      <point x="550" y="228" type="line" smooth="yes"/>
      <point x="550" y="235" smooth="yes"/>
      <point x="557" y="240" smooth="yes"/>
      <point x="564" y="240" type="curve" smooth="yes"/>
      <point x="591" y="240" type="line"/>
      <point x="591" y="258" type="line"/>
      <point x="387" y="258" type="line"/>
      <point x="387" y="240" type="line"/>
      <point x="454" y="240" type="line" smooth="yes"/>
      <point x="461" y="240" smooth="yes"/>
      <point x="468" y="235" smooth="yes"/>
      <point x="468" y="228" type="curve" smooth="yes"/>
      <point x="468" y="188" type="line" smooth="yes"/>
      <point x="468" y="83" smooth="yes"/>
      <point x="432" y="17" smooth="yes"/>
      <point x="322" y="17" type="curve" smooth="yes"/>
      <point x="205" y="17" smooth="yes"/>
      <point x="120" y="125" smooth="yes"/>
      <point x="120" y="314" type="curve" smooth="yes"/>
      <point x="120" y="502" smooth="yes"/>
      <point x="202" y="613" smooth="yes"/>
    </contour>
  </outline>
</glyph>
<glyph name="I" format="1">
  <advance width="274"/>
  <unicode hex="0049"/>
  <outline>
    <contour>
      <point x="96" y="32" type="line" smooth="yes" name="hr00"/>
      <point x="96" y="24" smooth="yes"/>
      <point x="90" y="18" smooth="yes"/>
      <point x="82" y="18" type="curve" smooth="yes"/>
      <point x="35" y="18" type="line"/>
      <point x="35" y="0" type="line"/>
      <point x="239" y="0" type="line"/>
      <point x="239" y="18" type="line"/>
      <point x="192" y="18" type="line" smooth="yes"/>
      <point x="184" y="18" smooth="yes"/>
      <point x="178" y="24" smooth="yes"/>
      <point x="178" y="32" type="curve" smooth="yes"/>
      <point x="178" y="600" type="line"/>
      <point x="178" y="607" smooth="yes"/>
      <point x="185" y="612" smooth="yes"/>
      <point x="192" y="612" type="curve" smooth="yes"/>
      <point x="239" y="612" type="line"/>
      <point x="239" y="630" type="line"/>
      <point x="35" y="630" type="line"/>
      <point x="35" y="612" type="line"/>
      <point x="82" y="612" type="line" smooth="yes"/>
      <point x="89" y="612"/>
      <point x="96" y="607"/>
      <point x="96" y="600" type="curve"/>
    </contour>
  </outline>
</glyph>
<glyph name="J" format="1">
  <advance width="269"/>
  <unicode hex="004A"/>
  <outline>
    <contour>
      <point x="178" y="598" type="line" smooth="yes" name="hr00"/>
      <point x="178" y="606" smooth="yes"/>
      <point x="184" y="612" smooth="yes"/>
      <point x="192" y="612" type="curve" smooth="yes"/>
      <point x="239" y="612" type="line"/>
      <point x="239" y="630" type="line"/>
      <point x="35" y="630" type="line"/>
      <point x="35" y="612" type="line"/>
      <point x="82" y="612" type="line" smooth="yes"/>
      <point x="89" y="612" smooth="yes"/>
      <point x="96" y="607" smooth="yes"/>
      <point x="96" y="600" type="curve" smooth="yes"/>
      <point x="96" y="-45" type="line" smooth="yes"/>
      <point x="96" y="-110" smooth="yes"/>
      <point x="72" y="-135" smooth="yes"/>
      <point x="39" y="-135" type="curve" smooth="yes"/>
      <point x="9" y="-135" smooth="yes"/>
      <point x="-5" y="-113" smooth="yes"/>
      <point x="-5" y="-89" type="curve" smooth="yes"/>
      <point x="-5" y="-69"/>
      <point x="0" y="-46"/>
      <point x="11" y="-27" type="curve"/>
      <point x="-1" y="-17" smooth="yes"/>
      <point x="-20" y="-12" smooth="yes"/>
      <point x="-38" y="-12" type="curve" smooth="yes"/>
      <point x="-63" y="-12" smooth="yes"/>
      <point x="-75" y="-38" smooth="yes"/>
      <point x="-75" y="-68" type="curve" smooth="yes"/>
      <point x="-75" y="-109" smooth="yes"/>
      <point x="-50" y="-159" smooth="yes"/>
      <point x="30" y="-159" type="curve" smooth="yes"/>
      <point x="127" y="-159" smooth="yes"/>
      <point x="178" y="-61" smooth="yes"/>
      <point x="178" y="127" type="curve" smooth="yes"/>
    </contour>
  </outline>
</glyph>
<glyph name="K" format="1">
  <advance width="539"/>
  <unicode hex="004B"/>
  <outline>
    <contour>
      <point x="96" y="32" type="line" smooth="yes"/>
      <point x="96" y="24" smooth="yes"/>
      <point x="90" y="18" smooth="yes"/>
      <point x="82" y="18" type="curve" smooth="yes"/>
      <point x="35" y="18" type="line"/>
      <point x="35" y="0" type="line" name="hr01"/>
      <point x="239" y="0" type="line"/>
      <point x="239" y="18" type="line"/>
      <point x="192" y="18" type="line" smooth="yes"/>
      <point x="184" y="18" smooth="yes"/>
      <point x="178" y="24" smooth="yes"/>
      <point x="178" y="32" type="curve" smooth="yes"/>
      <point x="178" y="600" type="line"/>
      <point x="178" y="607" smooth="yes"/>
      <point x="185" y="612" smooth="yes"/>
      <point x="192" y="612" type="curve" smooth="yes"/>
      <point x="239" y="612" type="line"/>
      <point x="239" y="630" type="line"/>
      <point x="35" y="630" type="line"/>
      <point x="35" y="612" type="line"/>
      <point x="82" y="612" type="line" smooth="yes"/>
      <point x="89" y="612"/>
      <point x="96" y="607"/>
      <point x="96" y="600" type="curve"/>
    </contour>
    <contour>
      <point x="412" y="175" type="line" smooth="yes"/>
      <point x="392" y="254"/>
      <point x="352" y="325"/>
      <point x="240" y="327" type="curve"/>
      <point x="464" y="598" type="line" smooth="yes"/>
      <point x="474" y="610" smooth="yes"/>
      <point x="477" y="612" smooth="yes"/>
      <point x="492" y="612" type="curve" smooth="yes"/>
      <point x="519" y="612" type="line"/>
      <point x="519" y="630" type="line"/>
      <point x="383" y="630" type="line"/>
      <point x="383" y="612" type="line"/>
      <point x="433" y="612" type="line"/>
      <point x="197" y="325" type="line"/>
      <point x="197" y="303" type="line"/>
      <point x="269" y="303" smooth="yes"/>
      <point x="306" y="275" smooth="yes"/>
      <point x="329" y="187" type="curve" smooth="yes"/>
      <point x="352" y="95" type="line" smooth="yes"/>
      <point x="371" y="18" smooth="yes"/>
      <point x="413" y="-12" smooth="yes"/>
      <point x="462" y="-12" type="curve" smooth="yes" name="hr02"/>
      <point x="507" y="-12" smooth="yes"/>
      <point x="539" y="17" smooth="yes"/>
      <point x="539" y="66" type="curve" smooth="yes"/>
      <point x="539" y="77"/>
      <point x="538" y="88"/>
      <point x="535" y="99" type="curve"/>
      <point x="516" y="96" type="line"/>
      <point x="518" y="86" smooth="yes"/>
      <point x="519" y="77" smooth="yes"/>
      <point x="519" y="68" type="curve" smooth="yes"/>
      <point x="519" y="39" smooth="yes"/>
      <point x="505" y="21" smooth="yes"/>
      <point x="483" y="21" type="curve" smooth="yes"/>
      <point x="459" y="21" smooth="yes"/>
      <point x="445" y="42" smooth="yes"/>
      <point x="435" y="83" type="curve" smooth="yes"/>
    </contour>
  </outline>
</glyph>
<glyph name="L" format="1">
  <advance width="452"/>
  <unicode hex="004C"/>
  <outline>
    <contour>
      <point x="35" y="0" type="line"/>
      <point x="341" y="0" type="line" smooth="yes"/>
      <point x="397" y="0"/>
      <point x="434" y="-4"/>
      <point x="452" y="-9" type="curve" name="hr01"/>
      <point x="448" y="9" smooth="yes"/>
      <point x="443" y="65" smooth="yes"/>
      <point x="443" y="120" type="curve" smooth="yes"/>
      <point x="443" y="167" type="line"/>
      <point x="420" y="167" type="line"/>
      <point x="405" y="50" type="line" smooth="yes"/>
      <point x="403" y="32" smooth="yes"/>
      <point x="393" y="28" smooth="yes"/>
      <point x="377" y="28" type="curve" smooth="yes" name="hr02"/>
      <point x="178" y="28" type="line"/>
      <point x="178" y="600" type="line"/>
      <point x="178" y="607" smooth="yes"/>
      <point x="185" y="612" smooth="yes"/>
      <point x="192" y="612" type="curve" smooth="yes"/>
      <point x="239" y="612" type="line"/>
      <point x="239" y="630" type="line"/>
      <point x="35" y="630" type="line"/>
      <point x="35" y="612" type="line"/>
      <point x="82" y="612" type="line" smooth="yes"/>
      <point x="89" y="612"/>
      <point x="96" y="607"/>
      <point x="96" y="600" type="curve"/>
      <point x="96" y="32" type="line" smooth="yes"/>
      <point x="96" y="23" smooth="yes"/>
      <point x="89" y="18" smooth="yes"/>
      <point x="82" y="18" type="curve" smooth="yes"/>
      <point x="35" y="18" type="line"/>
    </contour>
  </outline>
</glyph>
<glyph name="M" format="1">
  <advance width="760"/>
  <unicode hex="004D"/>
  <outline>
    <contour>
      <point x="521" y="0" type="line" name="hr00"/>
      <point x="725" y="0" type="line"/>
      <point x="725" y="18" type="line"/>
      <point x="678" y="18" type="line" smooth="yes"/>
      <point x="671" y="18" smooth="yes"/>
      <point x="664" y="23" smooth="yes"/>
      <point x="664" y="30" type="curve" smooth="yes"/>
      <point x="664" y="598" type="line" smooth="yes"/>
      <point x="664" y="606" smooth="yes"/>
      <point x="670" y="612" smooth="yes"/>
      <point x="678" y="612" type="curve" smooth="yes"/>
      <point x="725" y="612" type="line"/>
      <point x="725" y="630" type="line"/>
      <point x="582" y="630" type="line"/>
      <point x="382" y="113" type="line"/>
      <point x="178" y="630" type="line"/>
      <point x="35" y="630" type="line"/>
      <point x="35" y="612" type="line"/>
      <point x="82" y="612" type="line" smooth="yes"/>
      <point x="89" y="612" smooth="yes"/>
      <point x="96" y="607" smooth="yes"/>
      <point x="96" y="600" type="curve" smooth="yes"/>
      <point x="96" y="32" type="line" smooth="yes"/>
      <point x="96" y="24" smooth="yes"/>
      <point x="90" y="18" smooth="yes"/>
      <point x="82" y="18" type="curve" smooth="yes"/>
      <point x="35" y="18" type="line"/>
      <point x="35" y="0" type="line"/>
      <point x="191" y="0" type="line"/>
      <point x="191" y="18" type="line"/>
      <point x="144" y="18" type="line" smooth="yes"/>
      <point x="136" y="18" smooth="yes"/>
      <point x="130" y="24" smooth="yes"/>
      <point x="130" y="32" type="curve" smooth="yes"/>
      <point x="130" y="526" type="line"/>
      <point x="339" y="0" type="line"/>
      <point x="373" y="0" type="line"/>
      <point x="582" y="541" type="line"/>
      <point x="582" y="30" type="line" smooth="yes"/>
      <point x="582" y="23" smooth="yes"/>
      <point x="575" y="18" smooth="yes"/>
      <point x="568" y="18" type="curve" smooth="yes"/>
      <point x="521" y="18" type="line"/>
    </contour>
  </outline>
</glyph>
<glyph name="N" format="1">
  <advance width="629"/>
  <unicode hex="004E"/>
  <outline>
    <contour>
      <point x="506" y="0" type="line" name="hr00"/>
      <point x="538" y="0" type="line"/>
      <point x="538" y="600" type="line"/>
      <point x="538" y="607" smooth="yes"/>
      <point x="545" y="612" smooth="yes"/>
      <point x="552" y="612" type="curve" smooth="yes"/>
      <point x="599" y="612" type="line"/>
      <point x="599" y="630" type="line"/>
      <point x="443" y="630" type="line"/>
      <point x="443" y="612" type="line"/>
      <point x="490" y="612" type="line" smooth="yes"/>
      <point x="498" y="612" smooth="yes"/>
      <point x="504" y="606" smooth="yes"/>
      <point x="504" y="598" type="curve" smooth="yes"/>
      <point x="504" y="154" type="line"/>
      <point x="182" y="630" type="line"/>
      <point x="35" y="630" type="line"/>
      <point x="35" y="612" type="line"/>
      <point x="82" y="612" type="line" smooth="yes"/>
      <point x="89" y="612"/>
      <point x="96" y="607"/>
      <point x="96" y="600" type="curve"/>
      <point x="96" y="32" type="line" smooth="yes"/>
      <point x="96" y="24" smooth="yes"/>
      <point x="90" y="18" smooth="yes"/>
      <point x="82" y="18" type="curve" smooth="yes"/>
      <point x="35" y="18" type="line"/>
      <point x="35" y="0" type="line"/>
      <point x="191" y="0" type="line"/>
      <point x="191" y="18" type="line"/>
      <point x="144" y="18" type="line" smooth="yes"/>
      <point x="136" y="18" smooth="yes"/>
      <point x="130" y="24" smooth="yes"/>
      <point x="130" y="32" type="curve" smooth="yes"/>
      <point x="130" y="558" type="line"/>
    </contour>
  </outline>
</glyph>
<glyph name="O" format="1">
  <advance width="643"/>
  <unicode hex="004F"/>
  <outline>
    <contour>
      <point x="35" y="315" type="curve" smooth="yes" name="hr00"/>
      <point x="35" y="107" smooth="yes"/>
      <point x="156" y="-12" smooth="yes"/>
      <point x="321" y="-12" type="curve" smooth="yes"/>
      <point x="487" y="-12" smooth="yes"/>
      <point x="608" y="107" smooth="yes"/>
      <point x="608" y="315" type="curve" smooth="yes"/>
      <point x="608" y="523" smooth="yes"/>
      <point x="487" y="642" smooth="yes"/>
      <point x="321" y="642" type="curve" smooth="yes"/>
      <point x="156" y="642" smooth="yes"/>
      <point x="35" y="523" smooth="yes"/>
    </contour>
    <contour>
      <point x="120" y="315" type="curve"/>
      <point x="120" y="507" smooth="yes"/>
      <point x="211" y="616" smooth="yes"/>
      <point x="321" y="616" type="curve" smooth="yes"/>
      <point x="431" y="616" smooth="yes"/>
      <point x="523" y="507" smooth="yes"/>
      <point x="523" y="315" type="curve" smooth="yes"/>
      <point x="523" y="123" smooth="yes"/>
      <point x="431" y="14" smooth="yes"/>
      <point x="321" y="14" type="curve" smooth="yes"/>
      <point x="211" y="14" smooth="yes"/>
      <point x="120" y="123" smooth="yes"/>
    </contour>
  </outline>
</glyph>
<glyph name="P" format="1">
  <advance width="486"/>
  <unicode hex="0050"/>
  <outline>
    <contour>
      <point x="35" y="612" type="line" name="hr00"/>
      <point x="82" y="612" type="line" smooth="yes"/>
      <point x="89" y="612" smooth="yes"/>
      <point x="96" y="607" smooth="yes"/>
      <point x="96" y="600" type="curve" smooth="yes"/>
      <point x="96" y="32" type="line" smooth="yes"/>
      <point x="96" y="24" smooth="yes"/>
      <point x="90" y="18" smooth="yes"/>
      <point x="82" y="18" type="curve" smooth="yes"/>
      <point x="35" y="18" type="line"/>
      <point x="35" y="0" type="line"/>
      <point x="259" y="0" type="line"/>
      <point x="259" y="18" type="line"/>
      <point x="192" y="18" type="line" smooth="yes"/>
      <point x="184" y="18" smooth="yes"/>
      <point x="178" y="24" smooth="yes"/>
      <point x="178" y="32" type="curve" smooth="yes"/>
      <point x="178" y="250" type="line"/>
      <point x="279" y="250" type="line" smooth="yes"/>
      <point x="387" y="250" smooth="yes"/>
      <point x="481" y="319" smooth="yes"/>
      <point x="481" y="440" type="curve" smooth="yes"/>
      <point x="481" y="561" smooth="yes"/>
      <point x="387" y="630" smooth="yes"/>
      <point x="279" y="630" type="curve" smooth="yes"/>
      <point x="35" y="630" type="line"/>
    </contour>
    <contour>
      <point x="274" y="602" type="line" smooth="yes"/>
      <point x="358" y="602" smooth="yes"/>
      <point x="401" y="520" smooth="yes"/>
      <point x="401" y="440" type="curve" smooth="yes"/>
      <point x="401" y="360" smooth="yes"/>
      <point x="358" y="278" smooth="yes"/>
      <point x="274" y="278" type="curve" smooth="yes"/>
      <point x="178" y="278" type="line"/>
      <point x="178" y="602" type="line"/>
    </contour>
  </outline>
</glyph>
<glyph name="Q" format="1">
  <advance width="643"/>
  <unicode hex="0051"/>
  <outline>
    <contour>
      <point x="35" y="315" type="curve" smooth="yes" name="hr00"/>
      <point x="35" y="121"/>
      <point x="139" y="5"/>
      <point x="287" y="-10" type="curve"/>
      <point x="292" y="-59" type="line" smooth="yes"/>
      <point x="300" y="-140"/>
      <point x="328" y="-178"/>
      <point x="447" y="-191" type="curve"/>
      <point x="451" y="-167" type="line"/>
      <point x="383" y="-154" smooth="yes"/>
      <point x="368" y="-120" smooth="yes"/>
      <point x="364" y="-77" type="curve" smooth="yes"/>
      <point x="358" y="-10" type="line"/>
      <point x="505" y="7" smooth="yes"/>
      <point x="608" y="123" smooth="yes"/>
      <point x="608" y="315" type="curve" smooth="yes"/>
      <point x="608" y="523" smooth="yes"/>
      <point x="487" y="642" smooth="yes"/>
      <point x="321" y="642" type="curve" smooth="yes"/>
      <point x="156" y="642" smooth="yes"/>
      <point x="35" y="523" smooth="yes"/>
    </contour>
    <contour>
      <point x="120" y="315" type="curve" smooth="yes"/>
      <point x="120" y="507" smooth="yes"/>
      <point x="211" y="616" smooth="yes"/>
      <point x="321" y="616" type="curve" smooth="yes"/>
      <point x="431" y="616" smooth="yes"/>
      <point x="523" y="507" smooth="yes"/>
      <point x="523" y="315" type="curve" smooth="yes"/>
      <point x="523" y="123" smooth="yes"/>
      <point x="431" y="14" smooth="yes"/>
      <point x="321" y="14" type="curve" smooth="yes"/>
      <point x="211" y="14" smooth="yes"/>
      <point x="120" y="123" smooth="yes"/>
    </contour>
  </outline>
</glyph>
<glyph name="R" format="1">
  <advance width="530"/>
  <unicode hex="0052"/>
  <outline>
    <contour>
      <point x="451" y="91" type="curve" smooth="yes"/>
      <point x="451" y="176"/>
      <point x="445" y="264"/>
      <point x="346" y="298" type="curve"/>
      <point x="426" y="318" smooth="yes"/>
      <point x="486" y="375" smooth="yes"/>
      <point x="486" y="461" type="curve" smooth="yes" name="hr01"/>
      <point x="486" y="567" smooth="yes"/>
      <point x="392" y="630" smooth="yes"/>
      <point x="284" y="630" type="curve" smooth="yes"/>
      <point x="35" y="630" type="line"/>
      <point x="35" y="612" type="line"/>
      <point x="82" y="612" type="line" smooth="yes"/>
      <point x="89" y="612"/>
      <point x="96" y="607"/>
      <point x="96" y="600" type="curve"/>
      <point x="96" y="32" type="line" smooth="yes"/>
      <point x="96" y="24" smooth="yes"/>
      <point x="90" y="18" smooth="yes"/>
      <point x="82" y="18" type="curve" smooth="yes"/>
      <point x="35" y="18" type="line"/>
      <point x="35" y="0" type="line" name="hr02"/>
      <point x="259" y="0" type="line"/>
      <point x="259" y="18" type="line"/>
      <point x="192" y="18" type="line" smooth="yes"/>
      <point x="184" y="18" smooth="yes"/>
      <point x="178" y="24" smooth="yes"/>
      <point x="178" y="32" type="curve" smooth="yes"/>
      <point x="178" y="291" type="line"/>
      <point x="243" y="291" type="line" smooth="yes"/>
      <point x="357" y="291" smooth="yes"/>
      <point x="375" y="214" smooth="yes"/>
      <point x="375" y="91" type="curve" smooth="yes"/>
      <point x="375" y="12" smooth="yes"/>
      <point x="415" y="-12" smooth="yes"/>
      <point x="460" y="-12" type="curve" smooth="yes" name="hr03"/>
      <point x="505" y="-12" smooth="yes"/>
      <point x="537" y="17" smooth="yes"/>
      <point x="537" y="66" type="curve" smooth="yes"/>
      <point x="537" y="77"/>
      <point x="536" y="88"/>
      <point x="533" y="99" type="curve"/>
      <point x="514" y="96" type="line"/>
      <point x="516" y="86" smooth="yes"/>
      <point x="517" y="77" smooth="yes"/>
      <point x="517" y="68" type="curve" smooth="yes"/>
      <point x="517" y="39" smooth="yes"/>
      <point x="503" y="21" smooth="yes"/>
      <point x="483" y="21" type="curve" smooth="yes"/>
      <point x="463" y="21" smooth="yes"/>
      <point x="451" y="42" smooth="yes"/>
    </contour>
    <contour>
      <point x="279" y="602" type="line" smooth="yes"/>
      <point x="363" y="602" smooth="yes"/>
      <point x="406" y="532" smooth="yes"/>
      <point x="406" y="461" type="curve" smooth="yes" name="hr04"/>
      <point x="406" y="391" smooth="yes"/>
      <point x="363" y="320" smooth="yes"/>
      <point x="279" y="320" type="curve" smooth="yes"/>
      <point x="178" y="320" type="line"/>
      <point x="178" y="602" type="line"/>
    </contour>
  </outline>
</glyph>
<glyph name="S" format="1">
  <advance width="497"/>
  <unicode hex="0053"/>
  <outline>
    <contour>
      <point x="248" y="-12" type="curve" smooth="yes"/>
      <point x="380" y="-12" smooth="yes"/>
      <point x="457" y="74" smooth="yes"/>
      <point x="457" y="163" type="curve" smooth="yes"/>
      <point x="457" y="226" smooth="yes"/>
      <point x="419" y="290" smooth="yes"/>
      <point x="336" y="327" type="curve" smooth="yes"/>
      <point x="216" y="380" type="line" smooth="yes"/>
      <point x="155" y="407" smooth="yes"/>
      <point x="127" y="455" smooth="yes"/>
      <point x="127" y="503" type="curve" smooth="yes"/>
      <point x="127" y="559" smooth="yes"/>
      <point x="169" y="613" smooth="yes"/>
      <point x="249" y="613" type="curve" smooth="yes"/>
      <point x="325" y="613"/>
      <point x="391" y="572"/>
      <point x="402" y="463" type="curve"/>
      <point x="420" y="463" type="line"/>
      <point x="420" y="636" type="line"/>
      <point x="401" y="636" type="line"/>
      <point x="400" y="616" type="line" smooth="yes"/>
      <point x="399" y="601" smooth="yes"/>
      <point x="394" y="595" smooth="yes"/>
      <point x="386" y="595" type="curve" smooth="yes"/>
      <point x="366" y="595" smooth="yes"/>
      <point x="325" y="642" smooth="yes"/>
      <point x="249" y="642" type="curve" smooth="yes"/>
      <point x="119" y="642" smooth="yes"/>
      <point x="59" y="553" smooth="yes"/>
      <point x="59" y="464" type="curve" smooth="yes"/>
      <point x="59" y="403" smooth="yes"/>
      <point x="92" y="342" smooth="yes"/>
      <point x="167" y="309" type="curve" smooth="yes"/>
      <point x="286" y="256" type="line" smooth="yes"/>
      <point x="349" y="228" smooth="yes"/>
      <point x="376" y="182" smooth="yes"/>
      <point x="376" y="138" type="curve" smooth="yes"/>
      <point x="376" y="77" smooth="yes"/>
      <point x="332" y="17" smooth="yes"/>
      <point x="246" y="17" type="curve" smooth="yes"/>
      <point x="158" y="17"/>
      <point x="81" y="58"/>
      <point x="68" y="167" type="curve"/>
      <point x="50" y="167" type="line"/>
      <point x="50" y="0" type="line" name="hr01"/>
      <point x="69" y="0" type="line"/>
      <point x="70" y="14" type="line" smooth="yes"/>
      <point x="71" y="29" smooth="yes"/>
      <point x="77" y="35" smooth="yes"/>
      <point x="86" y="35" type="curve" smooth="yes"/>
      <point x="110" y="35" smooth="yes"/>
      <point x="154" y="-12" smooth="yes"/>
    </contour>
  </outline>
</glyph>
<glyph name="T" format="1">
  <advance width="500"/>
  <unicode hex="0054"/>
  <outline>
    <contour>
      <point x="291" y="602" type="line"/>
      <point x="420" y="602" type="line" smooth="yes"/>
      <point x="436" y="602" smooth="yes"/>
      <point x="446" y="598" smooth="yes"/>
      <point x="448" y="580" type="curve" smooth="yes"/>
      <point x="463" y="463" type="line"/>
      <point x="486" y="463" type="line"/>
      <point x="486" y="510" type="line" smooth="yes"/>
      <point x="486" y="565"/>
      <point x="491" y="621"/>
      <point x="495" y="639" type="curve" name="hr01"/>
      <point x="477" y="634" smooth="yes"/>
      <point x="440" y="630" smooth="yes"/>
      <point x="384" y="630" type="curve" smooth="yes" name="hr02"/>
      <point x="116" y="630" type="line" smooth="yes"/>
      <point x="60" y="630"/>
      <point x="23" y="634"/>
      <point x="5" y="639" type="curve" name="hr03"/>
      <point x="9" y="621" smooth="yes"/>
      <point x="14" y="565" smooth="yes"/>
      <point x="14" y="510" type="curve" smooth="yes"/>
      <point x="14" y="463" type="line"/>
      <point x="37" y="463" type="line"/>
      <point x="52" y="580" type="line" smooth="yes"/>
      <point x="54" y="598" smooth="yes"/>
      <point x="64" y="602" smooth="yes"/>
      <point x="80" y="602" type="curve" smooth="yes" name="hr04"/>
      <point x="209" y="602" type="line"/>
      <point x="209" y="30" type="line" smooth="yes"/>
      <point x="209" y="23" smooth="yes"/>
      <point x="202" y="18" smooth="yes"/>
      <point x="195" y="18" type="curve" smooth="yes"/>
      <point x="108" y="18" type="line"/>
      <point x="108" y="0" type="line"/>
      <point x="392" y="0" type="line"/>
      <point x="392" y="18" type="line"/>
      <point x="305" y="18" type="line" smooth="yes"/>
      <point x="298" y="18" smooth="yes"/>
      <point x="291" y="23" smooth="yes"/>
      <point x="291" y="30" type="curve" smooth="yes"/>
    </contour>
  </outline>
</glyph>
<glyph name="U" format="1">
  <advance width="604"/>
  <unicode hex="0055"/>
  <outline>
    <contour>
      <point x="589" y="630" type="line" name="hr00"/>
      <point x="433" y="630" type="line"/>
      <point x="433" y="612" type="line"/>
      <point x="480" y="612" type="line" smooth="yes"/>
      <point x="487" y="612" smooth="yes"/>
      <point x="494" y="607" smooth="yes"/>
      <point x="494" y="600" type="curve" smooth="yes"/>
      <point x="494" y="195" type="line" smooth="yes"/>
      <point x="494" y="64" smooth="yes"/>
      <point x="407" y="23" smooth="yes"/>
      <point x="317" y="23" type="curve" smooth="yes"/>
      <point x="235" y="23" smooth="yes"/>
      <point x="168" y="70" smooth="yes"/>
      <point x="168" y="188" type="curve" smooth="yes"/>
      <point x="168" y="600" type="line" smooth="yes"/>
      <point x="168" y="607" smooth="yes"/>
      <point x="175" y="612" smooth="yes"/>
      <point x="182" y="612" type="curve" smooth="yes"/>
      <point x="229" y="612" type="line"/>
      <point x="229" y="630" type="line"/>
      <point x="25" y="630" type="line"/>
      <point x="25" y="612" type="line"/>
      <point x="72" y="612" type="line" smooth="yes"/>
      <point x="79" y="612" smooth="yes"/>
      <point x="86" y="607" smooth="yes"/>
      <point x="86" y="600" type="curve" smooth="yes"/>
      <point x="86" y="195" type="line" smooth="yes"/>
      <point x="86" y="51" smooth="yes"/>
      <point x="179" y="-12" smooth="yes"/>
      <point x="307" y="-12" type="curve" smooth="yes"/>
      <point x="435" y="-12" smooth="yes"/>
      <point x="528" y="51" smooth="yes"/>
      <point x="528" y="195" type="curve" smooth="yes"/>
      <point x="528" y="600" type="line" smooth="yes"/>
      <point x="528" y="607" smooth="yes"/>
      <point x="535" y="612" smooth="yes"/>
      <point x="542" y="612" type="curve" smooth="yes"/>
      <point x="589" y="612" type="line"/>
    </contour>
  </outline>
</glyph>
<glyph name="V" format="1">
  <advance width="566"/>
  <unicode hex="0056"/>
  <outline>
    <contour>
      <point x="5" y="630" type="line" name="hr00"/>
      <point x="5" y="612" type="line"/>
      <point x="42" y="612" type="line" smooth="yes"/>
      <point x="53" y="612" smooth="yes"/>
      <point x="58" y="606" smooth="yes"/>
      <point x="61" y="598" type="curve" smooth="yes"/>
      <point x="266" y="0" type="line"/>
      <point x="300" y="0" type="line"/>
      <point x="505" y="598" type="line" smooth="yes"/>
      <point x="508" y="606" smooth="yes"/>
      <point x="513" y="612" smooth="yes"/>
      <point x="524" y="612" type="curve" smooth="yes"/>
      <point x="561" y="612" type="line"/>
      <point x="561" y="630" type="line"/>
      <point x="425" y="630" type="line"/>
      <point x="425" y="612" type="line"/>
      <point x="475" y="612" type="line"/>
      <point x="308" y="124" type="line"/>
      <point x="145" y="612" type="line"/>
      <point x="195" y="612" type="line"/>
      <point x="195" y="630" type="line"/>
    </contour>
  </outline>
</glyph>
<glyph name="W" format="1">
  <advance width="885"/>
  <unicode hex="0057"/>
  <outline>
    <contour>
      <point x="744" y="630" type="line" name="hr00"/>
      <point x="744" y="612" type="line"/>
      <point x="794" y="612" type="line"/>
      <point x="645" y="132" type="line"/>
      <point x="494" y="612" type="line"/>
      <point x="544" y="612" type="line"/>
      <point x="544" y="630" type="line"/>
      <point x="354" y="630" type="line"/>
      <point x="354" y="612" type="line"/>
      <point x="391" y="612" type="line"/>
      <point x="402" y="612" smooth="yes"/>
      <point x="407" y="606" smooth="yes"/>
      <point x="410" y="598" type="curve" smooth="yes"/>
      <point x="425" y="551" type="line"/>
      <point x="288" y="129" type="line"/>
      <point x="145" y="612" type="line"/>
      <point x="195" y="612" type="line"/>
      <point x="195" y="630" type="line"/>
      <point x="5" y="630" type="line"/>
      <point x="5" y="612" type="line"/>
      <point x="42" y="612" type="line" smooth="yes"/>
      <point x="53" y="612" smooth="yes"/>
      <point x="58" y="606" smooth="yes"/>
      <point x="61" y="598" type="curve" smooth="yes"/>
      <point x="246" y="0" type="line"/>
      <point x="280" y="0" type="line"/>
      <point x="442" y="498" type="line"/>
      <point x="605" y="0" type="line"/>
      <point x="639" y="0" type="line"/>
      <point x="824" y="598" type="line" smooth="yes"/>
      <point x="827" y="606" smooth="yes"/>
      <point x="832" y="612" smooth="yes"/>
      <point x="843" y="612" type="curve" smooth="yes"/>
      <point x="880" y="612" type="line"/>
      <point x="880" y="630" type="line"/>
    </contour>
  </outline>
</glyph>
<glyph name="X" format="1">
  <advance width="535"/>
  <unicode hex="0058"/>
  <outline>
    <contour>
      <point x="154" y="612" type="line" name="hr00"/>
      <point x="204" y="612" type="line"/>
      <point x="204" y="630" type="line"/>
      <point x="10" y="630" type="line"/>
      <point x="10" y="612" type="line"/>
      <point x="47" y="612" type="line" smooth="yes"/>
      <point x="58" y="612" smooth="yes"/>
      <point x="62" y="606" smooth="yes"/>
      <point x="66" y="598" type="curve" smooth="yes"/>
      <point x="231" y="303" type="line"/>
      <point x="56" y="32" type="line" smooth="yes"/>
      <point x="51" y="25" smooth="yes"/>
      <point x="48" y="18" smooth="yes"/>
      <point x="37" y="18" type="curve" smooth="yes"/>
      <point x="0" y="18" type="line"/>
      <point x="0" y="0" type="line"/>
      <point x="137" y="0" type="line"/>
      <point x="137" y="18" type="line"/>
      <point x="87" y="18" type="line"/>
      <point x="249" y="271" type="line"/>
      <point x="391" y="18" type="line"/>
      <point x="341" y="18" type="line"/>
      <point x="341" y="0" type="line"/>
      <point x="535" y="0" type="line"/>
      <point x="535" y="18" type="line"/>
      <point x="498" y="18" type="line" smooth="yes"/>
      <point x="487" y="18" smooth="yes"/>
      <point x="483" y="24" smooth="yes"/>
      <point x="479" y="32" type="curve" smooth="yes"/>
      <point x="305" y="342" type="line"/>
      <point x="470" y="598" type="line" smooth="yes"/>
      <point x="475" y="605" smooth="yes"/>
      <point x="478" y="612" smooth="yes"/>
      <point x="489" y="612" type="curve" smooth="yes"/>
      <point x="526" y="612" type="line"/>
      <point x="526" y="630" type="line"/>
      <point x="389" y="630" type="line"/>
      <point x="389" y="612" type="line"/>
      <point x="439" y="612" type="line"/>
      <point x="287" y="374" type="line"/>
    </contour>
  </outline>
</glyph>
<glyph name="Y" format="1">
  <advance width="527"/>
  <unicode hex="0059"/>
  <outline>
    <contour>
      <point x="386" y="630" type="line" name="hr00"/>
      <point x="386" y="612" type="line"/>
      <point x="436" y="612" type="line"/>
      <point x="299" y="280" type="line"/>
      <point x="146" y="612" type="line"/>
      <point x="196" y="612" type="line"/>
      <point x="196" y="630" type="line"/>
      <point x="5" y="630" type="line"/>
      <point x="5" y="612" type="line"/>
      <point x="42" y="612" type="line" smooth="yes"/>
      <point x="53" y="612" smooth="yes"/>
      <point x="57" y="606" smooth="yes"/>
      <point x="61" y="598" type="curve" smooth="yes"/>
      <point x="231" y="230" type="line"/>
      <point x="231" y="32" type="line"/>
      <point x="231" y="24" smooth="yes"/>
      <point x="225" y="18" smooth="yes"/>
      <point x="217" y="18" type="curve" smooth="yes"/>
      <point x="145" y="18" type="line"/>
      <point x="145" y="0" type="line"/>
      <point x="399" y="0" type="line"/>
      <point x="399" y="18" type="line"/>
      <point x="327" y="18" type="line" smooth="yes"/>
      <point x="319" y="18"/>
      <point x="313" y="24"/>
      <point x="313" y="32" type="curve"/>
      <point x="313" y="229" type="line"/>
      <point x="466" y="598" type="line" smooth="yes"/>
      <point x="469" y="606" smooth="yes"/>
      <point x="474" y="612" smooth="yes"/>
      <point x="485" y="612" type="curve" smooth="yes"/>
      <point x="522" y="612" type="line"/>
      <point x="522" y="630" type="line"/>
    </contour>
  </outline>
</glyph>
<glyph name="Z" format="1">
  <advance width="515"/>
  <unicode hex="005A"/>
  <outline>
    <contour>
      <point x="30" y="0" type="line"/>
      <point x="374" y="0" type="line" smooth="yes"/>
      <point x="430" y="0"/>
      <point x="467" y="-4"/>
      <point x="485" y="-9" type="curve" name="hr01"/>
      <point x="481" y="9" smooth="yes"/>
      <point x="476" y="65" smooth="yes"/>
      <point x="476" y="120" type="curve" smooth="yes"/>
      <point x="476" y="167" type="line"/>
      <point x="453" y="167" type="line"/>
      <point x="438" y="50" type="line" smooth="yes"/>
      <point x="436" y="32" smooth="yes"/>
      <point x="426" y="28" smooth="yes"/>
      <point x="410" y="28" type="curve" smooth="yes" name="hr02"/>
      <point x="126" y="28" type="line"/>
      <point x="485" y="602" type="line"/>
      <point x="485" y="630" type="line"/>
      <point x="162" y="630" type="line" smooth="yes"/>
      <point x="106" y="630"/>
      <point x="69" y="634"/>
      <point x="51" y="639" type="curve" name="hr03"/>
      <point x="55" y="621" smooth="yes"/>
      <point x="60" y="565" smooth="yes"/>
      <point x="60" y="510" type="curve" smooth="yes"/>
      <point x="60" y="463" type="line"/>
      <point x="83" y="463" type="line"/>
      <point x="98" y="580" type="line" smooth="yes"/>
      <point x="100" y="598" smooth="yes"/>
      <point x="110" y="602" smooth="yes"/>
      <point x="126" y="602" type="curve" smooth="yes" name="hr04"/>
      <point x="388" y="602" type="line"/>
      <point x="30" y="28" type="line"/>
    </contour>
  </outline>
</glyph>
<glyph name="bracketleft" format="1">
  <advance width="263"/>
  <unicode hex="005B"/>
  <outline>
    <contour>
      <point x="142" y="598" type="line" smooth="yes"/>
      <point x="142" y="606" smooth="yes"/>
      <point x="148" y="612" smooth="yes"/>
      <point x="156" y="612" type="curve" smooth="yes"/>
      <point x="233" y="612" type="line"/>
      <point x="233" y="630" type="line"/>
      <point x="154" y="630" type="line" smooth="yes"/>
      <point x="118" y="630"/>
      <point x="82" y="633"/>
      <point x="70" y="636" type="curve" name="hr01"/>
      <point x="70" y="-113" type="line"/>
      <point x="82" y="-110" smooth="yes"/>
      <point x="118" y="-107" smooth="yes"/>
      <point x="154" y="-107" type="curve" smooth="yes" name="hr02"/>
      <point x="233" y="-107" type="line"/>
      <point x="233" y="-89" type="line"/>
      <point x="156" y="-89" type="line" smooth="yes"/>
      <point x="148" y="-89" smooth="yes"/>
      <point x="142" y="-83" smooth="yes"/>
      <point x="142" y="-75" type="curve" smooth="yes"/>
    </contour>
  </outline>
</glyph>
<glyph name="bracketright" format="1">
  <advance width="263"/>
  <unicode hex="005D"/>
  <outline>
    <contour>
      <point x="121" y="-75" type="line" smooth="yes"/>
      <point x="121" y="-83" smooth="yes"/>
      <point x="115" y="-89" smooth="yes"/>
      <point x="107" y="-89" type="curve" smooth="yes"/>
      <point x="30" y="-89" type="line"/>
      <point x="30" y="-107" type="line"/>
      <point x="109" y="-107" type="line" smooth="yes"/>
      <point x="145" y="-107"/>
      <point x="181" y="-110"/>
      <point x="193" y="-113" type="curve" name="hr01"/>
      <point x="193" y="636" type="line"/>
      <point x="181" y="633" smooth="yes"/>
      <point x="145" y="630" smooth="yes"/>
      <point x="109" y="630" type="curve" smooth="yes" name="hr02"/>
      <point x="30" y="630" type="line"/>
      <point x="30" y="612" type="line"/>
      <point x="107" y="612" type="line" smooth="yes"/>
      <point x="115" y="612" smooth="yes"/>
      <point x="121" y="606" smooth="yes"/>
      <point x="121" y="598" type="curve" smooth="yes"/>
    </contour>
  </outline>
</glyph>
<glyph name="asciicircum" format="1">
  <advance width="532"/>
  <unicode hex="005E"/>
  <outline>
    <contour>
      <point x="291" y="644" type="line" name="hr00"/>
      <point x="238" y="644" type="line"/>
      <point x="71" y="270" type="line"/>
      <point x="126" y="270" type="line"/>
      <point x="264" y="584" type="line"/>
      <point x="403" y="270" type="line"/>
      <point x="458" y="270" type="line"/>
    </contour>
  </outline>
</glyph>
<glyph name="underscore" format="1">
  <advance width="406"/>
  <unicode hex="005F"/>
  <outline>
    <contour>
      <point x="30" y="-51" type="line" name="hr00"/>
      <point x="376" y="-51" type="line"/>
      <point x="376" y="-12" type="line"/>
      <point x="30" y="-12" type="line"/>
    </contour>
  </outline>
</glyph>
<glyph name="grave" format="1">
  <advance width="150"/>
  <unicode hex="0060"/>
  <outline>
    <contour>
      <point x="150" y="480" type="line" name="hr00"/>
      <point x="134" y="468" type="line"/>
      <point x="0" y="602" type="line"/>
      <point x="0" y="635" smooth="yes"/>
      <point x="20" y="648" smooth="yes"/>
      <point x="36" y="648" type="curve" smooth="yes"/>
      <point x="52" y="648" smooth="yes"/>
      <point x="64" y="643" smooth="yes"/>
      <point x="79" y="614" type="curve" smooth="yes"/>
    </contour>
  </outline>
</glyph>
<glyph name="a" format="1">
  <advance width="459"/>
  <unicode hex="0061"/>
  <outline>
    <contour>
      <point x="211" y="420" type="curve" smooth="yes"/>
      <point x="270" y="420" smooth="yes"/>
      <point x="287" y="371" smooth="yes"/>
      <point x="287" y="303" type="curve" smooth="yes"/>
      <point x="287" y="245"/>
      <point x="287" y="241"/>
      <point x="286" y="224" type="curve"/>
      <point x="277" y="226" smooth="yes"/>
      <point x="253" y="229" smooth="yes"/>
      <point x="222" y="229" type="curve" smooth="yes"/>
      <point x="97" y="229" smooth="yes"/>
      <point x="40" y="161" smooth="yes"/>
      <point x="40" y="97" type="curve" smooth="yes"/>
      <point x="40" y="35" smooth="yes"/>
      <point x="79" y="-12" smooth="yes"/>
      <point x="153" y="-12" type="curve" smooth="yes"/>
      <point x="204" y="-12"/>
      <point x="258" y="22"/>
      <point x="282" y="102" type="curve"/>
      <point x="287" y="102" type="line"/>
      <point x="287" y="22" smooth="yes"/>
      <point x="321" y="-12" smooth="yes"/>
      <point x="367" y="-12" type="curve" smooth="yes"/>
      <point x="411" y="-12" smooth="yes"/>
      <point x="444" y="17" smooth="yes"/>
      <point x="444" y="66" type="curve" smooth="yes"/>
      <point x="444" y="77"/>
      <point x="443" y="88"/>
      <point x="440" y="99" type="curve"/>
      <point x="421" y="96" type="line"/>
      <point x="423" y="86" smooth="yes"/>
      <point x="424" y="77" smooth="yes"/>
      <point x="424" y="68" type="curve" smooth="yes"/>
      <point x="424" y="39" smooth="yes"/>
      <point x="406" y="21" smooth="yes"/>
      <point x="389" y="21" type="curve" smooth="yes"/>
      <point x="374" y="21" smooth="yes"/>
      <point x="359" y="30" smooth="yes"/>
      <point x="359" y="75" type="curve" smooth="yes"/>
      <point x="359" y="280" type="line" smooth="yes"/>
      <point x="359" y="382" smooth="yes"/>
      <point x="316" y="444" smooth="yes"/>
      <point x="220" y="444" type="curve" smooth="yes"/>
      <point x="122" y="444" smooth="yes"/>
      <point x="72" y="391" smooth="yes"/>
      <point x="72" y="321" type="curve" smooth="yes" name="hr01"/>
      <point x="72" y="285" smooth="yes"/>
      <point x="90" y="278" smooth="yes"/>
      <point x="108" y="278" type="curve" smooth="yes" name="hr02"/>
      <point x="125" y="278"/>
      <point x="142" y="287"/>
      <point x="149" y="293" type="curve"/>
      <point x="144" y="307" smooth="yes"/>
      <point x="141" y="322" smooth="yes"/>
      <point x="141" y="338" type="curve" smooth="yes" name="hr03"/>
      <point x="141" y="387" smooth="yes"/>
      <point x="166" y="420" smooth="yes"/>
    </contour>
    <contour>
      <point x="170" y="26" type="curve" smooth="yes"/>
      <point x="132" y="26" smooth="yes"/>
      <point x="108" y="59" smooth="yes"/>
      <point x="108" y="97" type="curve" smooth="yes" name="hr04"/>
      <point x="108" y="151" smooth="yes"/>
      <point x="141" y="208" smooth="yes"/>
      <point x="270" y="208" type="curve" smooth="yes"/>
      <point x="273" y="208"/>
      <point x="275" y="208"/>
      <point x="285" y="207" type="curve"/>
      <point x="276" y="87" smooth="yes"/>
      <point x="223" y="26" smooth="yes"/>
    </contour>
  </outline>
</glyph>
<glyph name="b" format="1">
  <advance width="495"/>
  <unicode hex="0062"/>
  <outline>
    <contour>
      <point x="258" y="-12" type="curve" smooth="yes" name="hr00"/>
      <point x="372" y="-12" smooth="yes"/>
      <point x="455" y="71" smooth="yes"/>
      <point x="455" y="216" type="curve" smooth="yes"/>
      <point x="455" y="358" smooth="yes"/>
      <point x="375" y="444" smooth="yes"/>
      <point x="296" y="444" type="curve" smooth="yes"/>
      <point x="239" y="444"/>
      <point x="182" y="399"/>
      <point x="158" y="298" type="curve"/>
      <point x="158" y="298"/>
      <point x="158" y="298"/>
      <point x="158" y="298" type="curve"/>
      <point x="158" y="654" type="line"/>
      <point x="146" y="651" smooth="yes"/>
      <point x="110" y="648" smooth="yes"/>
      <point x="74" y="648" type="curve" smooth="yes"/>
      <point x="25" y="648" type="line"/>
      <point x="25" y="630" type="line"/>
      <point x="72" y="630" type="line" smooth="yes"/>
      <point x="80" y="630" smooth="yes"/>
      <point x="86" y="624" smooth="yes"/>
      <point x="86" y="616" type="curve" smooth="yes"/>
      <point x="86" y="-8" type="line"/>
      <point x="103" y="-8" type="line"/>
      <point x="111" y="54" type="line"/>
      <point x="150" y="10" smooth="yes"/>
      <point x="202" y="-12" smooth="yes"/>
    </contour>
    <contour>
      <point x="281" y="406" type="curve" smooth="yes"/>
      <point x="330" y="406" smooth="yes"/>
      <point x="379" y="341" smooth="yes"/>
      <point x="379" y="216" type="curve" smooth="yes"/>
      <point x="379" y="83" smooth="yes"/>
      <point x="324" y="13" smooth="yes"/>
      <point x="250" y="13" type="curve" smooth="yes"/>
      <point x="218" y="13"/>
      <point x="188" y="21"/>
      <point x="158" y="41" type="curve"/>
      <point x="158" y="165" type="line" smooth="yes"/>
      <point x="158" y="332" smooth="yes"/>
      <point x="221" y="406" smooth="yes"/>
    </contour>
  </outline>
</glyph>
<glyph name="c" format="1">
  <advance width="421"/>
  <unicode hex="0063"/>
  <outline>
    <contour>
      <point x="244" y="420" type="curve" smooth="yes" name="hr00"/>
      <point x="289" y="420" smooth="yes"/>
      <point x="309" y="385" smooth="yes"/>
      <point x="309" y="344" type="curve" smooth="yes"/>
      <point x="309" y="324"/>
      <point x="304" y="301"/>
      <point x="295" y="282" type="curve"/>
      <point x="306" y="272" smooth="yes"/>
      <point x="325" y="266" smooth="yes"/>
      <point x="343" y="266" type="curve" smooth="yes"/>
      <point x="374" y="266" smooth="yes"/>
      <point x="380" y="302" smooth="yes"/>
      <point x="380" y="332" type="curve" smooth="yes"/>
      <point x="380" y="396" smooth="yes"/>
      <point x="338" y="444" smooth="yes"/>
      <point x="244" y="444" type="curve" smooth="yes"/>
      <point x="131" y="444" smooth="yes"/>
      <point x="40" y="361" smooth="yes"/>
      <point x="40" y="216" type="curve" smooth="yes"/>
      <point x="40" y="71" smooth="yes"/>
      <point x="130" y="-12" smooth="yes"/>
      <point x="242" y="-12" type="curve" smooth="yes"/>
      <point x="313" y="-12"/>
      <point x="379" y="31"/>
      <point x="396" y="116" type="curve"/>
      <point x="377" y="120" type="line"/>
      <point x="360" y="50" smooth="yes"/>
      <point x="311" y="12" smooth="yes"/>
      <point x="241" y="12" type="curve" smooth="yes"/>
      <point x="168" y="12" smooth="yes"/>
      <point x="116" y="87" smooth="yes"/>
      <point x="116" y="216" type="curve" smooth="yes"/>
      <point x="116" y="345" smooth="yes"/>
      <point x="169" y="420" smooth="yes"/>
    </contour>
  </outline>
</glyph>
<glyph name="d" format="1">
  <advance width="500"/>
  <unicode hex="0064"/>
  <outline>
    <contour>
      <point x="337" y="-6" type="line" name="hr00"/>
      <point x="349" y="-3" smooth="yes"/>
      <point x="385" y="0" smooth="yes"/>
      <point x="421" y="0" type="curve" smooth="yes"/>
      <point x="470" y="0" type="line"/>
      <point x="470" y="18" type="line"/>
      <point x="423" y="18" type="line" smooth="yes"/>
      <point x="415" y="18" smooth="yes"/>
      <point x="409" y="24" smooth="yes"/>
      <point x="409" y="32" type="curve" smooth="yes"/>
      <point x="409" y="654" type="line"/>
      <point x="393" y="650" smooth="yes"/>
      <point x="344" y="648" smooth="yes"/>
      <point x="300" y="648" type="curve" smooth="yes"/>
      <point x="276" y="648" type="line"/>
      <point x="276" y="630" type="line"/>
      <point x="323" y="630" type="line" smooth="yes"/>
      <point x="331" y="630" smooth="yes"/>
      <point x="337" y="624" smooth="yes"/>
      <point x="337" y="616" type="curve" smooth="yes"/>
      <point x="337" y="417" type="line"/>
      <point x="307" y="435" smooth="yes"/>
      <point x="273" y="444" smooth="yes"/>
      <point x="237" y="444" type="curve" smooth="yes"/>
      <point x="126" y="444" smooth="yes"/>
      <point x="40" y="358" smooth="yes"/>
      <point x="40" y="216" type="curve" smooth="yes"/>
      <point x="40" y="75" smooth="yes"/>
      <point x="102" y="-12" smooth="yes"/>
      <point x="205" y="-12" type="curve" smooth="yes"/>
      <point x="251" y="-12"/>
      <point x="297" y="14"/>
      <point x="337" y="80" type="curve"/>
      <point x="337" y="80"/>
      <point x="337" y="80"/>
      <point x="337" y="80" type="curve"/>
    </contour>
    <contour>
      <point x="116" y="216" type="curve" smooth="yes"/>
      <point x="116" y="346" smooth="yes"/>
      <point x="171" y="414" smooth="yes"/>
      <point x="245" y="414" type="curve" smooth="yes"/>
      <point x="273" y="414"/>
      <point x="304" y="406"/>
      <point x="337" y="386" type="curve"/>
      <point x="337" y="117" type="line"/>
      <point x="296" y="45" smooth="yes"/>
      <point x="258" y="26" smooth="yes"/>
      <point x="220" y="26" type="curve" smooth="yes"/>
      <point x="162" y="26" smooth="yes"/>
      <point x="116" y="93" smooth="yes"/>
    </contour>
  </outline>
</glyph>
<glyph name="e" format="1">
  <advance width="441"/>
  <unicode hex="0065"/>
  <outline>
    <contour>
      <point x="242" y="444" type="curve" smooth="yes" name="hr00"/>
      <point x="131" y="444" smooth="yes"/>
      <point x="40" y="361" smooth="yes"/>
      <point x="40" y="216" type="curve" smooth="yes"/>
      <point x="40" y="71" smooth="yes"/>
      <point x="130" y="-12" smooth="yes"/>
      <point x="242" y="-12" type="curve" smooth="yes"/>
      <point x="313" y="-12"/>
      <point x="379" y="31"/>
      <point x="396" y="116" type="curve"/>
      <point x="377" y="120" type="line"/>
      <point x="360" y="50" smooth="yes"/>
      <point x="311" y="12" smooth="yes"/>
      <point x="241" y="12" type="curve" smooth="yes"/>
      <point x="168" y="12" smooth="yes"/>
      <point x="116" y="87" smooth="yes"/>
      <point x="116" y="216" type="curve" smooth="yes"/>
      <point x="116" y="223" type="line"/>
      <point x="389" y="223" type="line"/>
      <point x="390" y="234" smooth="yes"/>
      <point x="391" y="250" smooth="yes"/>
      <point x="391" y="263" type="curve" smooth="yes"/>
      <point x="391" y="385" smooth="yes"/>
      <point x="331" y="444" smooth="yes"/>
    </contour>
    <contour>
      <point x="235" y="420" type="curve" smooth="yes"/>
      <point x="291" y="420" smooth="yes"/>
      <point x="322" y="375" smooth="yes"/>
      <point x="322" y="297" type="curve" smooth="yes"/>
      <point x="322" y="280"/>
      <point x="320" y="260"/>
      <point x="318" y="243" type="curve"/>
      <point x="117" y="243" type="line"/>
      <point x="120" y="343" smooth="yes"/>
      <point x="166" y="420" smooth="yes"/>
    </contour>
  </outline>
</glyph>
<glyph name="f" format="1">
  <advance width="299"/>
  <unicode hex="0066"/>
  <outline>
    <contour>
      <point x="178" y="552" type="line" smooth="yes" name="hr00"/>
      <point x="178" y="611" smooth="yes"/>
      <point x="201" y="637" smooth="yes"/>
      <point x="233" y="637" type="curve" smooth="yes"/>
      <point x="261" y="637" smooth="yes"/>
      <point x="274" y="616" smooth="yes"/>
      <point x="274" y="594" type="curve" smooth="yes"/>
      <point x="274" y="575"/>
      <point x="268" y="553"/>
      <point x="259" y="535" type="curve"/>
      <point x="271" y="525" smooth="yes"/>
      <point x="289" y="520" smooth="yes"/>
      <point x="306" y="520" type="curve" smooth="yes"/>
      <point x="330" y="520" smooth="yes"/>
      <point x="341" y="545" smooth="yes"/>
      <point x="341" y="574" type="curve" smooth="yes"/>
      <point x="341" y="613" smooth="yes"/>
      <point x="317" y="660" smooth="yes"/>
      <point x="241" y="660" type="curve" smooth="yes"/>
      <point x="176" y="660"/>
      <point x="116" y="596"/>
      <point x="107" y="432" type="curve"/>
      <point x="45" y="432" type="line"/>
      <point x="45" y="414" type="line"/>
      <point x="92" y="414" type="line" smooth="yes"/>
      <point x="100" y="414" smooth="yes"/>
      <point x="106" y="408" smooth="yes"/>
      <point x="106" y="400" type="curve" smooth="yes"/>
      <point x="106" y="32" type="line" smooth="yes"/>
      <point x="106" y="24" smooth="yes"/>
      <point x="100" y="18" smooth="yes"/>
      <point x="92" y="18" type="curve" smooth="yes"/>
      <point x="45" y="18" type="line"/>
      <point x="45" y="0" type="line"/>
      <point x="259" y="0" type="line"/>
      <point x="259" y="18" type="line"/>
      <point x="194" y="18" type="line" smooth="yes"/>
      <point x="186" y="18"/>
      <point x="178" y="23"/>
      <point x="178" y="30" type="curve"/>
      <point x="178" y="414" type="line"/>
      <point x="278" y="414" type="line"/>
      <point x="278" y="432" type="line"/>
      <point x="178" y="432" type="line"/>
    </contour>
  </outline>
</glyph>
<glyph name="g" format="1">
  <advance width="454"/>
  <unicode hex="0067"/>
  <outline>
    <contour>
      <point x="136" y="54" type="line" smooth="yes"/>
      <point x="101" y="54" smooth="yes"/>
      <point x="84" y="78" smooth="yes"/>
      <point x="84" y="101" type="curve" smooth="yes"/>
      <point x="84" y="125" smooth="yes"/>
      <point x="101" y="148" smooth="yes"/>
      <point x="136" y="148" type="curve" smooth="yes"/>
      <point x="225" y="148" type="line" smooth="yes"/>
      <point x="313" y="148" smooth="yes"/>
      <point x="378" y="202" smooth="yes"/>
      <point x="378" y="296" type="curve" smooth="yes"/>
      <point x="378" y="348"/>
      <point x="357" y="389"/>
      <point x="324" y="414" type="curve"/>
      <point x="328" y="457" smooth="yes"/>
      <point x="352" y="483" smooth="yes"/>
      <point x="375" y="483" type="curve" smooth="yes"/>
      <point x="395" y="483"/>
      <point x="414" y="464"/>
      <point x="420" y="421" type="curve"/>
      <point x="422" y="421" smooth="yes"/>
      <point x="425" y="420" smooth="yes"/>
      <point x="428" y="420" type="curve" smooth="yes"/>
      <point x="448" y="420" smooth="yes"/>
      <point x="472" y="431" smooth="yes"/>
      <point x="472" y="452" type="curve" smooth="yes"/>
      <point x="472" y="489" smooth="yes"/>
      <point x="436" y="518" smooth="yes"/>
      <point x="392" y="518" type="curve" smooth="yes"/>
      <point x="338" y="518"/>
      <point x="312" y="474"/>
      <point x="304" y="426" type="curve"/>
      <point x="281" y="438" smooth="yes"/>
      <point x="254" y="444" smooth="yes"/>
      <point x="225" y="444" type="curve" smooth="yes"/>
      <point x="137" y="444" smooth="yes"/>
      <point x="73" y="390" smooth="yes"/>
      <point x="73" y="296" type="curve" smooth="yes" name="hr01"/>
      <point x="73" y="231"/>
      <point x="103" y="185"/>
      <point x="151" y="163" type="curve"/>
      <point x="72" y="163" smooth="yes"/>
      <point x="40" y="125" smooth="yes"/>
      <point x="40" y="73" type="curve" smooth="yes" name="hr02"/>
      <point x="40" y="35"/>
      <point x="62" y="2"/>
      <point x="97" y="-8" type="curve"/>
      <point x="59" y="-41" smooth="yes"/>
      <point x="42" y="-78" smooth="yes"/>
      <point x="42" y="-111" type="curve" smooth="yes"/>
      <point x="42" y="-175" smooth="yes"/>
      <point x="105" y="-228" smooth="yes"/>
      <point x="204" y="-228" type="curve" smooth="yes"/>
      <point x="337" y="-228" smooth="yes"/>
      <point x="424" y="-125" smooth="yes"/>
      <point x="424" y="-43" type="curve" smooth="yes"/>
      <point x="424" y="10" smooth="yes"/>
      <point x="387" y="54" smooth="yes"/>
      <point x="303" y="54" type="curve" smooth="yes"/>
    </contour>
    <contour>
      <point x="303" y="-12" type="line" smooth="yes"/>
      <point x="356" y="-12" smooth="yes"/>
      <point x="379" y="-37" smooth="yes"/>
      <point x="379" y="-69" type="curve" smooth="yes"/>
      <point x="379" y="-126" smooth="yes"/>
      <point x="307" y="-204" smooth="yes"/>
      <point x="205" y="-204" type="curve" smooth="yes"/>
      <point x="131" y="-204" smooth="yes"/>
      <point x="96" y="-154" smooth="yes"/>
      <point x="96" y="-99" type="curve" smooth="yes"/>
      <point x="96" y="-68"/>
      <point x="107" y="-36"/>
      <point x="128" y="-12" type="curve"/>
    </contour>
    <contour>
      <point x="144" y="296" type="curve" smooth="yes" name="hr03"/>
      <point x="144" y="376" smooth="yes"/>
      <point x="180" y="422" smooth="yes"/>
      <point x="225" y="422" type="curve" smooth="yes"/>
      <point x="270" y="422" smooth="yes"/>
      <point x="307" y="376" smooth="yes"/>
      <point x="307" y="296" type="curve" smooth="yes"/>
      <point x="307" y="216" smooth="yes"/>
      <point x="270" y="170" smooth="yes"/>
      <point x="225" y="170" type="curve" smooth="yes"/>
      <point x="180" y="170" smooth="yes"/>
      <point x="144" y="216" smooth="yes"/>
    </contour>
  </outline>
</glyph>
<glyph name="h" format="1">
  <advance width="528"/>
  <unicode hex="0068"/>
  <outline>
    <contour>
      <point x="437" y="292" type="line" smooth="yes" name="hr00"/>
      <point x="437" y="403" smooth="yes"/>
      <point x="374" y="444" smooth="yes"/>
      <point x="313" y="444" type="curve" smooth="yes"/>
      <point x="253" y="444"/>
      <point x="190" y="415"/>
      <point x="163" y="302" type="curve"/>
      <point x="163" y="302"/>
      <point x="163" y="302"/>
      <point x="163" y="302" type="curve"/>
      <point x="163" y="654" type="line"/>
      <point x="151" y="651" smooth="yes"/>
      <point x="115" y="648" smooth="yes"/>
      <point x="79" y="648" type="curve" smooth="yes"/>
      <point x="30" y="648" type="line"/>
      <point x="30" y="630" type="line"/>
      <point x="77" y="630" type="line" smooth="yes"/>
      <point x="85" y="630" smooth="yes"/>
      <point x="91" y="624" smooth="yes"/>
      <point x="91" y="616" type="curve" smooth="yes"/>
      <point x="91" y="30" type="line" smooth="yes"/>
      <point x="91" y="23" smooth="yes"/>
      <point x="84" y="18" smooth="yes"/>
      <point x="77" y="18" type="curve" smooth="yes"/>
      <point x="30" y="18" type="line"/>
      <point x="30" y="0" type="line"/>
      <point x="210" y="0" type="line"/>
      <point x="210" y="18" type="line"/>
      <point x="177" y="18" type="line" smooth="yes"/>
      <point x="169" y="18" smooth="yes"/>
      <point x="163" y="24" smooth="yes"/>
      <point x="163" y="32" type="curve" smooth="yes"/>
      <point x="163" y="167" type="line" smooth="yes"/>
      <point x="163" y="327" smooth="yes"/>
      <point x="217" y="405" smooth="yes"/>
      <point x="283" y="405" type="curve" smooth="yes"/>
      <point x="330" y="405" smooth="yes"/>
      <point x="365" y="376" smooth="yes"/>
      <point x="365" y="305" type="curve" smooth="yes"/>
      <point x="365" y="30" type="line" smooth="yes"/>
      <point x="365" y="23" smooth="yes"/>
      <point x="358" y="18" smooth="yes"/>
      <point x="351" y="18" type="curve" smooth="yes"/>
      <point x="318" y="18" type="line"/>
      <point x="318" y="0" type="line"/>
      <point x="498" y="0" type="line"/>
      <point x="498" y="18" type="line"/>
      <point x="451" y="18" type="line" smooth="yes"/>
      <point x="444" y="18" smooth="yes"/>
      <point x="437" y="23" smooth="yes"/>
      <point x="437" y="30" type="curve" smooth="yes"/>
    </contour>
  </outline>
</glyph>
<glyph name="i" format="1">
  <advance width="269"/>
  <unicode hex="0069"/>
  <outline>
    <contour>
      <point x="106" y="32" type="line" smooth="yes" name="hr00"/>
      <point x="106" y="24" smooth="yes"/>
      <point x="100" y="18" smooth="yes"/>
      <point x="92" y="18" type="curve" smooth="yes"/>
      <point x="45" y="18" type="line"/>
      <point x="45" y="0" type="line"/>
      <point x="239" y="0" type="line"/>
      <point x="239" y="18" type="line"/>
      <point x="192" y="18" type="line" smooth="yes"/>
      <point x="185" y="18" smooth="yes"/>
      <point x="178" y="23" smooth="yes"/>
      <point x="178" y="30" type="curve" smooth="yes"/>
      <point x="178" y="438" type="line"/>
      <point x="166" y="435" smooth="yes"/>
      <point x="130" y="432" smooth="yes"/>
      <point x="94" y="432" type="curve" smooth="yes"/>
      <point x="45" y="432" type="line"/>
      <point x="45" y="414" type="line"/>
      <point x="92" y="414" type="line" smooth="yes"/>
      <point x="100" y="414" smooth="yes"/>
      <point x="106" y="408" smooth="yes"/>
      <point x="106" y="400" type="curve" smooth="yes"/>
    </contour>
    <contour>
      <point x="95" y="576" type="curve" smooth="yes"/>
      <point x="95" y="550" smooth="yes"/>
      <point x="116" y="529" smooth="yes"/>
      <point x="142" y="529" type="curve" smooth="yes"/>
      <point x="168" y="529" smooth="yes"/>
      <point x="189" y="550" smooth="yes"/>
      <point x="189" y="576" type="curve" smooth="yes"/>
      <point x="189" y="602" smooth="yes"/>
      <point x="168" y="623" smooth="yes"/>
      <point x="142" y="623" type="curve" smooth="yes"/>
      <point x="116" y="623" smooth="yes"/>
      <point x="95" y="602" smooth="yes"/>
    </contour>
  </outline>
</glyph>
<glyph name="j" format="1">
  <advance width="245"/>
  <unicode hex="006A"/>
  <outline>
    <contour>
      <point x="80" y="576" type="curve" smooth="yes"/>
      <point x="80" y="550" smooth="yes"/>
      <point x="101" y="529" smooth="yes"/>
      <point x="127" y="529" type="curve" smooth="yes"/>
      <point x="153" y="529" smooth="yes"/>
      <point x="174" y="550" smooth="yes"/>
      <point x="174" y="576" type="curve" smooth="yes"/>
      <point x="174" y="602" smooth="yes"/>
      <point x="153" y="623" smooth="yes"/>
      <point x="127" y="623" type="curve" smooth="yes"/>
      <point x="101" y="623" smooth="yes"/>
      <point x="80" y="602" smooth="yes"/>
    </contour>
    <contour>
      <point x="163" y="438" type="line"/>
      <point x="151" y="435" smooth="yes"/>
      <point x="115" y="432" smooth="yes"/>
      <point x="79" y="432" type="curve" smooth="yes"/>
      <point x="30" y="432" type="line"/>
      <point x="30" y="414" type="line"/>
      <point x="77" y="414" type="line" smooth="yes"/>
      <point x="85" y="414" smooth="yes"/>
      <point x="91" y="408" smooth="yes"/>
      <point x="91" y="400" type="curve" smooth="yes"/>
      <point x="91" y="-120" type="line" smooth="yes"/>
      <point x="91" y="-179" smooth="yes"/>
      <point x="68" y="-205" smooth="yes"/>
      <point x="36" y="-205" type="curve" smooth="yes"/>
      <point x="8" y="-205" smooth="yes"/>
      <point x="-5" y="-184" smooth="yes"/>
      <point x="-5" y="-162" type="curve" smooth="yes"/>
      <point x="-5" y="-143"/>
      <point x="1" y="-121"/>
      <point x="10" y="-103" type="curve"/>
      <point x="-2" y="-93" smooth="yes"/>
      <point x="-20" y="-88" smooth="yes"/>
      <point x="-37" y="-88" type="curve" smooth="yes"/>
      <point x="-61" y="-88" smooth="yes"/>
      <point x="-72" y="-113" smooth="yes"/>
      <point x="-72" y="-142" type="curve" smooth="yes"/>
      <point x="-72" y="-181" smooth="yes"/>
      <point x="-48" y="-228" smooth="yes"/>
      <point x="28" y="-228" type="curve" smooth="yes"/>
      <point x="101" y="-228" smooth="yes"/>
      <point x="162" y="-143" smooth="yes"/>
      <point x="162" y="32" type="curve" smooth="yes" name="hr01"/>
    </contour>
  </outline>
</glyph>
<glyph name="k" format="1">
  <advance width="451"/>
  <unicode hex="006B"/>
  <outline>
    <contour>
      <point x="91" y="32" type="line" smooth="yes" name="hr00"/>
      <point x="91" y="24" smooth="yes"/>
      <point x="85" y="18" smooth="yes"/>
      <point x="77" y="18" type="curve" smooth="yes"/>
      <point x="30" y="18" type="line"/>
      <point x="30" y="0" type="line"/>
      <point x="224" y="0" type="line"/>
      <point x="224" y="18" type="line"/>
      <point x="177" y="18" type="line" smooth="yes"/>
      <point x="170" y="18" smooth="yes"/>
      <point x="163" y="23" smooth="yes"/>
      <point x="163" y="30" type="curve" smooth="yes"/>
      <point x="163" y="654" type="line"/>
      <point x="151" y="651" smooth="yes"/>
      <point x="115" y="648" smooth="yes"/>
      <point x="79" y="648" type="curve" smooth="yes"/>
      <point x="30" y="648" type="line"/>
      <point x="30" y="630" type="line"/>
      <point x="77" y="630" type="line" smooth="yes"/>
      <point x="85" y="630" smooth="yes"/>
      <point x="91" y="624" smooth="yes"/>
      <point x="91" y="616" type="curve" smooth="yes"/>
    </contour>
    <contour>
      <point x="297" y="432" type="line"/>
      <point x="297" y="414" type="line"/>
      <point x="348" y="414" type="line"/>
      <point x="182" y="227" type="line"/>
      <point x="342" y="-6" type="line"/>
      <point x="354" y="-3" smooth="yes"/>
      <point x="378" y="0" smooth="yes"/>
      <point x="414" y="0" type="curve" smooth="yes"/>
      <point x="461" y="0" type="line"/>
      <point x="461" y="18" type="line"/>
      <point x="420" y="18" type="line" smooth="yes"/>
      <point x="412" y="18" smooth="yes"/>
      <point x="409" y="21" smooth="yes"/>
      <point x="406" y="26" type="curve" smooth="yes"/>
      <point x="247" y="257" type="line"/>
      <point x="376" y="404" type="line" smooth="yes"/>
      <point x="382" y="410" smooth="yes"/>
      <point x="386" y="414" smooth="yes"/>
      <point x="394" y="414" type="curve" smooth="yes"/>
      <point x="431" y="414" type="line"/>
      <point x="431" y="432" type="line"/>
    </contour>
  </outline>
</glyph>
<glyph name="l" format="1">
  <advance width="254"/>
  <unicode hex="006C"/>
  <outline>
    <contour>
      <point x="91" y="32" type="line" smooth="yes" name="hr00"/>
      <point x="91" y="24" smooth="yes"/>
      <point x="85" y="18" smooth="yes"/>
      <point x="77" y="18" type="curve" smooth="yes"/>
      <point x="30" y="18" type="line"/>
      <point x="30" y="0" type="line"/>
      <point x="224" y="0" type="line"/>
      <point x="224" y="18" type="line"/>
      <point x="177" y="18" type="line" smooth="yes"/>
      <point x="169" y="18" smooth="yes"/>
      <point x="163" y="24" smooth="yes"/>
      <point x="163" y="32" type="curve" smooth="yes"/>
      <point x="163" y="654" type="line"/>
      <point x="151" y="651" smooth="yes"/>
      <point x="115" y="648" smooth="yes"/>
      <point x="79" y="648" type="curve" smooth="yes"/>
      <point x="30" y="648" type="line"/>
      <point x="30" y="630" type="line"/>
      <point x="77" y="630" type="line" smooth="yes"/>
      <point x="85" y="630" smooth="yes"/>
      <point x="91" y="624" smooth="yes"/>
      <point x="91" y="616" type="curve" smooth="yes"/>
    </contour>
  </outline>
</glyph>
<glyph name="m" format="1">
  <advance width="802"/>
  <unicode hex="006D"/>
  <outline>
    <contour>
      <point x="706" y="292" type="line" smooth="yes" name="hr00"/>
      <point x="706" y="403" smooth="yes"/>
      <point x="643" y="444" smooth="yes"/>
      <point x="584" y="444" type="curve" smooth="yes"/>
      <point x="536" y="444" smooth="yes"/>
      <point x="488" y="424" smooth="yes"/>
      <point x="458" y="352" type="curve" smooth="yes"/>
      <point x="452" y="338"/>
      <point x="446" y="322"/>
      <point x="442" y="303" type="curve"/>
      <point x="438" y="388" smooth="yes"/>
      <point x="395" y="430" smooth="yes"/>
      <point x="348" y="441" type="curve" smooth="yes"/>
      <point x="339" y="443" smooth="yes"/>
      <point x="329" y="444" smooth="yes"/>
      <point x="320" y="444" type="curve" smooth="yes"/>
      <point x="264" y="444"/>
      <point x="204" y="415"/>
      <point x="178" y="304" type="curve"/>
      <point x="178" y="304"/>
      <point x="178" y="304"/>
      <point x="178" y="304" type="curve"/>
      <point x="178" y="438" type="line"/>
      <point x="166" y="435" smooth="yes"/>
      <point x="130" y="432" smooth="yes"/>
      <point x="94" y="432" type="curve" smooth="yes"/>
      <point x="45" y="432" type="line"/>
      <point x="45" y="414" type="line"/>
      <point x="92" y="414" type="line" smooth="yes"/>
      <point x="100" y="414" smooth="yes"/>
      <point x="106" y="408" smooth="yes"/>
      <point x="106" y="400" type="curve" smooth="yes"/>
      <point x="106" y="30" type="line" smooth="yes"/>
      <point x="106" y="23" smooth="yes"/>
      <point x="99" y="18" smooth="yes"/>
      <point x="92" y="18" type="curve" smooth="yes"/>
      <point x="45" y="18" type="line"/>
      <point x="45" y="0" type="line"/>
      <point x="225" y="0" type="line"/>
      <point x="225" y="18" type="line"/>
      <point x="192" y="18" type="line" smooth="yes"/>
      <point x="184" y="18" smooth="yes"/>
      <point x="178" y="24" smooth="yes"/>
      <point x="178" y="32" type="curve" smooth="yes"/>
      <point x="178" y="155" type="line" smooth="yes"/>
      <point x="178" y="323" smooth="yes"/>
      <point x="228" y="405" smooth="yes"/>
      <point x="292" y="405" type="curve" smooth="yes"/>
      <point x="337" y="405" smooth="yes"/>
      <point x="370" y="376" smooth="yes"/>
      <point x="370" y="305" type="curve" smooth="yes"/>
      <point x="370" y="30" type="line" smooth="yes"/>
      <point x="370" y="23" smooth="yes"/>
      <point x="363" y="18" smooth="yes"/>
      <point x="356" y="18" type="curve" smooth="yes"/>
      <point x="323" y="18" type="line"/>
      <point x="323" y="0" type="line"/>
      <point x="503" y="0" type="line"/>
      <point x="503" y="18" type="line"/>
      <point x="456" y="18" type="line" smooth="yes"/>
      <point x="448" y="18" smooth="yes"/>
      <point x="442" y="24" smooth="yes"/>
      <point x="442" y="32" type="curve" smooth="yes"/>
      <point x="442" y="155" type="line" smooth="yes"/>
      <point x="442" y="323" smooth="yes"/>
      <point x="492" y="405" smooth="yes"/>
      <point x="556" y="405" type="curve" smooth="yes"/>
      <point x="601" y="405" smooth="yes"/>
      <point x="634" y="376" smooth="yes"/>
      <point x="634" y="305" type="curve" smooth="yes"/>
      <point x="634" y="30" type="line" smooth="yes"/>
      <point x="634" y="23" smooth="yes"/>
      <point x="627" y="18" smooth="yes"/>
      <point x="620" y="18" type="curve" smooth="yes"/>
      <point x="587" y="18" type="line"/>
      <point x="587" y="0" type="line"/>
      <point x="767" y="0" type="line"/>
      <point x="767" y="18" type="line"/>
      <point x="720" y="18" type="line" smooth="yes"/>
      <point x="713" y="18" smooth="yes"/>
      <point x="706" y="23" smooth="yes"/>
      <point x="706" y="30" type="curve" smooth="yes"/>
    </contour>
  </outline>
</glyph>
<glyph name="n" format="1">
  <advance width="548"/>
  <unicode hex="006E"/>
  <outline>
    <contour>
      <point x="178" y="319" type="line" name="hr00"/>
      <point x="178" y="319" type="line"/>
      <point x="178" y="438" type="line"/>
      <point x="165" y="435" smooth="yes"/>
      <point x="127" y="432" smooth="yes"/>
      <point x="94" y="432" type="curve" smooth="yes"/>
      <point x="45" y="432" type="line"/>
      <point x="45" y="414" type="line"/>
      <point x="92" y="414" type="line" smooth="yes"/>
      <point x="100" y="414" smooth="yes"/>
      <point x="106" y="408" smooth="yes"/>
      <point x="106" y="400" type="curve" smooth="yes"/>
      <point x="106" y="30" type="line" smooth="yes"/>
      <point x="106" y="23" smooth="yes"/>
      <point x="100" y="18" smooth="yes"/>
      <point x="92" y="18" type="curve" smooth="yes"/>
      <point x="45" y="18" type="line"/>
      <point x="45" y="0" type="line"/>
      <point x="225" y="0" type="line"/>
      <point x="225" y="18" type="line"/>
      <point x="192" y="18" type="line" smooth="yes"/>
      <point x="184" y="18" smooth="yes"/>
      <point x="178" y="24" smooth="yes"/>
      <point x="178" y="32" type="curve" smooth="yes"/>
      <point x="178" y="167" type="line" smooth="yes"/>
      <point x="178" y="312" smooth="yes"/>
      <point x="225" y="405" smooth="yes"/>
      <point x="298" y="405" type="curve" smooth="yes"/>
      <point x="351" y="405" smooth="yes"/>
      <point x="380" y="369" smooth="yes"/>
      <point x="380" y="305" type="curve" smooth="yes"/>
      <point x="380" y="30" type="line" smooth="yes"/>
      <point x="380" y="23" smooth="yes"/>
      <point x="374" y="18" smooth="yes"/>
      <point x="366" y="18" type="curve" smooth="yes"/>
      <point x="333" y="18" type="line"/>
      <point x="333" y="0" type="line"/>
      <point x="513" y="0" type="line"/>
      <point x="513" y="18" type="line"/>
      <point x="466" y="18" type="line" smooth="yes"/>
      <point x="458" y="18" smooth="yes"/>
      <point x="452" y="23" smooth="yes"/>
      <point x="452" y="30" type="curve" smooth="yes"/>
      <point x="452" y="292" type="line" smooth="yes"/>
      <point x="452" y="385" smooth="yes"/>
      <point x="404" y="444" smooth="yes"/>
      <point x="328" y="444" type="curve" smooth="yes"/>
      <point x="257" y="444"/>
      <point x="206" y="400"/>
      <point x="183" y="319" type="curve"/>
    </contour>
  </outline>
</glyph>
<glyph name="o" format="1">
  <advance width="485"/>
  <unicode hex="006F"/>
  <outline>
    <contour>
      <point x="40" y="216" type="curve" smooth="yes" name="hr00"/>
      <point x="40" y="71" smooth="yes"/>
      <point x="125" y="-12" smooth="yes"/>
      <point x="242" y="-12" type="curve" smooth="yes"/>
      <point x="359" y="-12" smooth="yes"/>
      <point x="445" y="71" smooth="yes"/>
      <point x="445" y="216" type="curve" smooth="yes"/>
      <point x="445" y="361" smooth="yes"/>
      <point x="359" y="444" smooth="yes"/>
      <point x="242" y="444" type="curve" smooth="yes"/>
      <point x="125" y="444" smooth="yes"/>
      <point x="40" y="361" smooth="yes"/>
    </contour>
    <contour>
      <point x="116" y="216" type="curve"/>
      <point x="116" y="347" smooth="yes"/>
      <point x="172" y="422" smooth="yes"/>
      <point x="242" y="422" type="curve" smooth="yes"/>
      <point x="312" y="422" smooth="yes"/>
      <point x="369" y="347" smooth="yes"/>
      <point x="369" y="216" type="curve" smooth="yes"/>
      <point x="369" y="85" smooth="yes"/>
      <point x="312" y="10" smooth="yes"/>
      <point x="242" y="10" type="curve" smooth="yes"/>
      <point x="172" y="10" smooth="yes"/>
      <point x="116" y="85" smooth="yes"/>
    </contour>
  </outline>
</glyph>
<glyph name="p" format="1">
  <advance width="500"/>
  <unicode hex="0070"/>
  <outline>
    <contour>
      <point x="91" y="-184" type="line" smooth="yes" name="hr00"/>
      <point x="91" y="-192" smooth="yes"/>
      <point x="85" y="-198" smooth="yes"/>
      <point x="77" y="-198" type="curve" smooth="yes"/>
      <point x="30" y="-198" type="line"/>
      <point x="30" y="-216" type="line"/>
      <point x="244" y="-216" type="line"/>
      <point x="244" y="-198" type="line"/>
      <point x="177" y="-198" type="line" smooth="yes"/>
      <point x="169" y="-198" smooth="yes"/>
      <point x="163" y="-192" smooth="yes"/>
      <point x="163" y="-184" type="curve" smooth="yes"/>
      <point x="163" y="15" type="line"/>
      <point x="193" y="-3" smooth="yes"/>
      <point x="227" y="-12" smooth="yes"/>
      <point x="263" y="-12" type="curve" smooth="yes"/>
      <point x="377" y="-12" smooth="yes"/>
      <point x="460" y="71" smooth="yes"/>
      <point x="460" y="216" type="curve" smooth="yes"/>
      <point x="460" y="358" smooth="yes"/>
      <point x="380" y="444" smooth="yes"/>
      <point x="301" y="444" type="curve" smooth="yes"/>
      <point x="244" y="444"/>
      <point x="187" y="399"/>
      <point x="163" y="298" type="curve"/>
      <point x="163" y="298"/>
      <point x="163" y="298"/>
      <point x="163" y="298" type="curve"/>
      <point x="163" y="438" type="line"/>
      <point x="151" y="435" smooth="yes"/>
      <point x="115" y="432" smooth="yes"/>
      <point x="79" y="432" type="curve" smooth="yes"/>
      <point x="30" y="432" type="line"/>
      <point x="30" y="414" type="line"/>
      <point x="77" y="414" type="line" smooth="yes"/>
      <point x="85" y="414" smooth="yes"/>
      <point x="91" y="408" smooth="yes"/>
      <point x="91" y="400" type="curve" smooth="yes"/>
    </contour>
    <contour>
      <point x="286" y="406" type="curve" smooth="yes"/>
      <point x="335" y="406" smooth="yes"/>
      <point x="384" y="341" smooth="yes"/>
      <point x="384" y="216" type="curve" smooth="yes"/>
      <point x="384" y="83" smooth="yes"/>
      <point x="329" y="13" smooth="yes"/>
      <point x="255" y="13" type="curve" smooth="yes"/>
      <point x="227" y="13"/>
      <point x="195" y="21"/>
      <point x="163" y="42" type="curve"/>
      <point x="163" y="177" type="line" smooth="yes"/>
      <point x="163" y="336" smooth="yes"/>
      <point x="227" y="406" smooth="yes"/>
    </contour>
  </outline>
</glyph>
<glyph name="q" format="1">
  <advance width="495"/>
  <unicode hex="0071"/>
  <outline>
    <contour>
      <point x="237" y="444" type="curve" smooth="yes"/>
      <point x="126" y="444" smooth="yes"/>
      <point x="40" y="358" smooth="yes"/>
      <point x="40" y="216" type="curve" smooth="yes"/>
      <point x="40" y="70" smooth="yes"/>
      <point x="118" y="-12" smooth="yes"/>
      <point x="198" y="-12" type="curve" smooth="yes"/>
      <point x="251" y="-12"/>
      <point x="305" y="23"/>
      <point x="337" y="98" type="curve"/>
      <point x="337" y="98"/>
      <point x="337" y="98"/>
      <point x="337" y="98" type="curve"/>
      <point x="337" y="-222" type="line"/>
      <point x="349" y="-219" smooth="yes"/>
      <point x="385" y="-216" smooth="yes"/>
      <point x="421" y="-216" type="curve" smooth="yes" name="hr01"/>
      <point x="470" y="-216" type="line"/>
      <point x="470" y="-198" type="line"/>
      <point x="423" y="-198" type="line" smooth="yes"/>
      <point x="415" y="-198" smooth="yes"/>
      <point x="409" y="-192" smooth="yes"/>
      <point x="409" y="-184" type="curve" smooth="yes"/>
      <point x="409" y="440" type="line"/>
      <point x="393" y="440" type="line"/>
      <point x="383" y="378" type="line"/>
      <point x="344" y="421" smooth="yes"/>
      <point x="293" y="444" smooth="yes"/>
    </contour>
    <contour>
      <point x="220" y="26" type="curve" smooth="yes"/>
      <point x="167" y="26" smooth="yes"/>
      <point x="116" y="90" smooth="yes"/>
      <point x="116" y="216" type="curve" smooth="yes"/>
      <point x="116" y="346" smooth="yes"/>
      <point x="171" y="414" smooth="yes"/>
      <point x="245" y="414" type="curve" smooth="yes"/>
      <point x="276" y="414"/>
      <point x="306" y="406"/>
      <point x="337" y="387" type="curve"/>
      <point x="337" y="153" type="line"/>
      <point x="313" y="67" smooth="yes"/>
      <point x="266" y="26" smooth="yes"/>
    </contour>
  </outline>
</glyph>
<glyph name="r" format="1">
  <advance width="388"/>
  <unicode hex="0072"/>
  <outline>
    <contour>
      <point x="383" y="332" type="curve" smooth="yes" name="hr00"/>
      <point x="383" y="391" smooth="yes"/>
      <point x="349" y="444" smooth="yes"/>
      <point x="293" y="444" type="curve" smooth="yes"/>
      <point x="247" y="444"/>
      <point x="200" y="407"/>
      <point x="178" y="310" type="curve"/>
      <point x="178" y="310"/>
      <point x="178" y="310"/>
      <point x="178" y="310" type="curve"/>
      <point x="178" y="438" type="line"/>
      <point x="166" y="435" smooth="yes"/>
      <point x="130" y="432" smooth="yes"/>
      <point x="94" y="432" type="curve" smooth="yes"/>
      <point x="45" y="432" type="line"/>
      <point x="45" y="414" type="line"/>
      <point x="92" y="414" type="line" smooth="yes"/>
      <point x="100" y="414" smooth="yes"/>
      <point x="106" y="408" smooth="yes"/>
      <point x="106" y="400" type="curve" smooth="yes"/>
      <point x="106" y="32" type="line" smooth="yes"/>
      <point x="106" y="24" smooth="yes"/>
      <point x="100" y="18" smooth="yes"/>
      <point x="92" y="18" type="curve" smooth="yes"/>
      <point x="45" y="18" type="line"/>
      <point x="45" y="0" type="line"/>
      <point x="259" y="0" type="line"/>
      <point x="259" y="18" type="line"/>
      <point x="192" y="18" type="line" smooth="yes"/>
      <point x="184" y="18" smooth="yes"/>
      <point x="178" y="24" smooth="yes"/>
      <point x="178" y="32" type="curve" smooth="yes"/>
      <point x="178" y="165" type="line" smooth="yes"/>
      <point x="178" y="333" smooth="yes"/>
      <point x="228" y="405" smooth="yes"/>
      <point x="272" y="405" type="curve" smooth="yes"/>
      <point x="290" y="405" smooth="yes"/>
      <point x="316" y="398" smooth="yes"/>
      <point x="316" y="352" type="curve" smooth="yes"/>
      <point x="316" y="333"/>
      <point x="311" y="311"/>
      <point x="303" y="293" type="curve"/>
      <point x="313" y="283" smooth="yes"/>
      <point x="331" y="278" smooth="yes"/>
      <point x="348" y="278" type="curve" smooth="yes"/>
      <point x="372" y="278" smooth="yes"/>
      <point x="383" y="303" smooth="yes"/>
    </contour>
  </outline>
</glyph>
<glyph name="s" format="1">
  <advance width="395"/>
  <unicode hex="0073"/>
  <outline>
    <contour>
      <point x="170" y="271" type="line" smooth="yes" name="hr00"/>
      <point x="131" y="286" smooth="yes"/>
      <point x="115" y="313" smooth="yes"/>
      <point x="115" y="340" type="curve" smooth="yes"/>
      <point x="115" y="379" smooth="yes"/>
      <point x="149" y="417" smooth="yes"/>
      <point x="200" y="417" type="curve" smooth="yes"/>
      <point x="247" y="417" smooth="yes"/>
      <point x="285" y="397" smooth="yes"/>
      <point x="291" y="345" type="curve" smooth="yes"/>
      <point x="298" y="293" type="line"/>
      <point x="316" y="293" type="line"/>
      <point x="316" y="333" type="line" smooth="yes"/>
      <point x="316" y="369"/>
      <point x="319" y="405"/>
      <point x="322" y="417" type="curve"/>
      <point x="306" y="423" smooth="yes"/>
      <point x="263" y="444" smooth="yes"/>
      <point x="200" y="444" type="curve" smooth="yes"/>
      <point x="109" y="444" smooth="yes"/>
      <point x="59" y="375" smooth="yes"/>
      <point x="59" y="310" type="curve" smooth="yes"/>
      <point x="59" y="266" smooth="yes"/>
      <point x="82" y="224" smooth="yes"/>
      <point x="130" y="206" type="curve" smooth="yes"/>
      <point x="234" y="167" type="line" smooth="yes"/>
      <point x="274" y="152" smooth="yes"/>
      <point x="291" y="125" smooth="yes"/>
      <point x="291" y="99" type="curve" smooth="yes"/>
      <point x="291" y="55" smooth="yes"/>
      <point x="250" y="12" smooth="yes"/>
      <point x="191" y="12" type="curve" smooth="yes"/>
      <point x="138" y="12" smooth="yes"/>
      <point x="93" y="30" smooth="yes"/>
      <point x="86" y="87" type="curve" smooth="yes"/>
      <point x="79" y="139" type="line"/>
      <point x="61" y="139" type="line"/>
      <point x="61" y="99" type="line" smooth="yes"/>
      <point x="61" y="63"/>
      <point x="58" y="27"/>
      <point x="55" y="15" type="curve"/>
      <point x="81" y="4" smooth="yes"/>
      <point x="123" y="-12" smooth="yes"/>
      <point x="191" y="-12" type="curve" smooth="yes"/>
      <point x="294" y="-12" smooth="yes"/>
      <point x="350" y="59" smooth="yes"/>
      <point x="350" y="126" type="curve" smooth="yes"/>
      <point x="350" y="170" smooth="yes"/>
      <point x="325" y="213" smooth="yes"/>
      <point x="274" y="232" type="curve" smooth="yes"/>
    </contour>
  </outline>
</glyph>
<glyph name="t" format="1">
  <advance width="273"/>
  <unicode hex="0074"/>
  <outline>
    <contour>
      <point x="138" y="538" type="line" name="hr00"/>
      <point x="120" y="486" smooth="yes"/>
      <point x="93" y="432" smooth="yes"/>
      <point x="69" y="432" type="curve" smooth="yes"/>
      <point x="20" y="432" type="line"/>
      <point x="20" y="414" type="line"/>
      <point x="67" y="414" type="line" smooth="yes"/>
      <point x="75" y="414" smooth="yes"/>
      <point x="81" y="408" smooth="yes"/>
      <point x="81" y="400" type="curve" smooth="yes"/>
      <point x="81" y="102" type="line" smooth="yes"/>
      <point x="81" y="22" smooth="yes"/>
      <point x="115" y="-12" smooth="yes"/>
      <point x="161" y="-12" type="curve" smooth="yes"/>
      <point x="205" y="-12" smooth="yes"/>
      <point x="238" y="17" smooth="yes"/>
      <point x="238" y="66" type="curve" smooth="yes"/>
      <point x="238" y="77"/>
      <point x="237" y="88"/>
      <point x="234" y="99" type="curve"/>
      <point x="215" y="96" type="line"/>
      <point x="217" y="86" smooth="yes"/>
      <point x="218" y="77" smooth="yes"/>
      <point x="218" y="68" type="curve" smooth="yes"/>
      <point x="218" y="39" smooth="yes"/>
      <point x="200" y="21" smooth="yes"/>
      <point x="183" y="21" type="curve" smooth="yes"/>
      <point x="168" y="21" smooth="yes"/>
      <point x="153" y="30" smooth="yes"/>
      <point x="153" y="75" type="curve" smooth="yes"/>
      <point x="153" y="414" type="line"/>
      <point x="253" y="414" type="line"/>
      <point x="253" y="432" type="line"/>
      <point x="153" y="432" type="line"/>
      <point x="153" y="538" type="line"/>
    </contour>
  </outline>
</glyph>
<glyph name="u" format="1">
  <advance width="518"/>
  <unicode hex="0075"/>
  <outline>
    <contour>
      <point x="427" y="438" type="line" name="hr00"/>
      <point x="411" y="434" smooth="yes"/>
      <point x="362" y="432" smooth="yes"/>
      <point x="318" y="432" type="curve" smooth="yes"/>
      <point x="294" y="432" type="line"/>
      <point x="294" y="414" type="line"/>
      <point x="341" y="414" type="line" smooth="yes"/>
      <point x="349" y="414" smooth="yes"/>
      <point x="355" y="408" smooth="yes"/>
      <point x="355" y="400" type="curve" smooth="yes"/>
      <point x="355" y="277" type="line" smooth="yes"/>
      <point x="355" y="109" smooth="yes"/>
      <point x="302" y="27" smooth="yes"/>
      <point x="235" y="27" type="curve" smooth="yes"/>
      <point x="188" y="27" smooth="yes"/>
      <point x="153" y="56" smooth="yes"/>
      <point x="153" y="127" type="curve" smooth="yes"/>
      <point x="153" y="438" type="line"/>
      <point x="141" y="435" smooth="yes"/>
      <point x="105" y="432" smooth="yes"/>
      <point x="69" y="432" type="curve" smooth="yes"/>
      <point x="20" y="432" type="line"/>
      <point x="20" y="414" type="line"/>
      <point x="67" y="414" type="line" smooth="yes"/>
      <point x="75" y="414" smooth="yes"/>
      <point x="81" y="408" smooth="yes"/>
      <point x="81" y="400" type="curve" smooth="yes"/>
      <point x="81" y="140" type="line" smooth="yes"/>
      <point x="81" y="29" smooth="yes"/>
      <point x="144" y="-12" smooth="yes"/>
      <point x="205" y="-12" type="curve" smooth="yes"/>
      <point x="264" y="-12"/>
      <point x="328" y="17"/>
      <point x="355" y="129" type="curve"/>
      <point x="355" y="129"/>
      <point x="355" y="129"/>
      <point x="355" y="129" type="curve"/>
      <point x="355" y="-6" type="line"/>
      <point x="367" y="-3" smooth="yes"/>
      <point x="403" y="0" smooth="yes"/>
      <point x="439" y="0" type="curve" smooth="yes"/>
      <point x="488" y="0" type="line"/>
      <point x="488" y="18" type="line"/>
      <point x="441" y="18" type="line" smooth="yes"/>
      <point x="433" y="18" smooth="yes"/>
      <point x="427" y="24" smooth="yes"/>
      <point x="427" y="32" type="curve" smooth="yes"/>
    </contour>
  </outline>
</glyph>
<glyph name="v" format="1">
  <advance width="407"/>
  <unicode hex="0076"/>
  <outline>
    <contour>
      <point x="290" y="432" type="line" name="hr00"/>
      <point x="290" y="414" type="line"/>
      <point x="341" y="414" type="line"/>
      <point x="225" y="98" type="line"/>
      <point x="110" y="414" type="line"/>
      <point x="160" y="414" type="line"/>
      <point x="160" y="432" type="line"/>
      <point x="-10" y="432" type="line"/>
      <point x="-10" y="414" type="line"/>
      <point x="27" y="414" type="line" smooth="yes"/>
      <point x="35" y="414" smooth="yes"/>
      <point x="38" y="408" smooth="yes"/>
      <point x="41" y="400" type="curve" smooth="yes"/>
      <point x="190" y="0" type="line"/>
      <point x="217" y="0" type="line"/>
      <point x="366" y="400" type="line" smooth="yes"/>
      <point x="369" y="408" smooth="yes"/>
      <point x="372" y="414" smooth="yes"/>
      <point x="380" y="414" type="curve" smooth="yes"/>
      <point x="417" y="414" type="line"/>
      <point x="417" y="432" type="line"/>
    </contour>
  </outline>
</glyph>
<glyph name="w" format="1">
  <advance width="586"/>
  <unicode hex="0077"/>
  <outline>
    <contour>
      <point x="469" y="432" type="line" name="hr00"/>
      <point x="469" y="414" type="line"/>
      <point x="520" y="414" type="line"/>
      <point x="427" y="109" type="line"/>
      <point x="328" y="414" type="line"/>
      <point x="298" y="414" type="line"/>
      <point x="199" y="107" type="line"/>
      <point x="109" y="414" type="line"/>
      <point x="159" y="414" type="line"/>
      <point x="159" y="432" type="line"/>
      <point x="-10" y="432" type="line"/>
      <point x="-10" y="414" type="line"/>
      <point x="27" y="414" type="line" smooth="yes"/>
      <point x="35" y="414" smooth="yes"/>
      <point x="39" y="408" smooth="yes"/>
      <point x="41" y="400" type="curve" smooth="yes"/>
      <point x="165" y="0" type="line"/>
      <point x="192" y="0" type="line"/>
      <point x="293" y="309" type="line"/>
      <point x="394" y="0" type="line"/>
      <point x="421" y="0" type="line"/>
      <point x="545" y="400" type="line" smooth="yes"/>
      <point x="548" y="408" smooth="yes"/>
      <point x="551" y="414" smooth="yes"/>
      <point x="559" y="414" type="curve" smooth="yes"/>
      <point x="596" y="414" type="line"/>
      <point x="596" y="432" type="line"/>
    </contour>
  </outline>
</glyph>
<glyph name="x" format="1">
  <advance width="430"/>
  <unicode hex="0078"/>
  <outline>
    <contour>
      <point x="286" y="432" type="line"/>
      <point x="286" y="414" type="line"/>
      <point x="337" y="414" type="line"/>
      <point x="234" y="258" type="line"/>
      <point x="129" y="438" type="line" name="hr01"/>
      <point x="117" y="435" smooth="yes"/>
      <point x="93" y="432" smooth="yes"/>
      <point x="57" y="432" type="curve" smooth="yes" name="hr02"/>
      <point x="10" y="432" type="line"/>
      <point x="10" y="414" type="line"/>
      <point x="51" y="414" type="line" smooth="yes"/>
      <point x="59" y="414" smooth="yes"/>
      <point x="62" y="411" smooth="yes"/>
      <point x="65" y="406" type="curve" smooth="yes"/>
      <point x="180" y="209" type="line"/>
      <point x="60" y="28" type="line" smooth="yes"/>
      <point x="53" y="18" smooth="yes"/>
      <point x="52" y="18" smooth="yes"/>
      <point x="42" y="18" type="curve" smooth="yes"/>
      <point x="5" y="18" type="line"/>
      <point x="5" y="0" type="line"/>
      <point x="139" y="0" type="line"/>
      <point x="139" y="18" type="line"/>
      <point x="88" y="18" type="line"/>
      <point x="196" y="182" type="line"/>
      <point x="306" y="-6" type="line" name="hr03"/>
      <point x="318" y="-3" smooth="yes"/>
      <point x="342" y="0" smooth="yes"/>
      <point x="378" y="0" type="curve" smooth="yes" name="hr04"/>
      <point x="425" y="0" type="line"/>
      <point x="425" y="18" type="line"/>
      <point x="384" y="18" type="line" smooth="yes"/>
      <point x="376" y="18" smooth="yes"/>
      <point x="373" y="21" smooth="yes"/>
      <point x="370" y="26" type="curve" smooth="yes"/>
      <point x="250" y="231" type="line"/>
      <point x="365" y="404" type="line" smooth="yes"/>
      <point x="372" y="414" smooth="yes"/>
      <point x="373" y="414" smooth="yes"/>
      <point x="383" y="414" type="curve" smooth="yes"/>
      <point x="420" y="414" type="line"/>
      <point x="420" y="432" type="line"/>
    </contour>
  </outline>
</glyph>
<glyph name="y" format="1">
  <advance width="407"/>
  <unicode hex="0079"/>
  <outline>
    <contour>
      <point x="290" y="432" type="line" name="hr00"/>
      <point x="290" y="414" type="line"/>
      <point x="341" y="414" type="line"/>
      <point x="225" y="98" type="line"/>
      <point x="110" y="414" type="line"/>
      <point x="160" y="414" type="line"/>
      <point x="160" y="432" type="line"/>
      <point x="-10" y="432" type="line"/>
      <point x="-10" y="414" type="line"/>
      <point x="27" y="414" type="line" smooth="yes"/>
      <point x="35" y="414" smooth="yes"/>
      <point x="38" y="408" smooth="yes"/>
      <point x="41" y="400" type="curve" smooth="yes"/>
      <point x="189" y="3" type="line"/>
      <point x="172" y="-43" type="line" smooth="yes"/>
      <point x="147" y="-112"/>
      <point x="106" y="-148"/>
      <point x="48" y="-173" type="curve"/>
      <point x="52" y="-199" smooth="yes"/>
      <point x="76" y="-228" smooth="yes"/>
      <point x="97" y="-228" type="curve" smooth="yes"/>
      <point x="136" y="-228" smooth="yes"/>
      <point x="162" y="-145" smooth="yes"/>
      <point x="193" y="-63" type="curve" smooth="yes"/>
      <point x="366" y="400" type="line" smooth="yes"/>
      <point x="369" y="408" smooth="yes"/>
      <point x="372" y="414" smooth="yes"/>
      <point x="380" y="414" type="curve" smooth="yes"/>
      <point x="417" y="414" type="line"/>
      <point x="417" y="432" type="line"/>
    </contour>
  </outline>
</glyph>
<glyph name="z" format="1">
  <advance width="405"/>
  <unicode hex="007A"/>
  <outline>
    <contour>
      <point x="111" y="18" type="line" name="hr00"/>
      <point x="364" y="414" type="line"/>
      <point x="364" y="432" type="line"/>
      <point x="121" y="432" type="line" smooth="yes"/>
      <point x="85" y="432"/>
      <point x="61" y="435"/>
      <point x="49" y="438" type="curve"/>
      <point x="52" y="426" smooth="yes"/>
      <point x="55" y="390" smooth="yes"/>
      <point x="55" y="354" type="curve" smooth="yes"/>
      <point x="55" y="304" type="line"/>
      <point x="73" y="304" type="line"/>
      <point x="88" y="400" type="line" smooth="yes"/>
      <point x="90" y="411" smooth="yes"/>
      <point x="96" y="414" smooth="yes"/>
      <point x="106" y="414" type="curve" smooth="yes"/>
      <point x="283" y="414" type="line"/>
      <point x="30" y="18" type="line"/>
      <point x="30" y="0" type="line"/>
      <point x="293" y="0" type="line" smooth="yes"/>
      <point x="329" y="0"/>
      <point x="353" y="-3"/>
      <point x="365" y="-6" type="curve"/>
      <point x="362" y="6" smooth="yes"/>
      <point x="359" y="42" smooth="yes"/>
      <point x="359" y="78" type="curve" smooth="yes"/>
      <point x="359" y="128" type="line"/>
      <point x="341" y="128" type="line"/>
      <point x="326" y="32" type="line" smooth="yes"/>
      <point x="324" y="21" smooth="yes"/>
      <point x="318" y="18" smooth="yes"/>
      <point x="308" y="18" type="curve" smooth="yes"/>
    </contour>
  </outline>
</glyph>
<glyph name="braceleft" format="1">
  <advance width="288"/>
  <unicode hex="007B"/>
  <outline>
    <contour>
      <point x="111" y="263" type="line" name="hr00"/>
      <point x="156" y="277" smooth="yes"/>
      <point x="179" y="306" smooth="yes"/>
      <point x="179" y="372" type="curve" smooth="yes"/>
      <point x="179" y="499" type="line" smooth="yes"/>
      <point x="179" y="567"/>
      <point x="189" y="573"/>
      <point x="248" y="620" type="curve"/>
      <point x="238" y="635" type="line"/>
      <point x="118" y="573" smooth="yes"/>
      <point x="102" y="567" smooth="yes"/>
      <point x="102" y="442" type="curve" smooth="yes"/>
      <point x="102" y="329" type="line" smooth="yes"/>
      <point x="102" y="295"/>
      <point x="93" y="268"/>
      <point x="45" y="268" type="curve"/>
      <point x="45" y="254" type="line"/>
      <point x="93" y="254" smooth="yes"/>
      <point x="102" y="227" smooth="yes"/>
      <point x="102" y="193" type="curve" smooth="yes"/>
      <point x="102" y="80" type="line" smooth="yes"/>
      <point x="102" y="-45"/>
      <point x="118" y="-51"/>
      <point x="238" y="-113" type="curve"/>
      <point x="248" y="-98" type="line"/>
      <point x="189" y="-51" smooth="yes"/>
      <point x="179" y="-45" smooth="yes"/>
      <point x="179" y="23" type="curve" smooth="yes"/>
      <point x="179" y="150" type="line" smooth="yes"/>
      <point x="179" y="216"/>
      <point x="156" y="245"/>
      <point x="111" y="259" type="curve"/>
    </contour>
  </outline>
</glyph>
<glyph name="braceright" format="1">
  <advance width="288"/>
  <unicode hex="007D"/>
  <outline>
    <contour>
      <point x="177" y="259" type="line" name="hr00"/>
      <point x="132" y="245" smooth="yes"/>
      <point x="109" y="216" smooth="yes"/>
      <point x="109" y="150" type="curve" smooth="yes"/>
      <point x="109" y="23" type="line" smooth="yes"/>
      <point x="109" y="-45"/>
      <point x="99" y="-51"/>
      <point x="40" y="-98" type="curve"/>
      <point x="50" y="-113" type="line"/>
      <point x="170" y="-51" smooth="yes"/>
      <point x="186" y="-45" smooth="yes"/>
      <point x="186" y="80" type="curve" smooth="yes"/>
      <point x="186" y="193" type="line" smooth="yes"/>
      <point x="186" y="227"/>
      <point x="195" y="254"/>
      <point x="243" y="254" type="curve"/>
      <point x="243" y="268" type="line"/>
      <point x="195" y="268" smooth="yes"/>
      <point x="186" y="295" smooth="yes"/>
      <point x="186" y="329" type="curve" smooth="yes"/>
      <point x="186" y="442" type="line" smooth="yes"/>
      <point x="186" y="567"/>
      <point x="170" y="573"/>
      <point x="50" y="635" type="curve"/>
      <point x="40" y="620" type="line"/>
      <point x="99" y="573" smooth="yes"/>
      <point x="109" y="567" smooth="yes"/>
      <point x="109" y="499" type="curve" smooth="yes"/>
      <point x="109" y="372" type="line" smooth="yes"/>
      <point x="109" y="306"/>
      <point x="132" y="277"/>
      <point x="177" y="263" type="curve"/>
    </contour>
  </outline>
</glyph>
<glyph name="asciitilde" format="1">
  <advance width="532"/>
  <unicode hex="007E"/>
  <outline>
    <contour>
      <point x="448" y="323" type="line" name="hr00"/>
      <point x="421" y="305" smooth="yes"/>
      <point x="394" y="296" smooth="yes"/>
      <point x="362" y="296" type="curve" smooth="yes"/>
      <point x="302" y="296" smooth="yes"/>
      <point x="239" y="321" smooth="yes"/>
      <point x="175" y="321" type="curve" smooth="yes"/>
      <point x="136" y="321"/>
      <point x="98" y="310"/>
      <point x="62" y="277" type="curve"/>
      <point x="83" y="244" type="line"/>
      <point x="110" y="262" smooth="yes"/>
      <point x="136" y="269" smooth="yes"/>
      <point x="167" y="269" type="curve" smooth="yes"/>
      <point x="226" y="269" smooth="yes"/>
      <point x="288" y="244" smooth="yes"/>
      <point x="352" y="244" type="curve" smooth="yes"/>
      <point x="390" y="244"/>
      <point x="431" y="255"/>
      <point x="468" y="290" type="curve"/>
    </contour>
  </outline>
</glyph>
<glyph name="exclamdown" format="1">
  <advance width="274"/>
  <unicode hex="00A1"/>
  <outline>
    <contour>
      <point x="185" y="396" type="curve" smooth="yes" name="hr00"/>
      <point x="185" y="422" smooth="yes"/>
      <point x="163" y="444" smooth="yes"/>
      <point x="137" y="444" type="curve" smooth="yes"/>
      <point x="111" y="444" smooth="yes"/>
      <point x="89" y="422" smooth="yes"/>
      <point x="89" y="396" type="curve" smooth="yes"/>
      <point x="89" y="370" smooth="yes"/>
      <point x="111" y="348" smooth="yes"/>
      <point x="137" y="348" type="curve" smooth="yes"/>
      <point x="163" y="348" smooth="yes"/>
      <point x="185" y="370" smooth="yes"/>
    </contour>
    <contour>
      <point x="124" y="262" type="line"/>
      <point x="113" y="112" smooth="yes"/>
      <point x="91" y="-121" smooth="yes"/>
      <point x="91" y="-151" type="curve" smooth="yes"/>
      <point x="91" y="-188" smooth="yes"/>
      <point x="107" y="-210" smooth="yes"/>
      <point x="137" y="-210" type="curve" smooth="yes"/>
      <point x="167" y="-210" smooth="yes"/>
      <point x="184" y="-188" smooth="yes"/>
      <point x="184" y="-151" type="curve" smooth="yes"/>
      <point x="184" y="-121"/>
      <point x="160" y="112"/>
      <point x="150" y="262" type="curve"/>
    </contour>
  </outline>
</glyph>
<glyph name="cent" format="1">
  <advance width="434"/>
  <unicode hex="00A2"/>
  <outline>
    <contour>
      <point x="262" y="-55" type="line" name="hr00"/>
      <point x="262" y="64" type="line"/>
      <point x="330" y="69"/>
      <point x="391" y="111"/>
      <point x="408" y="187" type="curve"/>
      <point x="388" y="192" type="line"/>
      <point x="371" y="125" smooth="yes"/>
      <point x="316" y="89" smooth="yes"/>
      <point x="248" y="89" type="curve" smooth="yes"/>
      <point x="173" y="89" smooth="yes"/>
      <point x="119" y="160" smooth="yes"/>
      <point x="119" y="283" type="curve" smooth="yes"/>
      <point x="119" y="407" smooth="yes"/>
      <point x="174" y="478" smooth="yes"/>
      <point x="251" y="478" type="curve" smooth="yes"/>
      <point x="298" y="478" smooth="yes"/>
      <point x="317" y="439" smooth="yes"/>
      <point x="317" y="400" type="curve" smooth="yes"/>
      <point x="317" y="382"/>
      <point x="312" y="364"/>
      <point x="304" y="346" type="curve"/>
      <point x="312" y="339" smooth="yes"/>
      <point x="330" y="331" smooth="yes"/>
      <point x="350" y="331" type="curve" smooth="yes"/>
      <point x="375" y="331" smooth="yes"/>
      <point x="386" y="356" smooth="yes"/>
      <point x="386" y="386" type="curve" smooth="yes"/>
      <point x="386" y="445"/>
      <point x="351" y="498"/>
      <point x="262" y="502" type="curve"/>
      <point x="262" y="621" type="line"/>
      <point x="231" y="621" type="line"/>
      <point x="231" y="502" type="line"/>
      <point x="124" y="493" smooth="yes"/>
      <point x="41" y="413" smooth="yes"/>
      <point x="41" y="283" type="curve" smooth="yes"/>
      <point x="41" y="152"/>
      <point x="124" y="72"/>
      <point x="231" y="64" type="curve"/>
      <point x="231" y="-55" type="line"/>
    </contour>
  </outline>
</glyph>
<glyph name="sterling" format="1">
  <advance width="463"/>
  <unicode hex="00A3"/>
  <outline>
    <contour>
      <point x="332" y="278" type="line"/>
      <point x="186" y="278" type="line"/>
      <point x="176" y="325" smooth="yes"/>
      <point x="167" y="371" smooth="yes"/>
      <point x="167" y="416" type="curve" smooth="yes"/>
      <point x="167" y="522" smooth="yes"/>
      <point x="217" y="551" smooth="yes"/>
      <point x="268" y="551" type="curve" smooth="yes"/>
      <point x="323" y="551" smooth="yes"/>
      <point x="345" y="512" smooth="yes"/>
      <point x="345" y="468" type="curve" smooth="yes"/>
      <point x="345" y="450"/>
      <point x="340" y="432"/>
      <point x="331" y="414" type="curve"/>
      <point x="340" y="407" smooth="yes"/>
      <point x="357" y="399" smooth="yes"/>
      <point x="378" y="399" type="curve" smooth="yes"/>
      <point x="402" y="399" smooth="yes"/>
      <point x="414" y="424" smooth="yes"/>
      <point x="414" y="454" type="curve" smooth="yes"/>
      <point x="414" y="520" smooth="yes"/>
      <point x="378" y="579" smooth="yes"/>
      <point x="276" y="579" type="curve" smooth="yes"/>
      <point x="200" y="579" smooth="yes"/>
      <point x="97" y="518" smooth="yes"/>
      <point x="97" y="383" type="curve" smooth="yes"/>
      <point x="97" y="355"/>
      <point x="105" y="318"/>
      <point x="115" y="278" type="curve"/>
      <point x="37" y="278" type="line"/>
      <point x="37" y="247" type="line"/>
      <point x="124" y="247" type="line"/>
      <point x="140" y="189"/>
      <point x="158" y="129"/>
      <point x="161" y="89" type="curve" name="hr01"/>
      <point x="143" y="94" smooth="yes"/>
      <point x="127" y="98" smooth="yes"/>
      <point x="114" y="98" type="curve" smooth="yes"/>
      <point x="64" y="98" smooth="yes"/>
      <point x="40" y="69" smooth="yes"/>
      <point x="40" y="40" type="curve" smooth="yes"/>
      <point x="40" y="14" smooth="yes"/>
      <point x="61" y="-12" smooth="yes"/>
      <point x="103" y="-12" type="curve" smooth="yes"/>
      <point x="137" y="-12"/>
      <point x="171" y="6"/>
      <point x="191" y="45" type="curve"/>
      <point x="224" y="18" smooth="yes"/>
      <point x="261" y="-12" smooth="yes"/>
      <point x="325" y="-12" type="curve" smooth="yes"/>
      <point x="376" y="-12"/>
      <point x="426" y="22"/>
      <point x="440" y="144" type="curve"/>
      <point x="415" y="148" type="line"/>
      <point x="401" y="78" smooth="yes"/>
      <point x="367" y="57" smooth="yes"/>
      <point x="323" y="57" type="curve" smooth="yes"/>
      <point x="282" y="57"/>
      <point x="239" y="67"/>
      <point x="202" y="78" type="curve"/>
      <point x="206" y="92" smooth="yes"/>
      <point x="208" y="109" smooth="yes"/>
      <point x="208" y="127" type="curve" smooth="yes"/>
      <point x="208" y="167"/>
      <point x="201" y="207"/>
      <point x="193" y="247" type="curve"/>
      <point x="332" y="247" type="line"/>
    </contour>
    <contour>
      <point x="116" y="7" type="curve" smooth="yes"/>
      <point x="94" y="7" smooth="yes"/>
      <point x="83" y="24" smooth="yes"/>
      <point x="83" y="42" type="curve" smooth="yes"/>
      <point x="83" y="60" smooth="yes"/>
      <point x="95" y="78" smooth="yes"/>
      <point x="119" y="78" type="curve" smooth="yes"/>
      <point x="134" y="78"/>
      <point x="148" y="73"/>
      <point x="161" y="65" type="curve"/>
      <point x="158" y="31" smooth="yes"/>
      <point x="142" y="7" smooth="yes"/>
    </contour>
  </outline>
</glyph>
<glyph name="currency" format="1">
  <advance width="463"/>
  <unicode hex="00A4"/>
  <outline>
    <contour>
      <point x="72" y="294" type="curve" smooth="yes" name="hr00"/>
      <point x="72" y="259"/>
      <point x="83" y="227"/>
      <point x="101" y="201" type="curve"/>
      <point x="26" y="126" type="line"/>
      <point x="64" y="89" type="line"/>
      <point x="139" y="164" type="line"/>
      <point x="165" y="145" smooth="yes"/>
      <point x="197" y="134" smooth="yes"/>
      <point x="232" y="134" type="curve" smooth="yes"/>
      <point x="266" y="134"/>
      <point x="299" y="145"/>
      <point x="325" y="164" type="curve"/>
      <point x="400" y="89" type="line"/>
      <point x="437" y="127" type="line"/>
      <point x="362" y="201" type="line"/>
      <point x="381" y="227" smooth="yes"/>
      <point x="392" y="259" smooth="yes"/>
      <point x="392" y="294" type="curve" smooth="yes"/>
      <point x="392" y="328"/>
      <point x="381" y="361"/>
      <point x="362" y="387" type="curve"/>
      <point x="437" y="462" type="line"/>
      <point x="400" y="500" type="line"/>
      <point x="324" y="424" type="line"/>
      <point x="298" y="443" smooth="yes"/>
      <point x="266" y="454" smooth="yes"/>
      <point x="232" y="454" type="curve" smooth="yes"/>
      <point x="197" y="454"/>
      <point x="165" y="443"/>
      <point x="139" y="424" type="curve"/>
      <point x="64" y="500" type="line"/>
      <point x="26" y="463" type="line"/>
      <point x="102" y="387" type="line"/>
      <point x="83" y="361" smooth="yes"/>
      <point x="72" y="328" smooth="yes"/>
    </contour>
    <contour>
      <point x="102" y="294" type="curve" smooth="yes"/>
      <point x="102" y="366" smooth="yes"/>
      <point x="160" y="424" smooth="yes"/>
      <point x="232" y="424" type="curve" smooth="yes"/>
      <point x="304" y="424" smooth="yes"/>
      <point x="362" y="366" smooth="yes"/>
      <point x="362" y="294" type="curve" smooth="yes"/>
      <point x="362" y="222" smooth="yes"/>
      <point x="304" y="164" smooth="yes"/>
      <point x="232" y="164" type="curve" smooth="yes"/>
      <point x="160" y="164" smooth="yes"/>
      <point x="102" y="222" smooth="yes"/>
    </contour>
  </outline>
</glyph>
<glyph name="yen" format="1">
  <advance width="463"/>
  <unicode hex="00A5"/>
  <outline>
    <contour>
      <point x="425" y="276" type="line" name="hr00"/>
      <point x="306" y="276" type="line"/>
      <point x="322" y="312" type="line"/>
      <point x="425" y="312" type="line"/>
      <point x="425" y="342" type="line"/>
      <point x="335" y="342" type="line"/>
      <point x="420" y="534" type="line" smooth="yes"/>
      <point x="423" y="542" smooth="yes"/>
      <point x="428" y="548" smooth="yes"/>
      <point x="439" y="548" type="curve" smooth="yes"/>
      <point x="456" y="548" type="line"/>
      <point x="456" y="566" type="line"/>
      <point x="355" y="566" type="line"/>
      <point x="355" y="548" type="line"/>
      <point x="390" y="548" type="line"/>
      <point x="262" y="256" type="line"/>
      <point x="260" y="256"/>
      <point x="259" y="256"/>
      <point x="257" y="256" type="curve"/>
      <point x="118" y="548" type="line"/>
      <point x="153" y="548" type="line"/>
      <point x="153" y="566" type="line"/>
      <point x="7" y="566" type="line"/>
      <point x="7" y="548" type="line"/>
      <point x="24" y="548" type="line" smooth="yes"/>
      <point x="35" y="548" smooth="yes"/>
      <point x="39" y="542" smooth="yes"/>
      <point x="43" y="534" type="curve" smooth="yes"/>
      <point x="136" y="342" type="line"/>
      <point x="51" y="342" type="line"/>
      <point x="51" y="312" type="line"/>
      <point x="150" y="312" type="line"/>
      <point x="168" y="276" type="line"/>
      <point x="51" y="276" type="line"/>
      <point x="51" y="246" type="line"/>
      <point x="182" y="246" type="line"/>
      <point x="200" y="210" type="line"/>
      <point x="200" y="32" type="line" smooth="yes"/>
      <point x="200" y="24" smooth="yes"/>
      <point x="194" y="18" smooth="yes"/>
      <point x="186" y="18" type="curve" smooth="yes"/>
      <point x="111" y="18" type="line"/>
      <point x="111" y="0" type="line"/>
      <point x="365" y="0" type="line"/>
      <point x="365" y="18" type="line"/>
      <point x="290" y="18" type="line" smooth="yes"/>
      <point x="282" y="18" smooth="yes"/>
      <point x="276" y="24" smooth="yes"/>
      <point x="276" y="32" type="curve" smooth="yes"/>
      <point x="276" y="208" type="line"/>
      <point x="293" y="246" type="line"/>
      <point x="425" y="246" type="line"/>
    </contour>
  </outline>
</glyph>
<glyph name="section" format="1">
  <advance width="415"/>
  <unicode hex="00A7"/>
  <outline>
    <contour>
      <point x="59" y="235" type="curve" smooth="yes" name="hr00"/>
      <point x="59" y="188" smooth="yes"/>
      <point x="84" y="143" smooth="yes"/>
      <point x="135" y="124" type="curve" smooth="yes"/>
      <point x="246" y="82" type="line" smooth="yes"/>
      <point x="289" y="66" smooth="yes"/>
      <point x="307" y="37" smooth="yes"/>
      <point x="307" y="9" type="curve" smooth="yes"/>
      <point x="307" y="-39" smooth="yes"/>
      <point x="263" y="-86" smooth="yes"/>
      <point x="200" y="-86" type="curve" smooth="yes"/>
      <point x="143" y="-86" smooth="yes"/>
      <point x="97" y="-65" smooth="yes"/>
      <point x="88" y="-4" type="curve" smooth="yes"/>
      <point x="80" y="52" type="line"/>
      <point x="61" y="52" type="line"/>
      <point x="61" y="9" type="line" smooth="yes"/>
      <point x="61" y="-29"/>
      <point x="58" y="-68"/>
      <point x="55" y="-81" type="curve"/>
      <point x="82" y="-92" smooth="yes"/>
      <point x="127" y="-110" smooth="yes"/>
      <point x="200" y="-110" type="curve" smooth="yes"/>
      <point x="310" y="-110" smooth="yes"/>
      <point x="370" y="-34" smooth="yes"/>
      <point x="370" y="38" type="curve" smooth="yes"/>
      <point x="370" y="85" smooth="yes"/>
      <point x="345" y="133" smooth="yes"/>
      <point x="289" y="152" type="curve" smooth="yes"/>
      <point x="260" y="162" type="line"/>
      <point x="332" y="184" smooth="yes"/>
      <point x="370" y="244" smooth="yes"/>
      <point x="370" y="301" type="curve" smooth="yes"/>
      <point x="370" y="348" smooth="yes"/>
      <point x="344" y="394" smooth="yes"/>
      <point x="289" y="415" type="curve" smooth="yes"/>
      <point x="206" y="446" type="line"/>
      <point x="144" y="466" smooth="yes"/>
      <point x="119" y="490" smooth="yes"/>
      <point x="119" y="530" type="curve" smooth="yes"/>
      <point x="119" y="573" smooth="yes"/>
      <point x="155" y="615" smooth="yes"/>
      <point x="210" y="615" type="curve" smooth="yes"/>
      <point x="260" y="615" smooth="yes"/>
      <point x="299" y="593" smooth="yes"/>
      <point x="307" y="538" type="curve" smooth="yes"/>
      <point x="315" y="482" type="line"/>
      <point x="334" y="482" type="line"/>
      <point x="334" y="525" type="line" smooth="yes"/>
      <point x="334" y="563"/>
      <point x="337" y="602"/>
      <point x="340" y="613" type="curve"/>
      <point x="323" y="619" smooth="yes"/>
      <point x="277" y="642" smooth="yes"/>
      <point x="210" y="642" type="curve" smooth="yes"/>
      <point x="112" y="642"/>
      <point x="59" y="568"/>
      <point x="59" y="498" type="curve"/>
      <point x="58" y="450" smooth="yes"/>
      <point x="84" y="407" smooth="yes"/>
      <point x="135" y="387" type="curve" smooth="yes"/>
      <point x="170" y="373" type="line"/>
      <point x="97" y="356" smooth="yes"/>
      <point x="59" y="295" smooth="yes"/>
    </contour>
    <contour>
      <point x="119" y="267" type="curve" smooth="yes"/>
      <point x="119" y="309" smooth="yes"/>
      <point x="155" y="349" smooth="yes"/>
      <point x="210" y="349" type="curve" smooth="yes"/>
      <point x="279" y="349" smooth="yes"/>
      <point x="307" y="302" smooth="yes"/>
      <point x="307" y="272" type="curve" smooth="yes"/>
      <point x="307" y="228"/>
      <point x="269" y="186"/>
      <point x="213" y="180" type="curve"/>
      <point x="178" y="193" type="line" smooth="yes"/>
      <point x="136" y="208" smooth="yes"/>
      <point x="119" y="237" smooth="yes"/>
    </contour>
  </outline>
</glyph>
<glyph name="dieresis" format="1">
  <advance width="268"/>
  <unicode hex="00A8"/>
  <outline>
    <contour>
      <point x="0" y="576" type="curve" smooth="yes" name="hr00"/>
      <point x="0" y="550" smooth="yes"/>
      <point x="21" y="529" smooth="yes"/>
      <point x="47" y="529" type="curve" smooth="yes"/>
      <point x="73" y="529" smooth="yes"/>
      <point x="94" y="550" smooth="yes"/>
      <point x="94" y="576" type="curve" smooth="yes"/>
      <point x="94" y="602" smooth="yes"/>
      <point x="73" y="623" smooth="yes"/>
      <point x="47" y="623" type="curve" smooth="yes"/>
      <point x="21" y="623" smooth="yes"/>
      <point x="0" y="602" smooth="yes"/>
    </contour>
    <contour>
      <point x="174" y="576" type="curve" smooth="yes"/>
      <point x="174" y="550" smooth="yes"/>
      <point x="195" y="529" smooth="yes"/>
      <point x="221" y="529" type="curve" smooth="yes"/>
      <point x="247" y="529" smooth="yes"/>
      <point x="268" y="550" smooth="yes"/>
      <point x="268" y="576" type="curve" smooth="yes"/>
      <point x="268" y="602" smooth="yes"/>
      <point x="247" y="623" smooth="yes"/>
      <point x="221" y="623" type="curve" smooth="yes"/>
      <point x="195" y="623" smooth="yes"/>
      <point x="174" y="602" smooth="yes"/>
    </contour>
  </outline>
</glyph>
<glyph name="copyright" format="1">
  <advance width="544"/>
  <unicode hex="00A9"/>
  <outline>
    <contour>
      <point x="30" y="418" type="curve" smooth="yes" name="hr00"/>
      <point x="30" y="285" smooth="yes"/>
      <point x="139" y="176" smooth="yes"/>
      <point x="272" y="176" type="curve" smooth="yes"/>
      <point x="405" y="176" smooth="yes"/>
      <point x="514" y="285" smooth="yes"/>
      <point x="514" y="418" type="curve" smooth="yes"/>
      <point x="514" y="551" smooth="yes"/>
      <point x="405" y="660" smooth="yes"/>
      <point x="272" y="660" type="curve" smooth="yes"/>
      <point x="139" y="660" smooth="yes"/>
      <point x="30" y="551" smooth="yes"/>
    </contour>
    <contour>
      <point x="55" y="418" type="curve" smooth="yes"/>
      <point x="55" y="537" smooth="yes"/>
      <point x="153" y="635" smooth="yes"/>
      <point x="272" y="635" type="curve" smooth="yes"/>
      <point x="391" y="635" smooth="yes"/>
      <point x="489" y="537" smooth="yes"/>
      <point x="489" y="418" type="curve" smooth="yes"/>
      <point x="489" y="299" smooth="yes"/>
      <point x="391" y="201" smooth="yes"/>
      <point x="272" y="201" type="curve" smooth="yes"/>
      <point x="153" y="201" smooth="yes"/>
      <point x="55" y="299" smooth="yes"/>
    </contour>
    <contour>
      <point x="350" y="281" type="curve" smooth="yes"/>
      <point x="356" y="281" smooth="yes"/>
      <point x="359" y="277" smooth="yes"/>
      <point x="360" y="271" type="curve" smooth="yes"/>
      <point x="362" y="260" type="line"/>
      <point x="374" y="260" type="line"/>
      <point x="374" y="349" type="line"/>
      <point x="362" y="349" type="line"/>
      <point x="355" y="296" smooth="yes"/>
      <point x="313" y="276" smooth="yes"/>
      <point x="272" y="276" type="curve" smooth="yes"/>
      <point x="218" y="276" smooth="yes"/>
      <point x="179" y="328" smooth="yes"/>
      <point x="179" y="418" type="curve" smooth="yes"/>
      <point x="179" y="507" smooth="yes"/>
      <point x="217" y="560" smooth="yes"/>
      <point x="272" y="560" type="curve" smooth="yes"/>
      <point x="313" y="560"/>
      <point x="355" y="541"/>
      <point x="362" y="487" type="curve"/>
      <point x="374" y="487" type="line"/>
      <point x="374" y="581" type="line"/>
      <point x="362" y="581" type="line"/>
      <point x="360" y="572" smooth="yes"/>
      <point x="361" y="560" smooth="yes"/>
      <point x="350" y="560" type="curve" smooth="yes"/>
      <point x="336" y="560" smooth="yes"/>
      <point x="313" y="583" smooth="yes"/>
      <point x="272" y="583" type="curve" smooth="yes"/>
      <point x="186" y="583" smooth="yes"/>
      <point x="125" y="523" smooth="yes"/>
      <point x="125" y="418" type="curve" smooth="yes"/>
      <point x="125" y="313" smooth="yes"/>
      <point x="189" y="254" smooth="yes"/>
      <point x="272" y="254" type="curve" smooth="yes"/>
      <point x="319" y="254" smooth="yes"/>
      <point x="341" y="281" smooth="yes"/>
    </contour>
  </outline>
</glyph>
<glyph name="ordfeminine" format="1">
  <advance width="275"/>
  <unicode hex="00AA"/>
  <outline>
    <contour>
      <point x="85" y="593" type="curve" smooth="yes"/>
      <point x="85" y="618" smooth="yes"/>
      <point x="98" y="634" smooth="yes"/>
      <point x="122" y="634" type="curve" smooth="yes"/>
      <point x="154" y="634" smooth="yes"/>
      <point x="168" y="605" smooth="yes"/>
      <point x="168" y="564" type="curve" smooth="yes"/>
      <point x="168" y="517" type="line"/>
      <point x="161" y="518" smooth="yes"/>
      <point x="148" y="519" smooth="yes"/>
      <point x="133" y="519" type="curve" smooth="yes"/>
      <point x="55" y="519" smooth="yes"/>
      <point x="20" y="477" smooth="yes"/>
      <point x="20" y="438" type="curve" smooth="yes" name="hr01"/>
      <point x="20" y="397" smooth="yes"/>
      <point x="51" y="376" smooth="yes"/>
      <point x="85" y="376" type="curve" smooth="yes" name="hr02"/>
      <point x="117" y="376"/>
      <point x="152" y="395"/>
      <point x="168" y="435" type="curve"/>
      <point x="172" y="395" smooth="yes"/>
      <point x="193" y="375" smooth="yes"/>
      <point x="220" y="375" type="curve" smooth="yes" name="hr03"/>
      <point x="256" y="375" smooth="yes"/>
      <point x="270" y="398" smooth="yes"/>
      <point x="270" y="424" type="curve" smooth="yes"/>
      <point x="270" y="429"/>
      <point x="269" y="435"/>
      <point x="268" y="441" type="curve"/>
      <point x="262" y="441"/>
      <point x="256" y="440"/>
      <point x="250" y="440" type="curve" name="hr04"/>
      <point x="251" y="435" smooth="yes"/>
      <point x="252" y="429" smooth="yes"/>
      <point x="252" y="423" type="curve" smooth="yes"/>
      <point x="252" y="409" smooth="yes"/>
      <point x="247" y="395" smooth="yes"/>
      <point x="233" y="395" type="curve" smooth="yes"/>
      <point x="226" y="395" smooth="yes"/>
      <point x="219" y="402" smooth="yes"/>
      <point x="219" y="422" type="curve" smooth="yes"/>
      <point x="219" y="550" type="line" smooth="yes"/>
      <point x="219" y="603" smooth="yes"/>
      <point x="190" y="638" smooth="yes"/>
      <point x="143" y="646" type="curve" smooth="yes"/>
      <point x="136" y="647" smooth="yes"/>
      <point x="129" y="648" smooth="yes"/>
      <point x="122" y="648" type="curve" smooth="yes"/>
      <point x="63" y="648" smooth="yes"/>
      <point x="37" y="620" smooth="yes"/>
      <point x="37" y="581" type="curve" smooth="yes"/>
      <point x="37" y="564" smooth="yes"/>
      <point x="44" y="549" smooth="yes"/>
      <point x="62" y="549" type="curve" smooth="yes"/>
      <point x="74" y="549"/>
      <point x="86" y="552"/>
      <point x="93" y="559" type="curve"/>
      <point x="88" y="570" smooth="yes"/>
      <point x="85" y="583" smooth="yes"/>
    </contour>
    <contour>
      <point x="102" y="398" type="curve" smooth="yes"/>
      <point x="82" y="398" smooth="yes"/>
      <point x="71" y="419" smooth="yes"/>
      <point x="71" y="441" type="curve" smooth="yes" name="hr05"/>
      <point x="71" y="484" smooth="yes"/>
      <point x="110" y="505" smooth="yes"/>
      <point x="149" y="505" type="curve" smooth="yes"/>
      <point x="154" y="505"/>
      <point x="160" y="505"/>
      <point x="167" y="504" type="curve"/>
      <point x="164" y="431" smooth="yes"/>
      <point x="132" y="398" smooth="yes"/>
    </contour>
  </outline>
</glyph>
<glyph name="guillemotleft" format="1">
  <advance width="395"/>
  <unicode hex="00AB"/>
  <outline>
    <contour>
      <point x="179" y="225" type="line" name="hr00"/>
      <point x="339" y="54" type="line"/>
      <point x="355" y="68" type="line"/>
      <point x="261" y="231" type="line"/>
      <point x="355" y="394" type="line"/>
      <point x="339" y="408" type="line"/>
      <point x="179" y="237" type="line"/>
    </contour>
    <contour>
      <point x="30" y="225" type="line"/>
      <point x="190" y="54" type="line"/>
      <point x="206" y="68" type="line"/>
      <point x="112" y="231" type="line"/>
      <point x="206" y="394" type="line"/>
      <point x="190" y="408" type="line"/>
      <point x="30" y="237" type="line"/>
    </contour>
  </outline>
</glyph>
<glyph name="logicalnot" format="1">
  <advance width="532"/>
  <unicode hex="00AC"/>
  <outline>
    <contour>
      <point x="462" y="131" type="line" name="hr00"/>
      <point x="462" y="310" type="line"/>
      <point x="70" y="310" type="line"/>
      <point x="70" y="257" type="line"/>
      <point x="409" y="257" type="line"/>
      <point x="409" y="131" type="line"/>
    </contour>
  </outline>
</glyph>
<glyph name="registered" format="1">
  <advance width="544"/>
  <unicode hex="00AE"/>
  <outline>
    <contour>
      <point x="30" y="418" type="curve" smooth="yes" name="hr00"/>
      <point x="30" y="285" smooth="yes"/>
      <point x="139" y="176" smooth="yes"/>
      <point x="272" y="176" type="curve" smooth="yes"/>
      <point x="405" y="176" smooth="yes"/>
      <point x="514" y="285" smooth="yes"/>
      <point x="514" y="418" type="curve" smooth="yes"/>
      <point x="514" y="551" smooth="yes"/>
      <point x="405" y="660" smooth="yes"/>
      <point x="272" y="660" type="curve" smooth="yes"/>
      <point x="139" y="660" smooth="yes"/>
      <point x="30" y="551" smooth="yes"/>
    </contour>
    <contour>
      <point x="55" y="418" type="curve" smooth="yes"/>
      <point x="55" y="537" smooth="yes"/>
      <point x="153" y="635" smooth="yes"/>
      <point x="272" y="635" type="curve" smooth="yes"/>
      <point x="391" y="635" smooth="yes"/>
      <point x="489" y="537" smooth="yes"/>
      <point x="489" y="418" type="curve" smooth="yes"/>
      <point x="489" y="299" smooth="yes"/>
      <point x="391" y="201" smooth="yes"/>
      <point x="272" y="201" type="curve" smooth="yes"/>
      <point x="153" y="201" smooth="yes"/>
      <point x="55" y="299" smooth="yes"/>
    </contour>
    <contour>
      <point x="279" y="276" type="line"/>
      <point x="254" y="276" type="line" smooth="yes"/>
      <point x="246" y="276" smooth="yes"/>
      <point x="240" y="282" smooth="yes"/>
      <point x="240" y="290" type="curve" smooth="yes"/>
      <point x="240" y="399" type="line"/>
      <point x="269" y="399" type="line"/>
      <point x="293" y="352"/>
      <point x="317" y="305"/>
      <point x="341" y="258" type="curve"/>
      <point x="348" y="260" smooth="yes"/>
      <point x="364" y="262" smooth="yes"/>
      <point x="379" y="262" type="curve" smooth="yes"/>
      <point x="388" y="262"/>
      <point x="398" y="262"/>
      <point x="407" y="262" type="curve"/>
      <point x="407" y="276" type="line"/>
      <point x="405" y="276" smooth="yes"/>
      <point x="403" y="276" smooth="yes"/>
      <point x="401" y="276" type="curve" smooth="yes"/>
      <point x="399" y="276" smooth="yes"/>
      <point x="398" y="276" smooth="yes"/>
      <point x="396" y="276" type="curve" smooth="yes"/>
      <point x="380" y="276"/>
      <point x="338" y="372"/>
      <point x="320" y="406" type="curve"/>
      <point x="357" y="419" smooth="yes"/>
      <point x="383" y="447" smooth="yes"/>
      <point x="383" y="489" type="curve" smooth="yes"/>
      <point x="383" y="545" smooth="yes"/>
      <point x="334" y="579" smooth="yes"/>
      <point x="278" y="579" type="curve" smooth="yes"/>
      <point x="157" y="579" type="line"/>
      <point x="157" y="565" type="line"/>
      <point x="174" y="565" type="line" smooth="yes"/>
      <point x="181" y="565"/>
      <point x="187" y="560"/>
      <point x="188" y="553" type="curve"/>
      <point x="188" y="290" type="line" smooth="yes"/>
      <point x="188" y="281" smooth="yes"/>
      <point x="181" y="276" smooth="yes"/>
      <point x="174" y="276" type="curve" smooth="yes"/>
      <point x="157" y="276" type="line"/>
      <point x="157" y="262" type="line"/>
      <point x="279" y="262" type="line"/>
    </contour>
    <contour>
      <point x="276" y="558" type="line" smooth="yes"/>
      <point x="313" y="558" smooth="yes"/>
      <point x="332" y="523" smooth="yes"/>
      <point x="332" y="489" type="curve" smooth="yes"/>
      <point x="332" y="455" smooth="yes"/>
      <point x="313" y="421" smooth="yes"/>
      <point x="276" y="421" type="curve" smooth="yes"/>
      <point x="240" y="421" type="line"/>
      <point x="240" y="558" type="line"/>
    </contour>
  </outline>
</glyph>
<glyph name="macron" format="1">
  <advance width="312"/>
  <unicode hex="00AF"/>
  <outline>
    <contour>
      <point x="35" y="536" type="line" name="hr00"/>
      <point x="277" y="536" type="line"/>
      <point x="277" y="586" type="line"/>
      <point x="35" y="586" type="line"/>
    </contour>
  </outline>
</glyph>
<glyph name="degree" format="1">
  <advance width="274"/>
  <unicode hex="00B0"/>
  <outline>
    <contour>
      <point x="30" y="535" type="curve" smooth="yes" name="hr00"/>
      <point x="30" y="476" smooth="yes"/>
      <point x="78" y="428" smooth="yes"/>
      <point x="137" y="428" type="curve" smooth="yes"/>
      <point x="196" y="428" smooth="yes"/>
      <point x="244" y="476" smooth="yes"/>
      <point x="244" y="535" type="curve" smooth="yes"/>
      <point x="244" y="594" smooth="yes"/>
      <point x="196" y="642" smooth="yes"/>
      <point x="137" y="642" type="curve" smooth="yes"/>
      <point x="78" y="642" smooth="yes"/>
      <point x="30" y="594" smooth="yes"/>
    </contour>
    <contour>
      <point x="71" y="535" type="curve"/>
      <point x="71" y="571" smooth="yes"/>
      <point x="101" y="601" smooth="yes"/>
      <point x="137" y="601" type="curve" smooth="yes"/>
      <point x="173" y="601" smooth="yes"/>
      <point x="203" y="571" smooth="yes"/>
      <point x="203" y="535" type="curve" smooth="yes"/>
      <point x="203" y="499" smooth="yes"/>
      <point x="173" y="469" smooth="yes"/>
      <point x="137" y="469" type="curve" smooth="yes"/>
      <point x="101" y="469" smooth="yes"/>
      <point x="71" y="499" smooth="yes"/>
    </contour>
  </outline>
</glyph>
<glyph name="twosuperior" format="1">
  <advance width="292"/>
  <unicode hex="00B2"/>
  <outline>
    <contour>
      <point x="140" y="560" type="curve" smooth="yes" name="hr00"/>
      <point x="175" y="560" smooth="yes"/>
      <point x="198" y="532" smooth="yes"/>
      <point x="198" y="486" type="curve" smooth="yes"/>
      <point x="198" y="458" smooth="yes"/>
      <point x="184" y="411" smooth="yes"/>
      <point x="153" y="374" type="curve" smooth="yes"/>
      <point x="17" y="213" type="line"/>
      <point x="189" y="213" type="line" smooth="yes"/>
      <point x="224" y="213"/>
      <point x="252" y="209"/>
      <point x="267" y="205" type="curve"/>
      <point x="265" y="219" smooth="yes"/>
      <point x="260" y="258" smooth="yes"/>
      <point x="260" y="293" type="curve" smooth="yes"/>
      <point x="260" y="326" type="line"/>
      <point x="240" y="326" type="line"/>
      <point x="233" y="269" type="line" smooth="yes"/>
      <point x="232" y="261" smooth="yes"/>
      <point x="227" y="258" smooth="yes"/>
      <point x="220" y="258" type="curve" smooth="yes"/>
      <point x="90" y="258" type="line"/>
      <point x="172" y="353" type="line" smooth="yes"/>
      <point x="218" y="407" smooth="yes"/>
      <point x="253" y="447" smooth="yes"/>
      <point x="253" y="494" type="curve" smooth="yes"/>
      <point x="253" y="537" smooth="yes"/>
      <point x="221" y="579" smooth="yes"/>
      <point x="139" y="579" type="curve" smooth="yes"/>
      <point x="67" y="579" smooth="yes"/>
      <point x="35" y="541" smooth="yes"/>
      <point x="35" y="499" type="curve" smooth="yes"/>
      <point x="35" y="478" smooth="yes"/>
      <point x="44" y="462" smooth="yes"/>
      <point x="64" y="462" type="curve" smooth="yes"/>
      <point x="79" y="462"/>
      <point x="93" y="467"/>
      <point x="99" y="472" type="curve"/>
      <point x="93" y="484" smooth="yes"/>
      <point x="90" y="498" smooth="yes"/>
      <point x="90" y="512" type="curve" smooth="yes"/>
      <point x="90" y="537" smooth="yes"/>
      <point x="106" y="560" smooth="yes"/>
    </contour>
  </outline>
</glyph>
<glyph name="threesuperior" format="1">
  <advance width="292"/>
  <unicode hex="00B3"/>
  <outline>
    <contour>
      <point x="76" y="388" type="line"/>
      <point x="89" y="391" smooth="yes"/>
      <point x="101" y="392" smooth="yes"/>
      <point x="109" y="392" type="curve" smooth="yes"/>
      <point x="162" y="392" smooth="yes"/>
      <point x="203" y="365" smooth="yes"/>
      <point x="203" y="309" type="curve" smooth="yes"/>
      <point x="203" y="266" smooth="yes"/>
      <point x="178" y="225" smooth="yes"/>
      <point x="130" y="225" type="curve" smooth="yes"/>
      <point x="99" y="225" smooth="yes"/>
      <point x="83" y="247" smooth="yes"/>
      <point x="83" y="273" type="curve" smooth="yes"/>
      <point x="83" y="285"/>
      <point x="86" y="299"/>
      <point x="92" y="311" type="curve"/>
      <point x="85" y="317" smooth="yes"/>
      <point x="72" y="323" smooth="yes"/>
      <point x="57" y="323" type="curve" smooth="yes"/>
      <point x="37" y="323" smooth="yes"/>
      <point x="29" y="307" smooth="yes"/>
      <point x="29" y="286" type="curve" smooth="yes"/>
      <point x="29" y="243" smooth="yes"/>
      <point x="60" y="205" smooth="yes"/>
      <point x="130" y="205" type="curve" smooth="yes"/>
      <point x="218" y="205" smooth="yes"/>
      <point x="262" y="259" smooth="yes"/>
      <point x="262" y="316" type="curve" smooth="yes"/>
      <point x="262" y="357"/>
      <point x="230" y="397"/>
      <point x="168" y="408" type="curve"/>
      <point x="213" y="427" smooth="yes"/>
      <point x="236" y="465" smooth="yes"/>
      <point x="236" y="499" type="curve" smooth="yes" name="hr01"/>
      <point x="236" y="551" smooth="yes"/>
      <point x="186" y="579" smooth="yes"/>
      <point x="135" y="579" type="curve" smooth="yes"/>
      <point x="88" y="579" smooth="yes"/>
      <point x="42" y="556" smooth="yes"/>
      <point x="42" y="504" type="curve" smooth="yes"/>
      <point x="42" y="484" smooth="yes"/>
      <point x="51" y="466" smooth="yes"/>
      <point x="71" y="466" type="curve" smooth="yes"/>
      <point x="84" y="466"/>
      <point x="98" y="471"/>
      <point x="106" y="479" type="curve"/>
      <point x="101" y="491" smooth="yes"/>
      <point x="97" y="505" smooth="yes"/>
      <point x="97" y="517" type="curve" smooth="yes"/>
      <point x="97" y="541" smooth="yes"/>
      <point x="111" y="560" smooth="yes"/>
      <point x="135" y="560" type="curve" smooth="yes"/>
      <point x="166" y="560" smooth="yes"/>
      <point x="183" y="531" smooth="yes"/>
      <point x="183" y="499" type="curve" smooth="yes"/>
      <point x="183" y="463" smooth="yes"/>
      <point x="157" y="423" smooth="yes"/>
      <point x="101" y="411" type="curve" smooth="yes"/>
      <point x="73" y="405" type="line"/>
    </contour>
  </outline>
</glyph>
<glyph name="acute" format="1">
  <advance width="150"/>
  <unicode hex="00B4"/>
  <outline>
    <contour>
      <point x="0" y="480" type="line" name="hr00"/>
      <point x="16" y="468" type="line"/>
      <point x="150" y="602" type="line"/>
      <point x="150" y="635" smooth="yes"/>
      <point x="130" y="648" smooth="yes"/>
      <point x="114" y="648" type="curve" smooth="yes"/>
      <point x="98" y="648" smooth="yes"/>
      <point x="86" y="643" smooth="yes"/>
      <point x="71" y="614" type="curve" smooth="yes"/>
    </contour>
  </outline>
</glyph>
<glyph name="mu" format="1">
  <advance width="518"/>
  <unicode hex="00B5"/>
  <outline>
    <contour>
      <point x="355" y="-6" type="line"/>
      <point x="367" y="-3" smooth="yes"/>
      <point x="403" y="0" smooth="yes"/>
      <point x="439" y="0" type="curve" smooth="yes"/>
      <point x="474" y="0" type="line"/>
      <point x="474" y="18" type="line"/>
      <point x="434" y="18" smooth="yes"/>
      <point x="427" y="29" smooth="yes"/>
      <point x="427" y="70" type="curve" smooth="yes"/>
      <point x="427" y="438" type="line"/>
      <point x="415" y="435" smooth="yes"/>
      <point x="379" y="432" smooth="yes"/>
      <point x="343" y="432" type="curve" smooth="yes" name="hr01"/>
      <point x="328" y="432" type="line"/>
      <point x="328" y="414" type="line"/>
      <point x="349" y="414" smooth="yes"/>
      <point x="355" y="387" smooth="yes"/>
      <point x="355" y="362" type="curve" smooth="yes"/>
      <point x="355" y="277" type="line" smooth="yes"/>
      <point x="355" y="109" smooth="yes"/>
      <point x="302" y="27" smooth="yes"/>
      <point x="235" y="27" type="curve" smooth="yes"/>
      <point x="188" y="27" smooth="yes"/>
      <point x="153" y="56" smooth="yes"/>
      <point x="153" y="127" type="curve" smooth="yes"/>
      <point x="153" y="438" type="line" name="hr02"/>
      <point x="141" y="435" smooth="yes"/>
      <point x="105" y="432" smooth="yes"/>
      <point x="69" y="432" type="curve" smooth="yes" name="hr03"/>
      <point x="54" y="432" type="line"/>
      <point x="54" y="414" type="line"/>
      <point x="75" y="414" smooth="yes"/>
      <point x="81" y="387" smooth="yes"/>
      <point x="81" y="362" type="curve" smooth="yes"/>
      <point x="81" y="-62" type="line" smooth="yes"/>
      <point x="81" y="-155" smooth="yes"/>
      <point x="90" y="-216" smooth="yes"/>
      <point x="130" y="-216" type="curve" smooth="yes"/>
      <point x="147" y="-216"/>
      <point x="179" y="-201"/>
      <point x="193" y="-179" type="curve"/>
      <point x="141" y="-144" smooth="yes"/>
      <point x="122" y="-88" smooth="yes"/>
      <point x="122" y="-14" type="curve" smooth="yes"/>
      <point x="122" y="20" type="line"/>
      <point x="145" y="-2" smooth="yes"/>
      <point x="175" y="-12" smooth="yes"/>
      <point x="205" y="-12" type="curve" smooth="yes"/>
      <point x="264" y="-12"/>
      <point x="328" y="17"/>
      <point x="355" y="129" type="curve"/>
    </contour>
  </outline>
</glyph>
<glyph name="paragraph" format="1">
  <advance width="451"/>
  <unicode hex="00B6"/>
  <outline>
    <contour>
      <point x="274" y="-92" type="line" name="hr00"/>
      <point x="274" y="612" type="line"/>
      <point x="326" y="612" type="line"/>
      <point x="326" y="-92" type="line"/>
      <point x="360" y="-92" type="line"/>
      <point x="360" y="598" type="line"/>
      <point x="360" y="606" smooth="yes"/>
      <point x="366" y="612" smooth="yes"/>
      <point x="374" y="612" type="curve" smooth="yes"/>
      <point x="421" y="612" type="line"/>
      <point x="421" y="630" type="line"/>
      <point x="240" y="630" type="line" smooth="yes"/>
      <point x="118" y="630" smooth="yes"/>
      <point x="20" y="568" smooth="yes"/>
      <point x="20" y="446" type="curve" smooth="yes"/>
      <point x="20" y="324"/>
      <point x="118" y="262"/>
      <point x="240" y="262" type="curve"/>
      <point x="240" y="-92" type="line"/>
    </contour>
  </outline>
</glyph>
